<svg xmlns="http://www.w3.org/2000/svg" xmlns:xlink="http://www.w3.org/1999/xlink" id="Layer_1" width="64" height="64" x="0" style="enable-background:new 0 0 64 64" y="0" version="1.1" viewBox="0 0 64 64" xml:space="preserve"><style type="text/css">.st0,.st1{fill:none;stroke:#f35890;stroke-width:2;stroke-linecap:round;stroke-linejoin:round;stroke-miterlimit:10}.st1{stroke:#02e2ac}</style><path d="M40,60H24l8-8L40,60z" class="st0"/><path d="M40,4H24l8,8L40,4z" class="st0"/><path d="M60,40V24l-8,8L60,40z" class="st0"/><path d="M4,40V24l8,8L4,40z" class="st0"/><path d="M48.3,60H60V48" class="st1"/><path d="M16,4H4v12" class="st1"/><path d="M60,16V4H48" class="st1"/><path d="M4,48v12h12" class="st1"/><path d="M4,60l16-16" class="st1"/><path d="M44,20L60,4" class="st1"/><path d="M60,60L44,44" class="st1"/><path d="M20,20L4,4" class="st1"/><path d="M37.9,38l6-6l-6-6l-6,6L37.9,38z" class="st0"/><path d="M25.9,38l6-6l-6-6l-6,6L25.9,38z" class="st0"/><path d="M38,26.1l-6-6l-6,6l6,6L38,26.1z" class="st0"/><path d="M38,38.1l-6-6l-6,6l6,6L38,38.1z" class="st0"/></svg>