<svg xmlns="http://www.w3.org/2000/svg" xmlns:xlink="http://www.w3.org/1999/xlink" id="Layer_1" width="64" height="64" x="0" style="enable-background:new 0 0 64 64" y="0" version="1.1" viewBox="0 0 64 64" xml:space="preserve"><style type="text/css">.st0{fill:#f35890}.st1,.st2{fill:none;stroke:#02e2ac;stroke-width:2;stroke-linecap:round;stroke-linejoin:round;stroke-miterlimit:10}.st2{stroke:#f35890}</style><path d="M40,35c1.7,0,3-1.3,3-3c0-1.7-1.3-3-3-3s-3,1.3-3,3C37,33.7,38.3,35,40,35z" class="st0"/><path d="M33,30v7c0,0.6,0.4,1,1,1h10c0.6,0,1,0.4,1,1v5c0,0.6-0.4,1-1,1H20c-0.6,0-1-0.4-1-1V20c0-0.6,0.4-1,1-1h24	c0.6,0,1,0.4,1,1v5c0,0.6-0.4,1-1,1H34c-0.6,0-1,0.4-1,1v5" class="st1"/><path d="M53.6,37.4L59,32l-5.5-5.5" class="st2"/><path d="M10.5,26.5L5,32l5.5,5.5" class="st2"/><path d="M37.5,10.5L32,5l-5.5,5.5" class="st2"/><path d="M26.5,53.5L32,59l5.5-5.5" class="st2"/><path d="M48.3,60H60V48" class="st1"/><path d="M16,4H4v12" class="st1"/><path d="M60,16V4H48" class="st1"/><path d="M4,48v12h12" class="st1"/></svg>