<svg xmlns="http://www.w3.org/2000/svg" xmlns:xlink="http://www.w3.org/1999/xlink" id="Layer_1" width="64" height="64" x="0" style="enable-background:new 0 0 64 64" y="0" version="1.1" viewBox="0 0 64 64" xml:space="preserve"><style type="text/css">.st0,.st1{fill:none;stroke:#f35890;stroke-width:2;stroke-linecap:round;stroke-linejoin:round;stroke-miterlimit:10}.st1{stroke:#02e2ac}</style><path d="M31.9,4l-5,9.3h10L31.9,4z" class="st0"/><path d="M38.6,19.5H25.3l-4,7.5h21.3L38.6,19.5z" class="st0"/><path d="M45.2,32.9H18.6l-5,9.4h36.6L45.2,32.9z" class="st0"/><path d="M59.9,60l-6-11.2H10L4,60H59.9z" class="st0"/><path d="M18.5,13.7l5.4-9.6H4" class="st1"/><path d="M5,41.8l4.7-8.4H4" class="st1"/><path d="M59,41.8l-4.7-8.4H60" class="st1"/><path d="M12,27.6l4.7-8.4H4" class="st1"/><path d="M45.5,13.7l-5.4-9.6H60" class="st1"/><path d="M52,27.6l-4.7-8.4H60" class="st1"/></svg>