<svg xmlns="http://www.w3.org/2000/svg" xmlns:xlink="http://www.w3.org/1999/xlink" id="Layer_1" width="64" height="64" x="0" style="enable-background:new 0 0 64 64" y="0" version="1.1" viewBox="0 0 64 64" xml:space="preserve"><style type="text/css">.st0,.st1{fill:none;stroke:#02e2ac;stroke-width:2;stroke-linecap:round;stroke-linejoin:round;stroke-miterlimit:10}.st1{stroke:#f35890}</style><path d="M40,44h4v-4" class="st0"/><path d="M39.7,60h20V40" class="st1"/><path d="M40,52h12V40" class="st1"/><path d="M24,20h-4v4" class="st0"/><path d="M24,4H4v20" class="st1"/><path d="M24,12.4H12V24" class="st1"/><path d="M44,24v-4h-4" class="st0"/><path d="M60,24V4H40" class="st1"/><path d="M52,24V12H40" class="st1"/><path d="M20,40v4h4" class="st0"/><path d="M4,40v20h20" class="st1"/><path d="M12.4,40v11.6H24" class="st1"/><path d="M32,60V44" class="st1"/><path d="M32,20V4" class="st1"/><path d="M60,32H44" class="st1"/><path d="M20,32H4" class="st1"/><path d="M28,28l8,8" class="st0"/><path d="M28,36l8-8" class="st0"/></svg>