<svg xmlns="http://www.w3.org/2000/svg" width="64" height="64" fill="none" viewBox="0 0 64 64"><path stroke="#FA72AF" stroke-linecap="round" stroke-linejoin="round" stroke-miterlimit="10" stroke-width="2" d="M24 4H4V60H60V4H40"/><path stroke="#FA72AF" stroke-linecap="round" stroke-linejoin="round" stroke-miterlimit="10" stroke-width="2" d="M40 32L48 36V60H16V36L24 32"/><path stroke="#FA72AF" stroke-linecap="round" stroke-linejoin="round" stroke-miterlimit="10" stroke-width="2" d="M32 23C34.2091 23 36 21.2091 36 19C36 16.7909 34.2091 15 32 15C29.7909 15 28 16.7909 28 19C28 21.2091 29.7909 23 32 23Z"/><path stroke="#7AFFF7" stroke-linecap="round" stroke-linejoin="round" stroke-miterlimit="10" stroke-width="2" d="M32 29C37.5228 29 42 24.5228 42 19C42 13.4772 37.5228 9 32 9C26.4772 9 22 13.4772 22 19C22 24.5228 26.4772 29 32 29Z"/><path stroke="#7AFFF7" stroke-linecap="round" stroke-linejoin="round" stroke-miterlimit="10" stroke-width="2" d="M32 5V9"/><path stroke="#7AFFF7" stroke-linecap="round" stroke-linejoin="round" stroke-miterlimit="10" stroke-width="2" d="M32 29V33"/><path stroke="#7AFFF7" stroke-linecap="round" stroke-linejoin="round" stroke-miterlimit="10" stroke-width="2" d="M18 19H22"/><path stroke="#7AFFF7" stroke-linecap="round" stroke-linejoin="round" stroke-miterlimit="10" stroke-width="2" d="M42 19H46"/><path stroke="#FA72AF" stroke-linecap="round" stroke-linejoin="round" stroke-miterlimit="10" stroke-width="2" d="M40 44V60"/><path stroke="#FA72AF" stroke-linecap="round" stroke-linejoin="round" stroke-miterlimit="10" stroke-width="2" d="M24 60V44"/></svg>