<svg xmlns="http://www.w3.org/2000/svg" width="1440" height="900" fill="none" viewBox="0 0 1440 900"><g clip-path="url(#clip0)"><rect width="1440" height="900" fill="#0E0333"/><path stroke="#9760FF" stroke-miterlimit="10" d="M23.1161 448.942L375.879 96.1792L725.213 -253.155L1074.55 96.1792L1427.31 448.942L1077.98 798.276L725.213 1151.04L372.451 798.276L23.1161 448.942Z"/><path stroke="#9760FF" stroke-miterlimit="10" d="M373.875 799.167L727.929 445.113L1078.54 94.4995L1074.05 90.0018L1069.5 85.4566L718.886 436.07L364.832 790.124L369.377 794.67L373.875 799.167Z"/><path fill="#0E0333" stroke="#9760FF" stroke-miterlimit="10" d="M1207.46 610.5L1324.86 493.094L1441.12 376.832L1593.96 529.665L1748.29 684L1632.03 800.262L1514.62 917.667L1360.29 763.333L1207.46 610.5Z"/><path stroke="#9760FF" stroke-miterlimit="10" d="M1116.75 478.824L1202.08 393.496L1286.57 309L1282.08 304.502L1277.53 299.957L1193.03 384.453L1107.71 469.781L1112.25 474.326L1116.75 478.824Z"/><path fill="#9760FF" d="M1287.19 309L1285.21 310.978L1283.25 312.937L1288.1 317.788L1293 322.687L1294.96 320.728L1296.94 318.75L1292.04 313.851L1287.19 309Z"/><path fill="#9760FF" d="M1243.69 314.25L1242.89 315.05L1242.09 315.843L1246.94 320.694L1251.84 325.593L1252.64 324.8L1253.44 324L1248.54 319.101L1243.69 314.25Z"/><path fill="#0E0333" stroke="#9760FF" stroke-miterlimit="10" d="M1081.59 454.449L1290.33 245.709L1497.04 38.9996L1402.19 -55.8521L1306.41 -151.637L1099.7 55.0725L890.957 263.812L986.742 359.597L1081.59 454.449Z"/><path stroke="#9760FF" stroke-miterlimit="10" d="M966.801 696.468L1020.29 749.954L1073.25 802.917L1077.75 798.42L1082.29 793.875L1029.33 740.911L975.844 687.425L971.298 691.971L966.801 696.468Z"/><path fill="#9760FF" d="M1078.5 789.749L1080.48 791.728L1082.44 793.687L1087.29 788.836L1092.19 783.937L1090.23 781.978L1088.25 779.999L1083.35 784.898L1078.5 789.749Z"/><path fill="#9760FF" d="M1354.5 776.249L1356.48 778.228L1358.44 780.187L1363.29 775.336L1368.19 770.437L1366.23 768.478L1364.25 766.499L1359.35 771.398L1354.5 776.249Z"/><path stroke="#9760FF" stroke-miterlimit="10" d="M346.363 254.156L401.027 308.819L455.156 362.949L459.654 358.451L464.199 353.906L410.07 299.776L355.406 245.113L350.861 249.658L346.363 254.156Z"/><path fill="#0E0333" stroke="#9760FF" stroke-miterlimit="10" d="M1002.3 926.661L1232.01 696.942L1459.5 469.457L1470.71 480.671L1482.04 492L1254.56 719.485L1024.84 949.204L1013.51 937.876L1002.3 926.661Z"/><path fill="#0E0333" stroke="#9760FF" stroke-miterlimit="10" d="M524.576 448.942L625.386 348.132L725.213 248.305L825.041 348.132L925.85 448.942L826.023 548.769L725.213 649.579L624.404 548.769L524.576 448.942Z"/><path fill="#0E0333" stroke="#9760FF" stroke-miterlimit="10" d="M-108.793 824.047L1.59038 713.664L110.899 604.356L210.726 704.183L311.536 804.993L202.228 914.301L91.844 1024.68L-8.96559 923.875L-108.793 824.047Z"/><path fill="#0E0333" stroke="#9760FF" stroke-miterlimit="10" d="M311.999 805.456L294.485 822.971L277.144 840.312L358.266 921.433L440.186 1003.35L457.527 986.013L475.042 968.498L393.121 886.578L311.999 805.456Z"/><path fill="#0E0333" stroke="#9760FF" stroke-miterlimit="10" d="M289.812 853.456L272.298 870.971L254.957 888.312L279.419 912.774L304.124 937.479L321.465 920.138L338.98 902.624L314.274 877.919L289.812 853.456Z"/><rect width="1.728" height="86.837" x="214.307" y="707.25" fill="#8C65F7" transform="rotate(45 214.307 707.25)"/><rect width="1.728" height="10.54" x="189.514" y="759.889" fill="#8C65F7" transform="rotate(45 189.514 759.889)"/><rect width="20.694" height="1.725" x="175.969" y="746.25" fill="#8C65F7" transform="rotate(45 175.969 746.25)"/><rect width="20.694" height="1.725" x="173.72" y="720" fill="#8C65F7" transform="rotate(45 173.72 720)"/><path stroke="#9760FF" stroke-miterlimit="10" d="M367.272 451.314L545.825 272.761L722.641 95.9455L899.456 272.761L1078.01 451.314L901.193 628.13L722.641 806.683L544.088 628.13L367.272 451.314Z"/><rect width="13.5" height="13.5" fill="#FC0" transform="matrix(0.707109 0.707105 -0.707109 0.707105 720 800.586)"/><rect width="13.5" height="13.5" fill="#8C65F7" transform="matrix(0.70711 0.707104 -0.70711 0.707104 1076.38 444.204)"/><rect width="13.5" height="13.5" x="904.296" y="615.75" fill="#fff" transform="rotate(45 904.296 615.75)"/><rect width="13.5" height="13.5" x="537.036" y="617.622" fill="#F579A6" transform="rotate(45 537.036 617.622)"/><rect width="13.5" height="13.5" fill="#5BF1CD" transform="matrix(0.707106 0.707107 -0.707106 0.707107 895.296 258.75)"/><rect width="13.5" height="13.5" fill="#F579A6" transform="matrix(0.707106 0.707107 -0.707106 0.707107 720 87.8222)"/><rect width="13.5" height="13.5" fill="#5BF1CD" transform="matrix(0.707107 0.707106 -0.707107 0.707106 364.149 443.674)"/><rect width="13.5" height="13.5" fill="#fff" transform="matrix(0.707109 0.707105 -0.707109 0.707105 547.112 260.71)"/><path fill="#0E0333" stroke="#9760FF" stroke-miterlimit="10" d="M204.687 337.606L295.966 246.327L386.356 155.937L210.977 -19.4414L33.8763 -196.543L-56.5134 -106.153L-147.793 -14.8737L29.3086 162.227L204.687 337.606Z"/><path fill="#0E0333" stroke="#9760FF" stroke-miterlimit="10" d="M389.478 227.065L418.968 197.575L448.168 168.375L418.968 139.175L389.478 109.685L360.278 138.885L330.788 168.375L360.278 197.865L389.478 227.065Z"/><path fill="#0E0333" stroke="#9760FF" stroke-miterlimit="10" d="M346.5 195.793L360.089 182.204L373.542 168.75L360.089 155.296L346.5 141.707L333.046 155.161L319.457 168.75L333.046 182.339L346.5 195.793Z"/><path fill="#9760FF" d="M390 129L394.899 124.101L399.75 119.25L394.899 114.399L390 109.5L385.149 114.351L380.25 119.25L385.149 124.149L390 129Z"/><path fill="#9760FF" d="M318.75 168.75L323.649 163.851L328.5 159L323.649 154.149L318.75 149.25L313.899 154.101L309 159L313.899 163.899L318.75 168.75Z"/><path fill="#6F3FF5" d="M787.669 484.762C783.513 491.689 778.318 498.096 772.084 503.464C771.737 503.81 771.391 503.983 771.218 504.329C766.369 508.312 761.175 511.776 755.287 514.546C753.728 515.239 752.17 515.931 750.612 516.624C745.417 518.702 740.048 520.261 734.68 521.126C719.096 523.724 703.338 521.3 689.658 514.719C689.485 514.719 689.485 514.546 689.311 514.546C686.368 513.161 683.424 511.429 680.653 509.698C678.229 508.139 675.805 506.407 673.727 504.503C664.376 496.71 656.93 486.667 652.081 474.545C636.67 435.93 655.198 392.292 693.467 376.361C693.814 376.188 693.987 376.188 694.333 376.015C695.199 375.669 696.065 375.322 696.931 374.976C711.13 369.954 725.849 369.262 739.529 372.379C762.906 377.747 783.339 394.197 792.863 418.094C801.868 440.778 799.271 465.194 787.669 484.762Z"/><path fill="#8C65F7" d="M712.695 381.559C709.232 381.559 704.729 382.771 708.019 384.849C711.31 386.754 713.214 386.927 713.388 389.525C713.388 392.122 711.829 394.72 712.522 396.625C713.388 398.356 714.773 400.607 715.985 399.915C717.37 399.222 720.834 395.239 722.912 395.412C724.989 395.586 731.916 395.932 732.955 393.681C733.994 391.43 735.033 391.603 736.765 389.005C738.496 386.408 738.323 383.118 736.245 383.118C734.167 383.118 733.994 383.984 730.531 383.81C727.067 383.637 725.509 381.213 722.219 381.906C718.929 382.252 715.292 381.559 712.695 381.559Z"/><path fill="#8C65F7" d="M699.704 382.423C695.722 384.501 687.41 387.618 683.6 386.579C681.695 386.06 679.444 385.367 677.02 384.848C662.474 395.411 651.911 411.169 647.755 429.178C648.794 431.082 649.833 432.987 651.218 434.546C654.162 438.009 657.279 438.528 661.089 439.221C664.898 439.914 663.686 442.165 665.591 444.416C667.496 446.667 668.189 448.052 670.44 449.091C672.518 450.304 669.747 452.555 668.881 454.979C668.015 457.403 667.842 458.789 669.574 463.81C671.305 468.832 676.327 472.815 677.886 474.72C679.444 476.625 676.847 478.876 677.539 482.858C678.232 486.841 678.059 497.577 681.868 503.638C685.678 509.699 688.102 509.006 687.756 504.85C687.41 500.868 686.198 496.885 688.449 493.941C690.873 490.824 695.548 491.69 697.28 486.149C698.839 480.607 699.878 480.78 702.475 478.876C705.072 476.971 703.86 475.412 706.285 471.083C708.709 466.754 709.402 462.771 705.765 460.867C702.302 459.135 699.878 459.308 696.761 455.152C693.644 450.996 688.968 446.84 684.466 444.416C680.137 441.992 673.037 444.936 670.266 444.07C667.496 443.204 665.764 438.009 665.937 435.931C666.111 433.853 664.033 433.334 661.955 433.853C659.877 434.373 658.838 432.987 658.318 430.39C657.799 427.619 661.955 424.329 665.418 423.983C668.881 423.81 670.613 425.368 671.305 429.697C671.998 434.026 674.942 436.277 678.059 436.97C681.176 437.836 679.271 434.546 677.02 432.295C674.769 430.043 674.596 427.965 676.327 423.117C678.059 418.268 682.042 418.615 685.159 414.112C688.276 409.61 688.795 413.073 691.912 413.42C695.029 413.939 694.509 412.208 695.722 409.437C696.934 406.666 700.743 409.091 704.033 406.839C707.324 404.588 700.57 400.952 700.916 397.835C701.436 394.718 704.38 394.891 702.648 390.216C700.916 385.54 703.341 385.367 704.553 383.635C705.938 382.077 703.687 380.345 699.704 382.423ZM695.202 393.852C694.163 396.103 693.297 395.757 691.566 398.181C689.834 400.779 687.237 402.164 685.505 402.337C683.773 402.51 681.003 399.567 680.829 397.662C680.656 395.757 683.427 395.237 686.371 394.891C689.488 394.545 692.085 393.159 694.683 391.082C697.107 389.177 696.241 391.601 695.202 393.852Z"/><path fill="#8C65F7" d="M797.366 440.436V440.609C796.154 441.129 794.942 441.994 794.422 443.553C792.691 447.709 792.344 445.977 788.362 448.748C784.379 451.692 785.937 453.943 786.11 456.713C786.284 459.657 781.608 462.774 779.357 463.813C777.106 464.852 776.067 471.432 776.76 474.549C777.452 477.666 773.643 479.052 771.392 481.995C769.14 484.939 767.755 489.788 766.197 492.039C764.638 494.29 761.868 495.848 759.097 495.329C756.326 494.809 753.729 490.307 752.344 486.324C750.785 482.342 750.266 478.013 751.131 473.683C751.997 469.354 751.651 469.874 750.612 463.12C749.573 456.367 744.898 454.289 742.3 453.77C739.703 453.077 735.373 454.635 733.122 453.25C730.871 451.865 729.832 449.96 728.274 443.553C726.715 437.146 729.832 435.761 732.43 432.297C734.854 428.834 739.703 425.198 744.032 423.985C748.361 422.773 751.305 423.985 754.075 425.198C756.673 426.583 758.058 429.527 759.963 429.7C761.868 429.873 763.426 428.834 765.331 429.353C767.236 429.7 768.448 430.566 770.353 430.392C772.257 430.046 771.045 427.968 770.699 426.756C770.353 425.544 768.794 425.89 766.543 425.89C764.292 425.89 763.772 425.198 762.907 423.812C762.041 422.254 760.829 423.639 759.79 422.946C758.751 422.427 758.924 425.024 758.751 426.063C758.577 427.102 757.885 425.198 757.885 425.198C757.885 425.198 757.019 426.583 756.499 425.89C756.153 425.198 757.019 423.639 756.846 422.081C756.673 420.522 754.421 420.868 752.863 419.656C751.478 418.444 749.4 418.271 747.322 418.964C745.244 419.656 744.898 419.137 744.032 420.868C743.166 422.6 738.837 423.812 737.451 423.639C736.066 423.466 737.105 420.522 738.144 418.098C739.356 415.674 741.781 416.366 743.339 413.942C744.897 411.518 742.82 411.171 741.434 410.652C740.049 410.305 739.529 408.92 741.088 405.803C742.473 402.686 744.551 403.552 745.244 404.937C746.11 406.496 747.841 407.188 749.746 407.188C751.651 407.188 751.131 405.976 751.131 403.206C751.131 400.435 752.344 399.05 754.768 398.011C757.192 396.972 761.348 395.24 762.907 393.855C764.465 392.296 767.236 393.335 768.794 394.894C770.353 396.452 773.643 397.145 777.106 397.664C778.145 397.838 778.838 397.491 779.53 396.799C789.574 408.92 795.981 423.985 797.366 440.436Z"/><path fill="#8C65F7" d="M783.171 477.839C781.266 477.493 781.44 478.185 780.401 479.571C779.362 480.956 777.803 482.688 777.976 484.246C778.149 485.805 778.323 487.709 779.708 486.497C780.92 485.458 780.574 484.073 782.305 483.207C784.21 482.341 785.942 478.359 783.171 477.839Z"/><path fill="#5932C4" d="M790.959 475.067C790.093 477.319 788.708 480.436 786.976 484.245C782.82 491.172 777.625 497.579 771.391 502.947C771.391 503.466 771.218 503.813 771.045 504.332C766.196 508.315 761.002 511.778 755.114 514.549C753.555 515.242 751.997 515.934 750.438 516.627C745.244 518.705 739.876 520.263 734.507 521.129C718.923 523.727 703.165 521.302 689.485 514.722C689.138 514.549 688.792 514.203 688.446 514.029C685.502 512.644 682.558 510.912 679.788 509.181C677.536 507.795 675.458 506.237 673.554 504.505C664.03 496.713 656.237 486.323 651.215 474.028C635.631 435.24 654.506 391.083 693.468 375.498C694.333 375.152 695.199 374.805 696.065 374.459C695.199 374.979 694.16 375.671 693.294 376.364C664.03 397.836 664.376 454.288 700.394 483.899C737.971 514.376 780.396 489.613 790.959 475.067Z" opacity=".45"/><path stroke="#F579A6" stroke-linecap="round" stroke-linejoin="round" stroke-miterlimit="10" d="M734.898 358.051C735.764 358.224 765.375 364.458 765.375 364.458L805.376 403.074L817.151 447.057L808.32 489.309L786.155 513.552L767.453 527.579L735.245 540.739H690.568L654.723 509.57L631 470.261L636.714 404.632L677.754 367.229L734.898 358.051Z"/><path stroke="#F579A6" stroke-linecap="round" stroke-linejoin="round" stroke-miterlimit="10" d="M714.636 380.215L734.897 358.05L765.373 364.457L714.636 380.215Z"/><path stroke="#F579A6" stroke-linecap="round" stroke-linejoin="round" stroke-miterlimit="10" d="M731.26 424.719L714.636 380.216L765.373 364.458L731.26 424.719Z"/><path stroke="#F579A6" stroke-linecap="round" stroke-linejoin="round" stroke-miterlimit="10" d="M805.378 403.076L731.263 424.722L775.767 439.441L805.378 403.076Z"/><path stroke="#F579A6" stroke-linecap="round" stroke-linejoin="round" stroke-miterlimit="10" d="M769.535 489.141L775.769 439.443L817.329 447.062L769.535 489.141Z"/><path stroke="#F579A6" stroke-linecap="round" stroke-linejoin="round" stroke-miterlimit="10" d="M808.497 489.31L769.535 489.136L817.329 447.057L808.497 489.31Z"/><path stroke="#F579A6" stroke-linecap="round" stroke-linejoin="round" stroke-miterlimit="10" d="M731.263 424.721L769.533 489.138L775.767 439.44L731.263 424.721Z"/><path stroke="#F579A6" stroke-linecap="round" stroke-linejoin="round" stroke-miterlimit="10" d="M671.523 416.407L677.93 367.055L714.987 380.562L671.523 416.407Z"/><path stroke="#F579A6" stroke-linecap="round" stroke-linejoin="round" stroke-miterlimit="10" d="M686.238 457.103L731.26 424.721L734.204 472.687L686.238 457.103Z"/><path stroke="#F579A6" stroke-linecap="round" stroke-linejoin="round" stroke-miterlimit="10" d="M636.891 404.459L671.523 416.408L631.176 470.088L636.891 404.459Z"/><path stroke="#F579A6" stroke-linecap="round" stroke-linejoin="round" stroke-miterlimit="10" d="M686.242 457.101L671.523 416.407L731.265 424.719L686.242 457.101Z"/><path stroke="#F579A6" stroke-linecap="round" stroke-linejoin="round" stroke-miterlimit="10" d="M708.056 501.776L686.238 457.1L734.204 472.685L708.056 501.776Z"/><path stroke="#F579A6" stroke-linecap="round" stroke-linejoin="round" stroke-miterlimit="10" d="M631.176 470.087L686.242 457.1L654.9 509.396L631.176 470.087Z"/><path stroke="#F579A6" stroke-linecap="round" stroke-linejoin="round" stroke-miterlimit="10" d="M708.057 501.78L690.74 540.569H735.417L708.057 501.78Z"/><path stroke="#F579A6" stroke-linecap="round" stroke-linejoin="round" stroke-miterlimit="10" d="M734.206 472.69L769.532 489.14L767.627 527.41L734.206 472.69Z"/><path stroke="#F579A6" stroke-linecap="round" stroke-linejoin="round" stroke-miterlimit="10" d="M786.328 513.383L769.531 489.14L767.453 527.583L786.328 513.383Z"/><path stroke="#F579A6" stroke-linecap="round" stroke-linejoin="round" stroke-miterlimit="10" d="M714.636 380.215L734.897 358.05L765.373 364.457L714.636 380.215Z"/><path stroke="#F579A6" stroke-linecap="round" stroke-linejoin="round" stroke-miterlimit="10" d="M808.497 489.31L769.535 489.136L817.329 447.057L808.497 489.31Z"/><path stroke="#F579A6" stroke-linecap="round" stroke-linejoin="round" stroke-miterlimit="10" d="M786.328 513.383L769.531 489.14L767.453 527.583L786.328 513.383Z"/><path stroke="#F579A6" stroke-linecap="round" stroke-linejoin="round" stroke-miterlimit="10" d="M734.898 358.051C735.764 358.224 765.375 364.458 765.375 364.458L805.376 403.074L817.151 447.057L808.32 489.309L786.155 513.552L767.453 527.579L735.245 540.739H690.568L654.723 509.57L631 470.261L636.714 404.632L677.754 367.229L734.898 358.051Z"/><path stroke="#F579A6" stroke-linecap="round" stroke-linejoin="round" stroke-miterlimit="10" d="M731.26 424.719L714.636 380.216L765.373 364.458L731.26 424.719Z"/><path stroke="#F579A6" stroke-linecap="round" stroke-linejoin="round" stroke-miterlimit="10" d="M805.378 403.076L731.263 424.722L775.767 439.441L805.378 403.076Z"/><path stroke="#F579A6" stroke-linecap="round" stroke-linejoin="round" stroke-miterlimit="10" d="M769.535 489.141L775.769 439.443L817.329 447.062L769.535 489.141Z"/><path stroke="#F579A6" stroke-linecap="round" stroke-linejoin="round" stroke-miterlimit="10" d="M731.263 424.721L769.533 489.138L775.767 439.44L731.263 424.721Z"/><path stroke="#F579A6" stroke-linecap="round" stroke-linejoin="round" stroke-miterlimit="10" d="M671.523 416.407L677.93 367.055L714.987 380.562L671.523 416.407Z"/><path stroke="#F579A6" stroke-linecap="round" stroke-linejoin="round" stroke-miterlimit="10" d="M686.238 457.103L731.26 424.721L734.204 472.687L686.238 457.103Z"/><path stroke="#F579A6" stroke-linecap="round" stroke-linejoin="round" stroke-miterlimit="10" d="M636.891 404.459L671.523 416.408L631.176 470.088L636.891 404.459Z"/><path stroke="#F579A6" stroke-linecap="round" stroke-linejoin="round" stroke-miterlimit="10" d="M686.242 457.101L671.523 416.407L731.265 424.719L686.242 457.101Z"/><path stroke="#F579A6" stroke-linecap="round" stroke-linejoin="round" stroke-miterlimit="10" d="M708.056 501.776L686.238 457.1L734.204 472.685L708.056 501.776Z"/><path stroke="#F579A6" stroke-linecap="round" stroke-linejoin="round" stroke-miterlimit="10" d="M631.176 470.087L686.242 457.1L654.9 509.396L631.176 470.087Z"/><path stroke="#F579A6" stroke-linecap="round" stroke-linejoin="round" stroke-miterlimit="10" d="M708.057 501.78L690.74 540.569H735.417L708.057 501.78Z"/><path stroke="#F579A6" stroke-linecap="round" stroke-linejoin="round" stroke-miterlimit="10" d="M734.206 472.69L769.532 489.14L767.627 527.41L734.206 472.69Z"/><rect width="13.515" height="13.515" x="321.828" y="474.75" fill="#8C65F7" transform="rotate(45 321.828 474.75)"/><rect width="13.515" height="13.515" x="340.941" y="474.75" fill="#6F3FF5" transform="rotate(45 340.941 474.75)"/><rect width="13.515" height="13.515" x="360.053" y="493.766" fill="#160749" transform="rotate(45 360.053 493.766)"/><rect width="13.515" height="13.515" fill="#160749" transform="matrix(0.707107 0.707106 -0.707107 0.707106 331.334 484.259)"/><rect width="13.515" height="13.515" x="369.559" y="503.251" fill="#8C65F7" transform="rotate(45 369.559 503.251)"/><rect width="13.515" height="13.515" x="369.315" y="522.369" fill="#8C65F7" transform="rotate(45 369.315 522.369)"/><rect width="13.515" height="13.515" fill="#8C65F7" transform="matrix(0.707106 0.707108 -0.707106 0.707108 331.314 503.495)"/><rect width="13.515" height="13.515" fill="#5932C4" transform="matrix(0.707107 0.707106 -0.707107 0.707106 369.315 484.493)"/><rect width="13.515" height="13.515" fill="#5932C4" transform="matrix(0.707106 0.707108 -0.707106 0.707108 312.558 484.252)"/><rect width="13.515" height="13.515" fill="#6F3FF5" transform="matrix(0.707106 0.707107 -0.707106 0.707107 381.739 546.24)"/><rect width="13.515" height="13.515" fill="#F579A6" transform="matrix(0.707106 0.707108 -0.707106 0.707108 255.569 465.249)"/><rect width="13.515" height="13.515" fill="#D44D6E" transform="matrix(0.707106 0.707107 -0.707106 0.707107 274.683 465.249)"/><rect width="13.515" height="13.515" fill="#160749" transform="matrix(0.707107 0.707106 -0.707107 0.707106 293.795 484.265)"/><rect width="13.515" height="13.515" fill="#160749" transform="matrix(0.707108 0.707106 -0.707108 0.707106 265.076 474.756)"/><rect width="13.515" height="13.515" x="322.057" y="493.751" fill="#F579A6" transform="rotate(45 322.057 493.751)"/><rect width="13.515" height="13.515" fill="#F579A6" transform="matrix(0.707108 0.707106 -0.707108 0.707106 321.57 512.752)"/><rect width="13.515" height="13.515" x="350.314" y="484.493" fill="#F579A6" transform="rotate(45 350.314 484.493)"/><rect width="13.515" height="13.515" fill="#F3587D" transform="matrix(0.707107 0.707106 -0.707107 0.707106 274.683 484.265)"/><rect width="13.515" height="13.515" fill="#F3587D" transform="matrix(0.707106 0.707108 -0.707106 0.707108 340.814 493.994)"/><rect width="13.515" height="13.515" x="265.07" y="493.751" fill="#D44D6E" transform="rotate(45 265.07 493.751)"/><rect width="13.515" height="13.515" fill="#5BF1CD" transform="matrix(0.707106 0.707107 -0.707106 0.707107 293.07 446.25)"/><rect width="13.515" height="13.515" fill="#02E2AC" transform="matrix(0.707106 0.707107 -0.707106 0.707107 312.184 446.25)"/><rect width="13.515" height="13.515" x="331.296" y="465.263" fill="#160749" transform="rotate(45 331.296 465.263)"/><rect width="13.515" height="13.515" fill="#160749" transform="matrix(0.707107 0.707106 -0.707107 0.707106 302.577 455.757)"/><rect width="13.515" height="13.515" fill="#5BF1CD" transform="matrix(0.707107 0.707106 -0.707107 0.707106 350.559 503.251)"/><rect width="13.515" height="13.515" x="312.07" y="541.739" fill="#5BF1CD" transform="rotate(45 312.07 541.739)"/><rect width="13.515" height="13.515" x="382.977" y="462.46" fill="#5BF1CD" transform="rotate(45 382.977 462.46)"/><rect width="13.515" height="13.515" x="312.183" y="465.263" fill="#11BC92" transform="rotate(45 312.183 465.263)"/><rect width="13.515" height="13.515" fill="#11BC92" transform="matrix(0.707106 0.707108 -0.707106 0.707108 350.314 465.249)"/><rect width="13.515" height="13.515" fill="#02E2AC" transform="matrix(0.707105 0.707109 -0.707105 0.707109 373.469 452.953)"/><rect width="13.515" height="13.515" x="359.816" y="474.995" fill="#FFDB4C" transform="rotate(45 359.816 474.995)"/><rect width="13.515" height="13.515" fill="#FC0" transform="matrix(0.707106 0.707107 -0.707106 0.707107 340.698 512.87)"/><rect width="13.515" height="13.515" fill="#160749" transform="matrix(0.707106 0.707107 -0.707106 0.707107 359.81 531.884)"/><rect width="13.515" height="13.515" x="331.091" y="522.375" fill="#160749" transform="rotate(45 331.091 522.375)"/><rect width="13.515" height="13.515" x="321.583" y="531.884" fill="#FFDB4C" transform="rotate(45 321.583 531.884)"/><rect width="13.515" height="13.515" fill="#FFDB4C" transform="matrix(0.707108 0.707106 -0.707108 0.707106 302.571 532.082)"/><rect width="13.515" height="13.515" fill="#FFDB4C" transform="matrix(0.707108 0.707106 -0.707108 0.707106 331.091 560.502)"/><rect width="13.515" height="13.515" fill="#E1B815" transform="matrix(0.707106 0.707107 -0.707106 0.707107 340.696 531.884)"/><rect width="13.515" height="13.515" fill="#E1B815" transform="matrix(0.707107 0.707106 -0.707107 0.707106 255.557 484.493)"/><rect width="13.515" height="13.515" x="321.583" y="550.996" fill="#FC0" transform="rotate(45 321.583 550.996)"/><rect width="13.515" height="13.515" fill="#8C65F7" transform="matrix(0.707106 0.707108 -0.707106 0.707108 1097.33 535.5)"/><rect width="13.515" height="13.515" fill="#6F3FF5" transform="matrix(0.707106 0.707108 -0.707106 0.707108 1116.44 535.5)"/><rect width="13.515" height="13.515" fill="#160749" transform="matrix(0.70711 0.707103 -0.70711 0.707103 1135.55 554.516)"/><rect width="13.515" height="13.515" fill="#160749" transform="matrix(0.707103 0.70711 -0.707103 0.70711 1106.83 545.009)"/><rect width="13.515" height="13.515" fill="#8C65F7" transform="matrix(0.707106 0.707108 -0.707106 0.707108 1145.06 564.001)"/><rect width="13.515" height="13.515" fill="#8C65F7" transform="matrix(0.707106 0.707108 -0.707106 0.707108 1144.82 583.119)"/><rect width="13.515" height="13.515" fill="#8C65F7" transform="matrix(0.707108 0.707106 -0.707108 0.707106 1106.81 564.245)"/><rect width="13.515" height="13.515" x="1144.82" y="545.243" fill="#5932C4" transform="rotate(45 1144.82 545.243)"/><rect width="13.515" height="13.515" fill="#5932C4" transform="matrix(0.707103 0.70711 -0.707103 0.70711 1088.06 545.002)"/><rect width="13.515" height="13.515" fill="#F579A6" transform="matrix(0.707108 0.707106 -0.707108 0.707106 1157.24 606.99)"/><rect width="13.515" height="13.515" fill="#F579A6" transform="matrix(0.707108 0.707106 -0.707108 0.707106 1031.07 525.999)"/><rect width="13.515" height="13.515" fill="#D44D6E" transform="matrix(0.707106 0.707108 -0.707106 0.707108 1050.18 525.999)"/><rect width="13.515" height="13.515" fill="#160749" transform="matrix(0.707103 0.70711 -0.707103 0.70711 1069.3 545.015)"/><rect width="13.515" height="13.515" fill="#160749" transform="matrix(0.70711 0.707103 -0.70711 0.707103 1040.58 535.506)"/><rect width="13.515" height="13.515" fill="#F579A6" transform="matrix(0.707108 0.707106 -0.707108 0.707106 1097.56 554.501)"/><rect width="13.515" height="13.515" x="1097.07" y="573.502" fill="#F579A6" transform="rotate(45 1097.07 573.502)"/><rect width="13.515" height="13.515" x="1125.81" y="545.243" fill="#F579A6" transform="rotate(45 1125.81 545.243)"/><rect width="13.515" height="13.515" fill="#F3587D" transform="matrix(0.707106 0.707108 -0.707106 0.707108 1050.18 545.015)"/><rect width="13.515" height="13.515" fill="#F3587D" transform="matrix(0.707108 0.707106 -0.707108 0.707106 1116.31 554.744)"/><rect width="13.515" height="13.515" fill="#D44D6E" transform="matrix(0.707108 0.707106 -0.707108 0.707106 1040.57 554.501)"/><rect width="13.515" height="13.515" fill="#5BF1CD" transform="matrix(0.707103 0.70711 -0.707103 0.70711 1068.57 507)"/><rect width="13.515" height="13.515" fill="#02E2AC" transform="matrix(0.707108 0.707106 -0.707108 0.707106 1087.68 507)"/><rect width="13.515" height="13.515" x="1106.8" y="526.013" fill="#160749" transform="rotate(45 1106.8 526.013)"/><rect width="13.515" height="13.515" fill="#160749" transform="matrix(0.707103 0.70711 -0.707103 0.70711 1078.08 516.507)"/><rect width="13.515" height="13.515" fill="#5BF1CD" transform="matrix(0.707106 0.707108 -0.707106 0.707108 1126.06 564.001)"/><rect width="13.515" height="13.515" fill="#5BF1CD" transform="matrix(0.707106 0.707108 -0.707106 0.707108 1078.31 612)"/><rect width="13.515" height="13.515" x="1158.48" y="523.21" fill="#5BF1CD" transform="rotate(45 1158.48 523.21)"/><rect width="13.515" height="13.515" fill="#11BC92" transform="matrix(0.707109 0.707105 -0.707109 0.707105 1087.68 526.013)"/><rect width="13.515" height="13.515" fill="#11BC92" transform="matrix(0.707106 0.707108 -0.707106 0.707108 1125.81 525.999)"/><rect width="13.515" height="13.515" x="1148.97" y="513.703" fill="#02E2AC" transform="rotate(45 1148.97 513.703)"/><rect width="13.515" height="13.515" fill="#FFDB4C" transform="matrix(0.707108 0.707106 -0.707108 0.707106 1135.32 535.745)"/><rect width="13.515" height="13.515" fill="#FC0" transform="matrix(0.70711 0.707103 -0.70711 0.707103 1116.2 573.62)"/><rect width="13.515" height="13.515" fill="#160749" transform="matrix(0.707109 0.707105 -0.707109 0.707105 1135.31 592.634)"/><rect width="13.515" height="13.515" x="1106.59" y="583.125" fill="#160749" transform="rotate(45 1106.59 583.125)"/><rect width="13.515" height="13.515" fill="#5932C4" transform="matrix(0.707111 0.707102 -0.707111 0.707102 1097.08 592.634)"/><rect width="13.515" height="13.515" fill="#FFDB4C" transform="matrix(0.707105 0.707109 -0.707105 0.707109 1078.07 592.832)"/><rect width="13.515" height="13.515" fill="#02E2AC" transform="matrix(0.707106 0.707108 -0.707106 0.707108 1106.59 621.252)"/><rect width="13.515" height="13.515" fill="#E1B815" transform="matrix(0.707109 0.707105 -0.707109 0.707105 1116.2 592.634)"/><rect width="13.515" height="13.515" x="1031.06" y="545.243" fill="#E1B815" transform="rotate(45 1031.06 545.243)"/><rect width="13.515" height="13.515" fill="#FC0" transform="matrix(0.707108 0.707106 -0.707108 0.707106 1069.31 621)"/><rect width="13.515" height="13.515" x="1243.58" y="513.75" fill="#8C65F7" transform="rotate(45 1243.58 513.75)"/><rect width="13.515" height="13.515" x="1262.69" y="513.75" fill="#6F3FF5" transform="rotate(45 1262.69 513.75)"/><rect width="13.515" height="13.515" fill="#160749" transform="matrix(0.707108 0.707106 -0.707108 0.707106 1281.8 532.766)"/><rect width="13.515" height="13.515" fill="#160749" transform="matrix(0.707105 0.707109 -0.707105 0.707109 1253.08 523.259)"/><rect width="13.515" height="13.515" fill="#8C65F7" transform="matrix(0.707106 0.707108 -0.707106 0.707108 1291.31 542.251)"/><rect width="13.515" height="13.515" fill="#8C65F7" transform="matrix(0.707106 0.707108 -0.707106 0.707108 1291.07 561.369)"/><rect width="13.515" height="13.515" fill="#8C65F7" transform="matrix(0.707108 0.707106 -0.707108 0.707106 1253.06 542.495)"/><rect width="13.515" height="13.515" fill="#5932C4" transform="matrix(0.707106 0.707108 -0.707106 0.707108 1291.07 523.493)"/><rect width="13.515" height="13.515" fill="#5932C4" transform="matrix(0.707105 0.707109 -0.707105 0.707109 1234.31 523.252)"/><rect width="13.515" height="13.515" fill="#F579A6" transform="matrix(0.707109 0.707105 -0.707109 0.707105 1303.49 585.24)"/><rect width="13.515" height="13.515" x="1177.32" y="504.249" fill="#F579A6" transform="rotate(45 1177.32 504.249)"/><rect width="13.515" height="13.515" x="1196.43" y="504.249" fill="#D44D6E" transform="rotate(45 1196.43 504.249)"/><rect width="13.515" height="13.515" fill="#160749" transform="matrix(0.707105 0.707109 -0.707105 0.707109 1215.55 523.265)"/><rect width="13.515" height="13.515" fill="#160749" transform="matrix(0.707111 0.707102 -0.707111 0.707102 1186.83 513.756)"/><rect width="13.515" height="13.515" x="1243.81" y="532.751" fill="#F579A6" transform="rotate(45 1243.81 532.751)"/><rect width="13.515" height="13.515" fill="#F579A6" transform="matrix(0.707106 0.707108 -0.707106 0.707108 1243.32 551.752)"/><rect width="13.515" height="13.515" fill="#F579A6" transform="matrix(0.707106 0.707108 -0.707106 0.707108 1272.06 523.493)"/><rect width="13.515" height="13.515" x="1196.43" y="523.265" fill="#F3587D" transform="rotate(45 1196.43 523.265)"/><rect width="13.515" height="13.515" fill="#F3587D" transform="matrix(0.707109 0.707105 -0.707109 0.707105 1262.56 532.994)"/><rect width="13.515" height="13.515" x="1186.82" y="532.751" fill="#D44D6E" transform="rotate(45 1186.82 532.751)"/><rect width="13.515" height="13.515" fill="#5BF1CD" transform="matrix(0.707104 0.70711 -0.707104 0.70711 1214.82 485.25)"/><rect width="13.515" height="13.515" fill="#02E2AC" transform="matrix(0.707108 0.707105 -0.707108 0.707105 1233.93 485.25)"/><rect width="13.515" height="13.515" x="1253.05" y="504.263" fill="#160749" transform="rotate(45 1253.05 504.263)"/><rect width="13.515" height="13.515" fill="#160749" transform="matrix(0.707104 0.70711 -0.707104 0.70711 1224.33 494.757)"/><rect width="13.515" height="13.515" fill="#5BF1CD" transform="matrix(0.707106 0.707108 -0.707106 0.707108 1272.31 542.251)"/><rect width="13.515" height="13.515" fill="#5BF1CD" transform="matrix(0.707108 0.707106 -0.707108 0.707106 1224.56 590.25)"/><rect width="13.515" height="13.515" x="1304.73" y="501.46" fill="#5BF1CD" transform="rotate(45 1304.73 501.46)"/><rect width="13.515" height="13.515" fill="#11BC92" transform="matrix(0.707109 0.707105 -0.707109 0.707105 1233.93 504.263)"/><rect width="13.515" height="13.515" x="1272.06" y="504.249" fill="#11BC92" transform="rotate(45 1272.06 504.249)"/><rect width="13.515" height="13.515" fill="#6438DF" transform="matrix(0.707106 0.707107 -0.707106 0.707107 1295.22 491.953)"/><rect width="13.515" height="13.515" fill="#FFDB4C" transform="matrix(0.707108 0.707106 -0.707108 0.707106 1281.57 513.995)"/><rect width="13.515" height="13.515" fill="#FC0" transform="matrix(0.707109 0.707105 -0.707109 0.707105 1262.45 551.87)"/><rect width="13.515" height="13.515" fill="#160749" transform="matrix(0.707108 0.707106 -0.707108 0.707106 1281.56 570.884)"/><rect width="13.515" height="13.515" fill="#160749" transform="matrix(0.707106 0.707108 -0.707106 0.707108 1252.84 561.375)"/><rect width="13.515" height="13.515" fill="#5932C4" transform="matrix(0.70711 0.707103 -0.70711 0.707103 1243.33 570.884)"/><rect width="13.515" height="13.515" fill="#FFDB4C" transform="matrix(0.707103 0.70711 -0.707103 0.70711 1224.32 571.082)"/><rect width="13.515" height="13.515" fill="#02E2AC" transform="matrix(0.707106 0.707108 -0.707106 0.707108 1252.84 599.502)"/><rect width="13.515" height="13.515" fill="#E1B815" transform="matrix(0.707108 0.707106 -0.707108 0.707106 1262.45 570.884)"/><rect width="13.515" height="13.515" fill="#E1B815" transform="matrix(0.707106 0.707108 -0.707106 0.707108 1177.31 523.493)"/><rect width="13.515" height="13.515" fill="#FC0" transform="matrix(0.707108 0.707106 -0.707108 0.707106 1215.56 599.25)"/><rect width="13.515" height="13.515" x="32.057" y="439.5" fill="#8C65F7" transform="rotate(45 32.0568 439.5)"/><path fill="#8C65F7" d="M1417.68 439.5L1427.24 449.057L1417.68 458.614L1408.13 449.057L1417.68 439.5Z"/><rect width="13.515" height="13.515" x="757.578" y="69.001" fill="#8C65F7" transform="rotate(45 757.578 69.0005)"/><rect width="13.515" height="13.515" fill="#6F3FF5" transform="matrix(0.707106 0.707108 -0.707106 0.707108 776.691 69.0005)"/><rect width="13.515" height="13.515" x="795.803" y="88.016" fill="#160749" transform="rotate(45 795.803 88.0159)"/><rect width="13.515" height="13.515" x="767.084" y="78.509" fill="#160749" transform="rotate(45 767.084 78.5089)"/><rect width="13.515" height="13.515" fill="#8C65F7" transform="matrix(0.707106 0.707108 -0.707106 0.707108 805.309 97.5009)"/><rect width="13.515" height="13.515" fill="#8C65F7" transform="matrix(0.707105 0.707109 -0.707105 0.707109 805.065 116.619)"/><rect width="13.515" height="13.515" fill="#8C65F7" transform="matrix(0.707106 0.707107 -0.707106 0.707107 767.064 97.745)"/><rect width="13.515" height="13.515" fill="#5932C4" transform="matrix(0.707105 0.707109 -0.707105 0.707109 805.065 78.7427)"/><rect width="13.515" height="13.515" fill="#5932C4" transform="matrix(0.707105 0.707109 -0.707105 0.707109 748.308 78.5016)"/><rect width="13.515" height="13.515" fill="#6F3FF5" transform="matrix(0.707106 0.707108 -0.707106 0.707108 817.489 140.491)"/><rect width="13.515" height="13.515" x="691.319" y="59.499" fill="#F579A6" transform="rotate(45 691.319 59.4993)"/><rect width="13.515" height="13.515" fill="#D44D6E" transform="matrix(0.707106 0.707108 -0.707106 0.707108 710.433 59.4993)"/><rect width="13.515" height="13.515" fill="#160749" transform="matrix(0.707107 0.707106 -0.707107 0.707106 729.545 78.5148)"/><rect width="13.515" height="13.515" fill="#160749" transform="matrix(0.707106 0.707107 -0.707106 0.707107 700.826 69.0063)"/><rect width="13.515" height="13.515" fill="#F579A6" transform="matrix(0.707106 0.707107 -0.707106 0.707107 757.807 88.0013)"/><rect width="13.515" height="13.515" x="757.32" y="107.002" fill="#F3587D" transform="rotate(45 757.32 107.002)"/><rect width="13.515" height="13.515" fill="#F579A6" transform="matrix(0.707106 0.707107 -0.707106 0.707107 786.065 78.7427)"/><rect width="13.515" height="13.515" fill="#F3587D" transform="matrix(0.707107 0.707106 -0.707107 0.707106 710.433 78.5148)"/><rect width="13.515" height="13.515" fill="#F3587D" transform="matrix(0.707106 0.707107 -0.707106 0.707107 776.564 88.2439)"/><rect width="13.515" height="13.515" fill="#D44D6E" transform="matrix(0.707107 0.707106 -0.707107 0.707106 700.82 88.0013)"/><rect width="13.515" height="13.515" fill="#5BF1CD" transform="matrix(0.707107 0.707106 -0.707107 0.707106 728.82 40.5)"/><rect width="13.515" height="13.515" fill="#02E2AC" transform="matrix(0.707107 0.707106 -0.707107 0.707106 747.934 40.5)"/><rect width="13.515" height="13.515" x="767.046" y="59.513" fill="#160749" transform="rotate(45 767.046 59.5125)"/><rect width="13.515" height="13.515" fill="#160749" transform="matrix(0.707105 0.707109 -0.707105 0.707109 738.327 50.007)"/><rect width="13.515" height="13.515" fill="#5BF1CD" transform="matrix(0.707108 0.707105 -0.707108 0.707105 786.309 97.5009)"/><rect width="13.515" height="13.515" x="737.807" y="145.5" fill="#5BF1CD" transform="rotate(45 737.807 145.5)"/><rect width="13.515" height="13.515" x="818.727" y="56.71" fill="#5BF1CD" transform="rotate(45 818.727 56.7097)"/><rect width="13.515" height="13.515" x="747.933" y="59.513" fill="#11BC92" transform="rotate(45 747.933 59.5125)"/><rect width="13.515" height="13.515" fill="#11BC92" transform="matrix(0.707106 0.707108 -0.707106 0.707108 786.065 59.4993)"/><rect width="13.515" height="13.515" fill="#02E2AC" transform="matrix(0.707106 0.707108 -0.707106 0.707108 809.22 47.2027)"/><rect width="13.515" height="13.515" fill="#FFDB4C" transform="matrix(0.707107 0.707106 -0.707107 0.707106 795.566 69.2446)"/><rect width="13.515" height="13.515" fill="#FFDB4C" transform="matrix(0.707107 0.707106 -0.707107 0.707106 776.448 107.12)"/><rect width="13.515" height="13.515" fill="#160749" transform="matrix(0.707106 0.707107 -0.707106 0.707107 795.56 126.134)"/><rect width="13.515" height="13.515" fill="#160749" transform="matrix(0.707108 0.707105 -0.707108 0.707105 766.841 116.625)"/><rect width="13.515" height="13.515" fill="#FC0" transform="matrix(0.707106 0.707107 -0.707106 0.707107 757.333 126.134)"/><rect width="13.515" height="13.515" x="738.321" y="126.332" fill="#FFDB4C" transform="rotate(45 738.321 126.332)"/><rect width="13.515" height="13.515" x="737.807" y="165" fill="#F579A6" transform="rotate(45 737.807 165)"/><rect width="13.515" height="13.515" fill="#11BC92" transform="matrix(0.707106 0.707107 -0.707106 0.707107 776.446 126.134)"/><rect width="13.515" height="13.515" fill="#E1B815" transform="matrix(0.707106 0.707107 -0.707106 0.707107 691.307 78.7427)"/><rect width="13.515" height="13.515" fill="#FC0" transform="matrix(0.707106 0.707108 -0.707106 0.707108 757.333 145.246)"/><rect width="13.515" height="13.515" fill="#8C65F7" transform="matrix(0.707106 0.707108 -0.707106 0.707108 489.828 203.25)"/><rect width="13.515" height="13.515" x="508.941" y="203.25" fill="#6F3FF5" transform="rotate(45 508.941 203.25)"/><rect width="13.515" height="13.515" x="528.053" y="222.266" fill="#160749" transform="rotate(45 528.053 222.266)"/><rect width="13.515" height="13.515" fill="#160749" transform="matrix(0.707106 0.707108 -0.707106 0.707108 499.334 212.759)"/><rect width="13.515" height="13.515" fill="#8C65F7" transform="matrix(0.707105 0.707108 -0.707105 0.707108 537.559 231.751)"/><rect width="13.515" height="13.515" fill="#8C65F7" transform="matrix(0.707106 0.707108 -0.707106 0.707108 537.315 250.869)"/><rect width="13.515" height="13.515" fill="#8C65F7" transform="matrix(0.707105 0.707108 -0.707105 0.707108 499.314 231.995)"/><rect width="13.515" height="13.515" fill="#5932C4" transform="matrix(0.707106 0.707108 -0.707106 0.707108 537.315 212.993)"/><rect width="13.515" height="13.515" fill="#5932C4" transform="matrix(0.707106 0.707108 -0.707106 0.707108 480.558 212.752)"/><rect width="13.515" height="13.515" fill="#6F3FF5" transform="matrix(0.707106 0.707108 -0.707106 0.707108 556.307 270)"/><rect width="13.515" height="13.515" x="423.569" y="193.749" fill="#F579A6" transform="rotate(45 423.569 193.749)"/><rect width="13.515" height="13.515" fill="#D44D6E" transform="matrix(0.707108 0.707106 -0.707108 0.707106 442.683 193.749)"/><rect width="13.515" height="13.515" fill="#160749" transform="matrix(0.707106 0.707108 -0.707106 0.707108 461.795 212.765)"/><rect width="13.515" height="13.515" fill="#160749" transform="matrix(0.707106 0.707108 -0.707106 0.707108 433.076 203.256)"/><rect width="13.515" height="13.515" x="490.057" y="222.251" fill="#F579A6" transform="rotate(45 490.057 222.251)"/><rect width="13.515" height="13.515" x="489.57" y="241.252" fill="#F579A6" transform="rotate(45 489.57 241.252)"/><rect width="13.515" height="13.515" x="518.314" y="212.993" fill="#F579A6" transform="rotate(45 518.314 212.993)"/><rect width="13.515" height="13.515" fill="#F3587D" transform="matrix(0.707108 0.707106 -0.707108 0.707106 442.683 212.765)"/><rect width="13.515" height="13.515" x="508.814" y="222.494" fill="#F3587D" transform="rotate(45 508.814 222.494)"/><rect width="13.515" height="13.515" x="433.07" y="222.251" fill="#D44D6E" transform="rotate(45 433.07 222.251)"/><rect width="13.515" height="13.515" fill="#5BF1CD" transform="matrix(0.707105 0.707108 -0.707105 0.707108 461.07 174.75)"/><rect width="13.515" height="13.515" fill="#02E2AC" transform="matrix(0.707105 0.707108 -0.707105 0.707108 480.184 174.75)"/><rect width="13.515" height="13.515" fill="#160749" transform="matrix(0.707107 0.707106 -0.707107 0.707106 499.296 193.763)"/><rect width="13.515" height="13.515" fill="#160749" transform="matrix(0.707106 0.707108 -0.707106 0.707108 470.577 184.257)"/><rect width="13.515" height="13.515" fill="#5BF1CD" transform="matrix(0.707105 0.707108 -0.707105 0.707108 518.559 231.751)"/><rect width="13.515" height="13.515" fill="#5BF1CD" transform="matrix(0.707106 0.707108 -0.707106 0.707108 480.07 270.239)"/><rect width="13.515" height="13.515" fill="#5BF1CD" transform="matrix(0.707106 0.707107 -0.707106 0.707107 550.977 190.96)"/><rect width="13.515" height="13.515" x="480.183" y="193.763" fill="#11BC92" transform="rotate(45 480.183 193.763)"/><rect width="13.515" height="13.515" x="518.314" y="193.749" fill="#11BC92" transform="rotate(45 518.314 193.749)"/><rect width="13.515" height="13.515" fill="#02E2AC" transform="matrix(0.707106 0.707108 -0.707106 0.707108 541.469 181.453)"/><rect width="13.515" height="13.515" x="527.816" y="203.495" fill="#FFDB4C" transform="rotate(45 527.816 203.495)"/><rect width="13.515" height="13.515" fill="#FC0" transform="matrix(0.707106 0.707107 -0.707106 0.707107 508.698 241.37)"/><rect width="13.515" height="13.515" fill="#160749" transform="matrix(0.707106 0.707107 -0.707106 0.707107 527.81 260.384)"/><rect width="13.515" height="13.515" fill="#160749" transform="matrix(0.707106 0.707107 -0.707106 0.707107 499.091 250.875)"/><rect width="13.515" height="13.515" fill="#FFDB4C" transform="matrix(0.707105 0.707108 -0.707105 0.707108 489.583 260.384)"/><rect width="13.515" height="13.515" fill="#FFDB4C" transform="matrix(0.707106 0.707107 -0.707106 0.707107 374.057 339)"/><rect width="13.515" height="13.515" fill="#FFDB4C" transform="matrix(0.707106 0.707107 -0.707106 0.707107 499.091 289.002)"/><rect width="13.515" height="13.515" fill="#8C65F7" transform="matrix(0.707106 0.707107 -0.707106 0.707107 508.696 260.384)"/><rect width="13.515" height="13.515" fill="#E1B815" transform="matrix(0.707108 0.707106 -0.707108 0.707106 423.557 212.993)"/><rect width="13.515" height="13.515" fill="#B25CCE" transform="matrix(0.707106 0.707108 -0.707106 0.707108 461.057 270)"/><rect width="13.515" height="13.515" fill="#8C65F7" transform="matrix(0.707108 0.707106 -0.707108 0.707106 923.328 615.75)"/><rect width="13.515" height="13.515" x="942.441" y="615.75" fill="#6F3FF5" transform="rotate(45 942.441 615.75)"/><rect width="13.515" height="13.515" fill="#160749" transform="matrix(0.707108 0.707106 -0.707108 0.707106 961.553 634.766)"/><rect width="13.515" height="13.515" x="932.834" y="625.259" fill="#160749" transform="rotate(45 932.834 625.259)"/><rect width="13.515" height="13.515" x="971.059" y="644.251" fill="#8C65F7" transform="rotate(45 971.059 644.251)"/><rect width="13.515" height="13.515" fill="#F3587D" transform="matrix(0.707108 0.707106 -0.707108 0.707106 970.815 663.369)"/><rect width="13.515" height="13.515" fill="#8C65F7" transform="matrix(0.707108 0.707106 -0.707108 0.707106 932.814 644.495)"/><rect width="13.515" height="13.515" fill="#5932C4" transform="matrix(0.707106 0.707108 -0.707106 0.707108 970.815 625.493)"/><rect width="13.515" height="13.515" x="914.058" y="625.252" fill="#5932C4" transform="rotate(45 914.058 625.252)"/><rect width="13.515" height="13.515" x="975.557" y="687" fill="#8C65F7" transform="rotate(45 975.557 687)"/><rect width="13.515" height="13.515" x="857.069" y="606.249" fill="#F579A6" transform="rotate(45 857.069 606.249)"/><rect width="13.515" height="13.515" fill="#D44D6E" transform="matrix(0.707106 0.707108 -0.707106 0.707108 876.183 606.249)"/><rect width="13.515" height="13.515" fill="#160749" transform="matrix(0.707108 0.707106 -0.707108 0.707106 895.295 625.265)"/><rect width="13.515" height="13.515" fill="#160749" transform="matrix(0.707109 0.707105 -0.707109 0.707105 866.576 615.756)"/><rect width="13.515" height="13.515" x="923.557" y="634.751" fill="#F579A6" transform="rotate(45 923.557 634.751)"/><rect width="13.515" height="13.515" x="923.07" y="653.752" fill="#F579A6" transform="rotate(45 923.07 653.752)"/><rect width="13.515" height="13.515" x="951.814" y="625.493" fill="#F579A6" transform="rotate(45 951.814 625.493)"/><rect width="13.515" height="13.515" x="876.183" y="625.265" fill="#F3587D" transform="rotate(45 876.183 625.265)"/><rect width="13.515" height="13.515" fill="#F3587D" transform="matrix(0.707105 0.707109 -0.707105 0.707109 942.314 634.994)"/><rect width="13.515" height="13.515" fill="#D44D6E" transform="matrix(0.707106 0.707108 -0.707106 0.707108 866.57 634.751)"/><rect width="13.515" height="13.515" fill="#5BF1CD" transform="matrix(0.707108 0.707106 -0.707108 0.707106 894.57 587.25)"/><rect width="13.515" height="13.515" fill="#02E2AC" transform="matrix(0.70711 0.707103 -0.70711 0.707103 913.684 587.25)"/><rect width="13.515" height="13.515" fill="#160749" transform="matrix(0.707109 0.707105 -0.707109 0.707105 932.796 606.263)"/><rect width="13.515" height="13.515" fill="#160749" transform="matrix(0.707106 0.707108 -0.707106 0.707108 904.077 596.757)"/><rect width="13.515" height="13.515" x="952.059" y="644.251" fill="#5BF1CD" transform="rotate(45 952.059 644.251)"/><rect width="13.515" height="13.515" fill="#5BF1CD" transform="matrix(0.707106 0.707108 -0.707106 0.707108 904.307 654)"/><rect width="13.515" height="13.515" x="984.477" y="603.46" fill="#5BF1CD" transform="rotate(45 984.477 603.46)"/><rect width="13.515" height="13.515" fill="#11BC92" transform="matrix(0.707112 0.707101 -0.707112 0.707101 913.683 606.263)"/><rect width="13.515" height="13.515" x="951.814" y="606.249" fill="#11BC92" transform="rotate(45 951.814 606.249)"/><rect width="13.515" height="13.515" fill="#02E2AC" transform="matrix(0.707106 0.707108 -0.707106 0.707108 974.969 593.953)"/><rect width="13.515" height="13.515" fill="#FFDB4C" transform="matrix(0.707109 0.707105 -0.707109 0.707105 961.316 615.995)"/><rect width="13.515" height="13.515" fill="#FC0" transform="matrix(0.70711 0.707103 -0.70711 0.707103 942.198 653.87)"/><rect width="13.515" height="13.515" fill="#160749" transform="matrix(0.707106 0.707108 -0.707106 0.707108 961.31 672.884)"/><rect width="13.515" height="13.515" x="932.591" y="663.375" fill="#160749" transform="rotate(45 932.591 663.375)"/><rect width="13.515" height="13.515" fill="#E1B815" transform="matrix(0.707108 0.707106 -0.707108 0.707106 923.083 672.884)"/><rect width="13.515" height="13.515" x="904.071" y="673.082" fill="#FFDB4C" transform="rotate(45 904.071 673.082)"/><rect width="13.515" height="13.515" x="932.591" y="701.502" fill="#6F3FF5" transform="rotate(45 932.591 701.502)"/><rect width="13.515" height="13.515" x="942.197" y="672.884" fill="#11BC92" transform="rotate(45 942.197 672.884)"/><rect width="13.515" height="13.515" x="857.057" y="625.493" fill="#E1B815" transform="rotate(45 857.057 625.493)"/><rect width="13.515" height="13.515" fill="#F579A6" transform="matrix(0.707108 0.707106 -0.707108 0.707106 923.083 691.996)"/><rect width="13.515" height="13.515" fill="#8C65F7" transform="matrix(0.707106 0.707108 -0.707106 0.707108 710.328 771.75)"/><rect width="13.515" height="13.515" fill="#6F3FF5" transform="matrix(0.707106 0.707108 -0.707106 0.707108 729.441 771.75)"/><rect width="13.515" height="13.515" fill="#160749" transform="matrix(0.70711 0.707103 -0.70711 0.707103 748.553 790.766)"/><rect width="13.515" height="13.515" fill="#160749" transform="matrix(0.707106 0.707108 -0.707106 0.707108 719.834 781.259)"/><rect width="13.515" height="13.515" x="758.059" y="800.251" fill="#8C65F7" transform="rotate(45 758.059 800.251)"/><rect width="13.515" height="13.515" fill="#8C65F7" transform="matrix(0.707106 0.707108 -0.707106 0.707108 757.815 819.369)"/><rect width="13.515" height="13.515" x="719.814" y="800.495" fill="#FC0" transform="rotate(45 719.814 800.495)"/><rect width="13.515" height="13.515" fill="#5932C4" transform="matrix(0.707105 0.707109 -0.707105 0.707109 757.815 781.493)"/><rect width="13.515" height="13.515" fill="#5932C4" transform="matrix(0.707108 0.707106 -0.707108 0.707106 701.058 781.252)"/><rect width="13.515" height="13.515" fill="#02E2AC" transform="matrix(0.707108 0.707106 -0.707108 0.707106 776.807 838.5)"/><rect width="13.515" height="13.515" fill="#F579A6" transform="matrix(0.707109 0.707105 -0.707109 0.707105 644.069 762.249)"/><rect width="13.515" height="13.515" fill="#D44D6E" transform="matrix(0.707109 0.707105 -0.707109 0.707105 663.183 762.249)"/><rect width="13.515" height="13.515" fill="#160749" transform="matrix(0.707106 0.707108 -0.707106 0.707108 682.295 781.265)"/><rect width="13.515" height="13.515" x="653.576" y="771.756" fill="#160749" transform="rotate(45 653.576 771.756)"/><rect width="13.515" height="13.515" fill="#F579A6" transform="matrix(0.707106 0.707108 -0.707106 0.707108 710.557 790.751)"/><rect width="13.515" height="13.515" fill="#5932C4" transform="matrix(0.707106 0.707108 -0.707106 0.707108 710.07 809.752)"/><rect width="13.515" height="13.515" fill="#F579A6" transform="matrix(0.707106 0.707108 -0.707106 0.707108 738.814 781.493)"/><rect width="13.515" height="13.515" fill="#F3587D" transform="matrix(0.707106 0.707108 -0.707106 0.707108 663.183 781.265)"/><rect width="13.515" height="13.515" fill="#F3587D" transform="matrix(0.707106 0.707108 -0.707106 0.707108 729.314 790.994)"/><rect width="13.515" height="13.515" fill="#D44D6E" transform="matrix(0.707106 0.707108 -0.707106 0.707108 653.57 790.751)"/><rect width="13.515" height="13.515" x="681.57" y="743.25" fill="#5BF1CD" transform="rotate(45 681.57 743.25)"/><rect width="13.515" height="13.515" x="700.684" y="743.25" fill="#02E2AC" transform="rotate(45 700.684 743.25)"/><rect width="13.515" height="13.515" fill="#160749" transform="matrix(0.707108 0.707106 -0.707108 0.707106 719.796 762.263)"/><rect width="13.515" height="13.515" x="691.077" y="752.757" fill="#160749" transform="rotate(45 691.077 752.757)"/><rect width="13.515" height="13.515" fill="#5BF1CD" transform="matrix(0.707106 0.707108 -0.707106 0.707108 739.059 800.251)"/><rect width="13.515" height="13.515" fill="#F3587D" transform="matrix(0.707105 0.707109 -0.707105 0.707109 691.307 848.25)"/><rect width="13.515" height="13.515" fill="#5BF1CD" transform="matrix(0.707109 0.707105 -0.707109 0.707105 771.477 759.46)"/><rect width="13.515" height="13.515" x="700.683" y="762.263" fill="#11BC92" transform="rotate(45 700.683 762.263)"/><rect width="13.515" height="13.515" fill="#11BC92" transform="matrix(0.707109 0.707105 -0.707109 0.707105 738.814 762.249)"/><rect width="13.515" height="13.515" fill="#02E2AC" transform="matrix(0.707106 0.707108 -0.707106 0.707108 761.969 749.953)"/><rect width="13.515" height="13.515" fill="#FFDB4C" transform="matrix(0.707106 0.707108 -0.707106 0.707108 748.316 771.995)"/><rect width="13.515" height="13.515" fill="#8C65F7" transform="matrix(0.707105 0.707109 -0.707105 0.707109 729.198 809.87)"/><rect width="13.515" height="13.515" fill="#160749" transform="matrix(0.707106 0.707108 -0.707106 0.707108 748.31 828.884)"/><rect width="13.515" height="13.515" fill="#160749" transform="matrix(0.707108 0.707106 -0.707108 0.707106 719.591 819.375)"/><rect width="13.515" height="13.515" fill="#E1B815" transform="matrix(0.707106 0.707108 -0.707106 0.707108 710.083 828.884)"/><rect width="13.515" height="13.515" fill="#FFDB4C" transform="matrix(0.707105 0.707109 -0.707105 0.707109 691.071 829.082)"/><rect width="13.515" height="13.515" fill="#FC0" transform="matrix(0.707106 0.707108 -0.707106 0.707108 729.196 828.884)"/><rect width="13.515" height="13.515" fill="#E1B815" transform="matrix(0.707106 0.707108 -0.707106 0.707108 644.057 781.493)"/><rect width="13.515" height="13.515" fill="#11BC92" transform="matrix(0.707105 0.707109 -0.707105 0.707109 710.083 847.996)"/><rect width="18.04" height="18.04" x="346.541" y="325.726" fill="#FFDB4C" transform="rotate(45 346.541 325.726)"/><rect width="18.04" height="18.04" x="359.269" y="364.026" fill="#160749" transform="rotate(45 359.269 364.026)"/><rect width="18.04" height="18.04" x="346.541" y="376.752" fill="#8C65F7" transform="rotate(45 346.541 376.752)"/><rect width="18.04" height="18.04" x="359.269" y="415.049" fill="#8C65F7" transform="rotate(45 359.269 415.049)"/><rect width="18.04" height="18.04" x="346.541" y="351.241" fill="#F579A6" transform="rotate(45 346.541 351.241)"/><rect width="18.04" height="18.04" x="346.541" y="402.265" fill="#F579A6" transform="rotate(45 346.541 402.265)"/><rect width="18.04" height="18.04" x="435.804" y="313" fill="#02E2AC" transform="rotate(45 435.804 313)"/><rect width="18.04" height="18.04" x="423.077" y="325.726" fill="#5932C4" transform="rotate(45 423.077 325.726)"/><rect width="18.04" height="18.04" x="435.804" y="364.026" fill="#5932C4" transform="rotate(45 435.804 364.026)"/><rect width="18.04" height="18.04" x="423.077" y="427.778" fill="#5BF1CD" transform="rotate(45 423.077 427.778)"/><rect width="18.04" height="18.04" x="435.804" y="338.511" fill="#F579A6" transform="rotate(45 435.804 338.511)"/><rect width="18.04" height="18.04" x="423.077" y="351.241" fill="#160749" transform="rotate(45 423.077 351.241)"/><rect width="18.04" height="18.04" x="333.756" y="338.511" fill="#02E2AC" transform="rotate(45 333.756 338.511)"/><rect width="18.04" height="18.04" x="410.293" y="313" fill="#160749" transform="rotate(45 410.293 313)"/><rect width="18.04" height="18.04" x="397.564" y="325.726" fill="#02E2AC" transform="rotate(45 397.564 325.726)"/><rect width="18.04" height="18.04" x="410.293" y="364.026" fill="#E1B815" transform="rotate(45 410.293 364.026)"/><rect width="18.04" height="18.04" x="397.564" y="376.752" fill="#FFDB4C" transform="rotate(45 397.564 376.752)"/><rect width="18.04" height="18.04" x="410.293" y="415.049" fill="#8C65F7" transform="rotate(45 410.293 415.049)"/><rect width="18.04" height="18.04" x="397.564" y="427.778" fill="#160749" transform="rotate(45 397.564 427.778)"/><rect width="18.04" height="18.04" x="410.293" y="338.511" fill="#5BF1CD" transform="rotate(45 410.293 338.511)"/><rect width="18.04" height="18.04" x="372.053" y="376.752" fill="#6F3FF5" transform="rotate(45 372.053 376.752)"/><rect width="18.04" height="18.04" x="372.053" y="351.241" fill="#11BC92" transform="rotate(45 372.053 351.241)"/><rect width="18.04" height="18.04" x="384.78" y="389.537" fill="#F579A6" transform="rotate(45 384.78 389.537)"/><rect width="18.04" height="18.04" x="461.317" y="313" fill="#5BF1CD" transform="rotate(45 461.317 313)"/><rect width="18.04" height="18.04" x="448.589" y="325.726" fill="#FC0" transform="rotate(45 448.589 325.726)"/><rect width="18.04" height="18.04" x="448.589" y="376.752" fill="#5BF1CD" transform="rotate(45 448.589 376.752)"/><rect width="18.04" height="18.04" x="448.589" y="427.778" fill="#F579A6" transform="rotate(45 448.589 427.778)"/><rect width="18.04" height="18.04" x="461.317" y="338.511" fill="#8C65F7" transform="rotate(45 461.317 338.511)"/><rect width="18.04" height="18.04" x="448.589" y="351.241" fill="#11BC92" transform="rotate(45 448.589 351.241)"/><rect width="18.04" height="18.04" x="461.317" y="389.537" fill="#F579A6" transform="rotate(45 461.317 389.537)"/><rect width="18.04" height="18.04" x="448.589" y="402.265" fill="#02E2AC" transform="rotate(45 448.589 402.265)"/><rect width="13.515" height="13.515" x="185.328" y="468.75" fill="#8C65F7" transform="rotate(45 185.328 468.75)"/><rect width="13.515" height="13.515" x="204.441" y="468.75" fill="#6F3FF5" transform="rotate(45 204.441 468.75)"/><rect width="13.515" height="13.515" fill="#160749" transform="matrix(0.707106 0.707107 -0.707106 0.707107 223.553 487.766)"/><rect width="13.515" height="13.515" x="194.834" y="478.259" fill="#160749" transform="rotate(45 194.834 478.259)"/><rect width="13.515" height="13.515" x="233.059" y="497.251" fill="#8C65F7" transform="rotate(45 233.059 497.251)"/><rect width="13.515" height="13.515" x="232.815" y="516.369" fill="#8C65F7" transform="rotate(45 232.815 516.369)"/><rect width="13.515" height="13.515" x="194.814" y="497.495" fill="#8C65F7" transform="rotate(45 194.814 497.495)"/><rect width="13.515" height="13.515" x="232.815" y="478.493" fill="#5932C4" transform="rotate(45 232.815 478.493)"/><rect width="13.515" height="13.515" fill="#5932C4" transform="matrix(0.707107 0.707106 -0.707107 0.707106 176.058 478.252)"/><rect width="13.515" height="13.515" fill="#5BF1CD" transform="matrix(0.707105 0.707109 -0.707105 0.707109 251.807 535.5)"/><rect width="13.515" height="13.515" fill="#F579A6" transform="matrix(0.707105 0.707108 -0.707105 0.707108 119.069 459.249)"/><rect width="13.515" height="13.515" fill="#D44D6E" transform="matrix(0.707105 0.707108 -0.707105 0.707108 138.183 459.249)"/><rect width="13.515" height="13.515" x="157.295" y="478.265" fill="#160749" transform="rotate(45 157.295 478.265)"/><rect width="13.515" height="13.515" fill="#160749" transform="matrix(0.707107 0.707106 -0.707107 0.707106 128.576 468.756)"/><rect width="13.515" height="13.515" fill="#F579A6" transform="matrix(0.707106 0.707107 -0.707106 0.707107 185.557 487.751)"/><rect width="13.515" height="13.515" fill="#F579A6" transform="matrix(0.707105 0.707108 -0.707105 0.707108 185.07 506.752)"/><rect width="13.515" height="13.515" x="213.814" y="478.493" fill="#F579A6" transform="rotate(45 213.814 478.493)"/><rect width="13.515" height="13.515" x="138.183" y="478.265" fill="#F3587D" transform="rotate(45 138.183 478.265)"/><rect width="13.515" height="13.515" x="204.314" y="487.994" fill="#F3587D" transform="rotate(45 204.314 487.994)"/><rect width="13.515" height="13.515" fill="#D44D6E" transform="matrix(0.707106 0.707107 -0.707106 0.707107 128.57 487.751)"/><rect width="13.515" height="13.515" fill="#5BF1CD" transform="matrix(0.707106 0.707107 -0.707106 0.707107 156.57 440.25)"/><rect width="13.515" height="13.515" x="175.684" y="440.25" fill="#02E2AC" transform="rotate(45 175.684 440.25)"/><rect width="13.515" height="13.515" x="194.796" y="459.263" fill="#160749" transform="rotate(45 194.796 459.263)"/><rect width="13.515" height="13.515" fill="#160749" transform="matrix(0.707108 0.707106 -0.707108 0.707106 166.077 449.757)"/><rect width="13.515" height="13.515" fill="#5BF1CD" transform="matrix(0.707107 0.707106 -0.707107 0.707106 214.059 497.251)"/><rect width="13.515" height="13.515" fill="#5BF1CD" transform="matrix(0.707106 0.707107 -0.707106 0.707107 175.57 535.739)"/><rect width="13.515" height="13.515" x="246.477" y="456.46" fill="#5BF1CD" transform="rotate(45 246.477 456.46)"/><rect width="13.515" height="13.515" fill="#11BC92" transform="matrix(0.707106 0.707107 -0.707106 0.707107 175.683 459.263)"/><rect width="13.515" height="13.515" fill="#11BC92" transform="matrix(0.707105 0.707108 -0.707105 0.707108 213.814 459.249)"/><rect width="13.515" height="13.515" fill="#02E2AC" transform="matrix(0.707106 0.707107 -0.707106 0.707107 236.969 446.953)"/><rect width="13.515" height="13.515" x="223.316" y="468.995" fill="#FFDB4C" transform="rotate(45 223.316 468.995)"/><rect width="13.515" height="13.515" fill="#160749" transform="matrix(0.707104 0.707109 -0.707104 0.707109 204.198 506.87)"/><rect width="13.515" height="13.515" x="223.31" y="525.884" fill="#160749" transform="rotate(45 223.31 525.884)"/><rect width="13.515" height="13.515" x="194.591" y="516.375" fill="#160749" transform="rotate(45 194.591 516.375)"/><rect width="13.515" height="13.515" x="185.083" y="525.884" fill="#5932C4" transform="rotate(45 185.083 525.884)"/><rect width="13.515" height="13.515" fill="#FFDB4C" transform="matrix(0.707107 0.707106 -0.707107 0.707106 166.071 526.082)"/><rect width="13.515" height="13.515" x="194.591" y="554.502" fill="#FFDB4C" transform="rotate(45 194.591 554.502)"/><rect width="13.515" height="13.515" x="204.196" y="525.884" fill="#E1B815" transform="rotate(45 204.196 525.884)"/><rect width="13.515" height="13.515" fill="#E1B815" transform="matrix(0.707107 0.707106 -0.707107 0.707106 119.057 478.493)"/><rect width="13.515" height="13.515" x="175.307" y="555" fill="#F3587D" transform="rotate(45 175.307 555)"/><rect width="13.515" height="13.515" fill="#8C65F7" transform="matrix(0.707106 0.707107 -0.707106 0.707107 294.078 351.75)"/><rect width="13.515" height="13.515" fill="#6F3FF5" transform="matrix(0.707106 0.707107 -0.707106 0.707107 313.191 351.75)"/><rect width="13.515" height="13.515" fill="#160749" transform="matrix(0.707106 0.707107 -0.707106 0.707107 332.303 370.766)"/><rect width="13.515" height="13.515" fill="#160749" transform="matrix(0.707107 0.707106 -0.707107 0.707106 303.584 361.259)"/><rect width="13.515" height="13.515" fill="#8C65F7" transform="matrix(0.707107 0.707106 -0.707107 0.707106 341.809 380.251)"/><rect width="13.515" height="13.515" fill="#8C65F7" transform="matrix(0.707106 0.707107 -0.707106 0.707107 341.565 399.369)"/><rect width="13.515" height="13.515" fill="#8C65F7" transform="matrix(0.707106 0.707107 -0.707106 0.707107 303.564 380.495)"/><rect width="13.515" height="13.515" fill="#5932C4" transform="matrix(0.707106 0.707107 -0.707106 0.707107 341.565 361.493)"/><rect width="13.515" height="13.515" fill="#5932C4" transform="matrix(0.707107 0.707106 -0.707107 0.707106 284.808 361.252)"/><rect width="13.515" height="13.515" x="353.989" y="423.24" fill="#6F3FF5" transform="rotate(45 353.989 423.24)"/><rect width="13.515" height="13.515" fill="#F579A6" transform="matrix(0.707106 0.707108 -0.707106 0.707108 227.819 342.249)"/><rect width="13.515" height="13.515" fill="#D44D6E" transform="matrix(0.707106 0.707108 -0.707106 0.707108 246.933 342.249)"/><rect width="13.515" height="13.515" x="266.045" y="361.265" fill="#160749" transform="rotate(45 266.045 361.265)"/><rect width="13.515" height="13.515" x="237.326" y="351.756" fill="#160749" transform="rotate(45 237.326 351.756)"/><rect width="13.515" height="13.515" fill="#F579A6" transform="matrix(0.707107 0.707106 -0.707107 0.707106 294.307 370.751)"/><rect width="13.515" height="13.515" fill="#F579A6" transform="matrix(0.707107 0.707106 -0.707107 0.707106 293.82 389.752)"/><rect width="13.515" height="13.515" fill="#F579A6" transform="matrix(0.707106 0.707108 -0.707106 0.707108 322.564 361.493)"/><rect width="13.515" height="13.515" fill="#F3587D" transform="matrix(0.707107 0.707106 -0.707107 0.707106 246.933 361.265)"/><rect width="13.515" height="13.515" x="313.064" y="370.994" fill="#F3587D" transform="rotate(45 313.064 370.994)"/><rect width="13.515" height="13.515" x="237.32" y="370.751" fill="#D44D6E" transform="rotate(45 237.32 370.751)"/><rect width="13.515" height="13.515" fill="#5BF1CD" transform="matrix(0.707106 0.707107 -0.707106 0.707107 265.32 323.25)"/><rect width="13.515" height="13.515" x="284.434" y="323.25" fill="#02E2AC" transform="rotate(45 284.434 323.25)"/><rect width="13.515" height="13.515" fill="#160749" transform="matrix(0.707106 0.707108 -0.707106 0.707108 303.546 342.263)"/><rect width="13.515" height="13.515" x="274.827" y="332.757" fill="#160749" transform="rotate(45 274.827 332.757)"/><rect width="13.515" height="13.515" fill="#5BF1CD" transform="matrix(0.707107 0.707106 -0.707107 0.707106 322.809 380.251)"/><rect width="13.515" height="13.515" x="284.32" y="418.739" fill="#5BF1CD" transform="rotate(45 284.32 418.739)"/><rect width="13.515" height="13.515" x="355.227" y="339.46" fill="#5BF1CD" transform="rotate(45 355.227 339.46)"/><rect width="13.515" height="13.515" x="284.433" y="342.263" fill="#11BC92" transform="rotate(45 284.433 342.263)"/><rect width="13.515" height="13.515" fill="#11BC92" transform="matrix(0.707105 0.707108 -0.707105 0.707108 322.564 342.249)"/><rect width="13.515" height="13.515" x="345.719" y="329.953" fill="#02E2AC" transform="rotate(45 345.719 329.953)"/><rect width="13.515" height="13.515" fill="#FFDB4C" transform="matrix(0.707106 0.707108 -0.707106 0.707108 332.066 351.995)"/><rect width="13.515" height="13.515" fill="#FC0" transform="matrix(0.707107 0.707106 -0.707107 0.707106 312.948 389.87)"/><rect width="13.515" height="13.515" x="332.06" y="408.884" fill="#160749" transform="rotate(45 332.06 408.884)"/><rect width="13.515" height="13.515" fill="#160749" transform="matrix(0.707107 0.707106 -0.707107 0.707106 303.341 399.375)"/><rect width="13.515" height="13.515" fill="#FFDB4C" transform="matrix(0.707107 0.707106 -0.707107 0.707106 293.833 408.884)"/><rect width="13.515" height="13.515" fill="#11BC92" transform="matrix(0.707107 0.707106 -0.707107 0.707106 274.821 409.082)"/><rect width="13.515" height="13.515" fill="#FFDB4C" transform="matrix(0.707107 0.707106 -0.707107 0.707106 303.341 437.502)"/><rect width="13.515" height="13.515" x="312.946" y="408.884" fill="#E1B815" transform="rotate(45 312.946 408.884)"/><rect width="13.515" height="13.515" fill="#E1B815" transform="matrix(0.707106 0.707107 -0.707106 0.707107 227.807 361.493)"/><rect width="13.515" height="13.515" x="321.557" y="437.25" fill="#F3587D" transform="rotate(45 321.557 437.25)"/><rect width="13.515" height="13.515" fill="#8C65F7" transform="matrix(0.707103 0.70711 -0.707103 0.70711 1069.58 412.5)"/><rect width="13.515" height="13.515" fill="#6F3FF5" transform="matrix(0.707106 0.707108 -0.707106 0.707108 1088.69 412.5)"/><rect width="13.515" height="13.515" fill="#160749" transform="matrix(0.707108 0.707106 -0.707108 0.707106 1107.8 431.516)"/><rect width="13.515" height="13.515" fill="#160749" transform="matrix(0.707103 0.70711 -0.707103 0.70711 1079.08 422.009)"/><rect width="13.515" height="13.515" fill="#8C65F7" transform="matrix(0.707106 0.707108 -0.707106 0.707108 1117.31 441.001)"/><rect width="13.515" height="13.515" fill="#8C65F7" transform="matrix(0.707108 0.707106 -0.707108 0.707106 1117.07 460.119)"/><rect width="13.515" height="13.515" fill="#8C65F7" transform="matrix(0.707106 0.707108 -0.707106 0.707108 1079.06 441.245)"/><rect width="13.515" height="13.515" fill="#5932C4" transform="matrix(0.707108 0.707105 -0.707108 0.707105 1117.07 422.243)"/><rect width="13.515" height="13.515" fill="#5932C4" transform="matrix(0.707104 0.70711 -0.707104 0.70711 1060.31 422.002)"/><rect width="13.515" height="13.515" fill="#6F3FF5" transform="matrix(0.707109 0.707105 -0.707109 0.707105 1129.49 483.991)"/><rect width="13.515" height="13.515" x="1003.32" y="402.999" fill="#F579A6" transform="rotate(45 1003.32 402.999)"/><rect width="13.515" height="13.515" fill="#D44D6E" transform="matrix(0.707106 0.707108 -0.707106 0.707108 1022.43 402.999)"/><rect width="13.515" height="13.515" fill="#160749" transform="matrix(0.707106 0.707107 -0.707106 0.707107 1041.55 422.015)"/><rect width="13.515" height="13.515" fill="#160749" transform="matrix(0.707109 0.707105 -0.707109 0.707105 1012.83 412.506)"/><rect width="13.515" height="13.515" fill="#F579A6" transform="matrix(0.707108 0.707106 -0.707108 0.707106 1069.81 431.501)"/><rect width="13.515" height="13.515" fill="#F579A6" transform="matrix(0.707105 0.707109 -0.707105 0.707109 1069.32 450.502)"/><rect width="13.515" height="13.515" fill="#F579A6" transform="matrix(0.707106 0.707107 -0.707106 0.707107 1098.06 422.243)"/><rect width="13.515" height="13.515" fill="#F3587D" transform="matrix(0.707107 0.707106 -0.707107 0.707106 1022.43 422.015)"/><rect width="13.515" height="13.515" fill="#F3587D" transform="matrix(0.70711 0.707104 -0.70711 0.707104 1088.56 431.744)"/><rect width="13.515" height="13.515" fill="#D44D6E" transform="matrix(0.707106 0.707108 -0.707106 0.707108 1012.82 431.501)"/><rect width="13.515" height="13.515" fill="#5BF1CD" transform="matrix(0.707106 0.707108 -0.707106 0.707108 1040.82 384)"/><rect width="13.515" height="13.515" fill="#02E2AC" transform="matrix(0.707108 0.707106 -0.707108 0.707106 1059.93 384)"/><rect width="13.515" height="13.515" fill="#160749" transform="matrix(0.707106 0.707108 -0.707106 0.707108 1079.05 403.013)"/><rect width="13.515" height="13.515" fill="#160749" transform="matrix(0.707106 0.707107 -0.707106 0.707107 1050.33 393.507)"/><rect width="13.515" height="13.515" fill="#5BF1CD" transform="matrix(0.707111 0.707103 -0.707111 0.707103 1059.82 479.489)"/><rect width="13.515" height="13.515" fill="#5BF1CD" transform="matrix(0.707106 0.707108 -0.707106 0.707108 1130.73 400.21)"/><rect width="13.515" height="13.515" fill="#11BC92" transform="matrix(0.707108 0.707106 -0.707108 0.707106 1059.93 403.013)"/><rect width="13.515" height="13.515" fill="#11BC92" transform="matrix(0.707106 0.707108 -0.707106 0.707108 1098.06 402.999)"/><rect width="13.515" height="13.515" fill="#02E2AC" transform="matrix(0.707106 0.707107 -0.707106 0.707107 1121.22 390.703)"/><rect width="13.515" height="13.515" fill="#FFDB4C" transform="matrix(0.707108 0.707106 -0.707108 0.707106 1107.57 412.745)"/><rect width="13.515" height="13.515" fill="#FC0" transform="matrix(0.707109 0.707105 -0.707109 0.707105 1088.45 450.62)"/><rect width="13.515" height="13.515" fill="#160749" transform="matrix(0.707108 0.707105 -0.707108 0.707105 1107.56 469.634)"/><rect width="13.515" height="13.515" fill="#160749" transform="matrix(0.707106 0.707107 -0.707106 0.707107 1078.84 460.125)"/><rect width="13.515" height="13.515" fill="#FFDB4C" transform="matrix(0.707111 0.707103 -0.707111 0.707103 1069.33 469.634)"/><rect width="13.515" height="13.515" fill="#11BC92" transform="matrix(0.707104 0.70711 -0.707104 0.70711 1050.32 469.832)"/><rect width="13.515" height="13.515" fill="#FFDB4C" transform="matrix(0.707106 0.707108 -0.707106 0.707108 1078.84 498.252)"/><rect width="13.515" height="13.515" fill="#E1B815" transform="matrix(0.707111 0.707103 -0.707111 0.707103 1088.45 469.634)"/><rect width="13.515" height="13.515" fill="#E1B815" transform="matrix(0.707107 0.707106 -0.707107 0.707106 1003.31 422.243)"/><rect width="13.515" height="13.515" fill="#F3587D" transform="matrix(0.707108 0.707106 -0.707108 0.707106 1097.06 498)"/><rect width="28.36" height="13.515" fill="#9760FF" transform="matrix(0.707106 0.707107 -0.707106 0.707107 1228.31 308.253)"/><rect width="13.515" height="13.515" x="311.807" y="804.75" fill="#8C65F7" transform="rotate(45 311.807 804.75)"/><rect width="13.515" height="13.515" fill="#8C65F7" transform="matrix(0.707106 0.707107 -0.707106 0.707107 215.057 699)"/></g><defs><clipPath id="clip0"><rect width="1440" height="900" fill="#fff"/></clipPath></defs></svg>