<svg xmlns="http://www.w3.org/2000/svg" xmlns:xlink="http://www.w3.org/1999/xlink" id="ea53y8bv76ss1" width="1400" height="900" shape-rendering="geometricPrecision" text-rendering="geometricPrecision" viewBox="0 0 1400 900"><style>@keyframes ea53y8bv76ss3_c_o{0%{opacity:0}73.684211%{opacity:0;animation-timing-function:cubic-bezier(.93,-.005,.745,.715)}86.842105%{opacity:1;animation-timing-function:cubic-bezier(.93,-.005,.745,.715)}}@keyframes ea53y8bv76ss12_c_o{0%,92.105263%{opacity:0}65.789474%{opacity:0;animation-timing-function:cubic-bezier(.93,-.005,.745,.715)}78.947368%{opacity:1;animation-timing-function:cubic-bezier(.93,-.005,.745,.715)}}@keyframes ea53y8bv76ss29_c_o{0%,84.210526%{opacity:0}57.894737%{opacity:0;animation-timing-function:cubic-bezier(.93,-.005,.745,.715)}71.052632%{opacity:1;animation-timing-function:cubic-bezier(.93,-.005,.745,.715)}}@keyframes ea53y8bv76ss48_c_o{0%,76.315789%{opacity:0}50%{opacity:0;animation-timing-function:cubic-bezier(.93,-.005,.745,.715)}63.157895%{opacity:1;animation-timing-function:cubic-bezier(.93,-.005,.745,.715)}}@keyframes ea53y8bv76ss71_c_o{0%,68.421053%{opacity:0}42.105263%{opacity:0;animation-timing-function:cubic-bezier(.93,-.005,.745,.715)}55.263158%{opacity:1;animation-timing-function:cubic-bezier(.93,-.005,.745,.715)}}@keyframes ea53y8bv76ss96_c_o{0%,60.526316%{opacity:0}34.210526%{opacity:0;animation-timing-function:cubic-bezier(.93,-.005,.745,.715)}47.368421%{opacity:1;animation-timing-function:cubic-bezier(.93,-.005,.745,.715)}}@keyframes ea53y8bv76ss121_c_o{0%,52.631579%{opacity:0}26.315789%{opacity:0;animation-timing-function:cubic-bezier(.93,-.005,.745,.715)}39.473684%{opacity:1;animation-timing-function:cubic-bezier(.93,-.005,.745,.715)}}@keyframes ea53y8bv76ss146_c_o{0%,44.736842%{opacity:0}18.421053%{opacity:0;animation-timing-function:cubic-bezier(.93,-.005,.745,.715)}31.578947%{opacity:1;animation-timing-function:cubic-bezier(.93,-.005,.745,.715)}}@keyframes ea53y8bv76ss177_c_o{0%,36.842105%{opacity:0}10.526316%{opacity:0;animation-timing-function:cubic-bezier(.93,-.005,.745,.715)}23.684211%{opacity:1;animation-timing-function:cubic-bezier(.93,-.005,.745,.715)}}@keyframes ea53y8bv76ss202_c_o{0%,31.578947%{opacity:0}5.263158%{opacity:0;animation-timing-function:cubic-bezier(.93,-.005,.745,.715)}18.421053%{opacity:1;animation-timing-function:cubic-bezier(.93,-.005,.745,.715)}}@keyframes ea53y8bv76ss217_c_o{0%{opacity:0;animation-timing-function:cubic-bezier(.93,-.005,.745,.715)}13.157895%{opacity:1;animation-timing-function:cubic-bezier(.93,-.005,.745,.715)}26.315789%{opacity:0}}#ea53y8bv76ss3{animation:ea53y8bv76ss3_c_o 3800ms linear infinite normal forwards}#ea53y8bv76ss12{animation:ea53y8bv76ss12_c_o 3800ms linear infinite normal forwards}#ea53y8bv76ss29{animation:ea53y8bv76ss29_c_o 3800ms linear infinite normal forwards}#ea53y8bv76ss48{animation:ea53y8bv76ss48_c_o 3800ms linear infinite normal forwards}#ea53y8bv76ss71{animation:ea53y8bv76ss71_c_o 3800ms linear infinite normal forwards}#ea53y8bv76ss96{animation:ea53y8bv76ss96_c_o 3800ms linear infinite normal forwards}#ea53y8bv76ss121{animation:ea53y8bv76ss121_c_o 3800ms linear infinite normal forwards}#ea53y8bv76ss146{animation:ea53y8bv76ss146_c_o 3800ms linear infinite normal forwards}#ea53y8bv76ss177{animation:ea53y8bv76ss177_c_o 3800ms linear infinite normal forwards}#ea53y8bv76ss202{animation:ea53y8bv76ss202_c_o 3800ms linear infinite normal forwards}#ea53y8bv76ss217{animation:ea53y8bv76ss217_c_o 3800ms linear infinite normal forwards}</style><rect id="ea53y8bv76ss2" width="1400" height="900" fill="#0E0333" stroke="none" stroke-width="1" rx="0" ry="0"/><g id="ea53y8bv76ss3" opacity="0"><g id="ea53y8bv76ss4"><polygon id="ea53y8bv76ss5" fill="#6F3FF5" stroke="none" stroke-width="1" points="1347.63 827.86 1332.23 838.6 1330.66 819.96"/></g><g id="ea53y8bv76ss6"><polygon id="ea53y8bv76ss7" fill="#6F3FF5" stroke="none" stroke-width="1" points="1238.51 830.31 1223.9 831.52 1230.15 818.32"/></g><g id="ea53y8bv76ss8"><polygon id="ea53y8bv76ss9" fill="#02E2AC" stroke="none" stroke-width="1" points="1405.02 713.12 1394.69 708.19 1404.09 701.73"/></g><g id="ea53y8bv76ss10"><polygon id="ea53y8bv76ss11" fill="#F35890" stroke="none" stroke-width="1" points="1310.84 696.1 1300.16 698.18 1303.68 687.86"/></g></g><g id="ea53y8bv76ss12" opacity="0"><g id="ea53y8bv76ss13"><polygon id="ea53y8bv76ss14" fill="#6F3FF5" stroke="none" stroke-width="1" points="1114.65 834.67 1106.58 847.12 1099.87 833.95"/></g><g id="ea53y8bv76ss15"><polygon id="ea53y8bv76ss16" fill="#6F3FF5" stroke="none" stroke-width="1" points="1020.88 833.17 1005.32 833.88 1012.47 820.11"/></g><g id="ea53y8bv76ss17"><polygon id="ea53y8bv76ss18" fill="#F35890" stroke="none" stroke-width="1" points="1161.76 725.12 1165.62 735.7 1154.5 733.79"/></g><g id="ea53y8bv76ss19"><polygon id="ea53y8bv76ss20" fill="#6F3FF5" stroke="none" stroke-width="1" points="1104.74 698.33 1085.5 706.29 1088.25 685.72"/></g><g id="ea53y8bv76ss21"><polygon id="ea53y8bv76ss22" fill="#6F3FF5" stroke="none" stroke-width="1" points="1370.46 582.9 1364.24 569.58 1378.83 570.87"/></g><g id="ea53y8bv76ss23"><polygon id="ea53y8bv76ss24" fill="#6F3FF5" stroke="none" stroke-width="1" points="1225.22 634.19 1209.92 623.2 1227.04 615.5"/></g><g id="ea53y8bv76ss25"><polygon id="ea53y8bv76ss26" fill="#F35890" stroke="none" stroke-width="1" points="1398.18 498.47 1388.82 499.39 1392.68 490.8"/></g><g id="ea53y8bv76ss27"><polygon id="ea53y8bv76ss28" fill="#F35890" stroke="none" stroke-width="1" points="1304.24 477.15 1301.04 487.01 1294.07 479.33"/></g></g><g id="ea53y8bv76ss29" opacity="0"><g id="ea53y8bv76ss30"><polygon id="ea53y8bv76ss31" fill="#6F3FF5" stroke="none" stroke-width="1" points="912.36 831.57 897.26 834.01 902.7 819.77"/></g><g id="ea53y8bv76ss32"><polygon id="ea53y8bv76ss33" fill="#02E2AC" stroke="none" stroke-width="1" points="831.85 789.01 827.49 800.66 819.61 791.09"/></g><g id="ea53y8bv76ss34"><polygon id="ea53y8bv76ss35" fill="#F35890" stroke="none" stroke-width="1" points="980.84 699.89 970.69 702.03 973.89 692.14"/></g><g id="ea53y8bv76ss36"><polygon id="ea53y8bv76ss37" fill="#6F3FF5" stroke="none" stroke-width="1" points="1153.09 588.6 1143.68 574.31 1160.7 573.34"/></g><g id="ea53y8bv76ss38"><polygon id="ea53y8bv76ss39" fill="#02E2AC" stroke="none" stroke-width="1" points="1031.53 599.39 1022.13 589.83 1035.06 586.49"/></g><g id="ea53y8bv76ss40"><polygon id="ea53y8bv76ss41" fill="#F35890" stroke="none" stroke-width="1" points="1204.74 472.58 1195.58 477.88 1195.53 467.29"/></g><g id="ea53y8bv76ss42"><polygon id="ea53y8bv76ss43" fill="#6F3FF5" stroke="none" stroke-width="1" points="1378.99 358.18 1369.78 376.2 1358.84 359.26"/></g><g id="ea53y8bv76ss44"><polygon id="ea53y8bv76ss45" fill="#F35890" stroke="none" stroke-width="1" points="1248.95 368.4 1246.45 377 1240.22 370.54"/></g><g id="ea53y8bv76ss46"><polygon id="ea53y8bv76ss47" fill="#6F3FF5" stroke="none" stroke-width="1" points="1390.72 292.35 1381.01 310.21 1370.47 292.92"/></g></g><g id="ea53y8bv76ss48" opacity="0"><g id="ea53y8bv76ss49"><polygon id="ea53y8bv76ss50" fill="#6F3FF5" stroke="none" stroke-width="1" points="711.52 826.23 692.88 820.59 707.05 807.34"/></g><g id="ea53y8bv76ss51"><polygon id="ea53y8bv76ss52" fill="#6F3FF5" stroke="none" stroke-width="1" points="859.36 723.93 841.89 731.24 844.31 712.53"/></g><g id="ea53y8bv76ss53"><polygon id="ea53y8bv76ss54" fill="#6F3FF5" stroke="none" stroke-width="1" points="744.69 725.97 729.47 733.36 730.7 716.55"/></g><g id="ea53y8bv76ss55"><polygon id="ea53y8bv76ss56" fill="#6F3FF5" stroke="none" stroke-width="1" points="898.2 629.39 887.43 614.77 905.41 612.79"/></g><g id="ea53y8bv76ss57"><polygon id="ea53y8bv76ss58" fill="#02E2AC" stroke="none" stroke-width="1" points="1105.25 471.77 1091.88 476.37 1094.58 462.54"/></g><g id="ea53y8bv76ss59"><polygon id="ea53y8bv76ss60" fill="#6F3FF5" stroke="none" stroke-width="1" points="978.3 500.79 961.89 495.78 974.41 484.13"/></g><g id="ea53y8bv76ss61"><polygon id="ea53y8bv76ss62" fill="#02E2AC" stroke="none" stroke-width="1" points="1160.21 363.63 1146.3 368.19 1149.3 353.92"/></g><g id="ea53y8bv76ss63"><polygon id="ea53y8bv76ss64" fill="#02E2AC" stroke="none" stroke-width="1" points="1316.23 260.11 1307.33 249.46 1320.95 247.09"/></g><g id="ea53y8bv76ss65"><polygon id="ea53y8bv76ss66" fill="#6F3FF5" stroke="none" stroke-width="1" points="1213.69 256.18 1200.47 272.34 1193.14 252.88"/></g><g id="ea53y8bv76ss67"><polygon id="ea53y8bv76ss68" fill="#6F3FF5" stroke="none" stroke-width="1" points="1337.38 192.06 1325.81 176.72 1344.81 174.41"/></g><g id="ea53y8bv76ss69"><polygon id="ea53y8bv76ss70" fill="#6F3FF5" stroke="none" stroke-width="1" points="1401.85 72.19 1386.35 73.88 1392.63 59.67"/></g></g><g id="ea53y8bv76ss71" opacity="0"><g id="ea53y8bv76ss72"><polygon id="ea53y8bv76ss73" fill="#02E2AC" stroke="none" stroke-width="1" points="573.96 841.48 563.44 833.46 575.6 828.38"/></g><g id="ea53y8bv76ss74"><polygon id="ea53y8bv76ss75" fill="#6F3FF5" stroke="none" stroke-width="1" points="461.61 842.33 448.78 850.75 447.93 835.49"/></g><g id="ea53y8bv76ss76"><polygon id="ea53y8bv76ss77" fill="#6F3FF5" stroke="none" stroke-width="1" points="665.47 693.41 657.22 681.64 671.48 680.4"/></g><g id="ea53y8bv76ss78"><polygon id="ea53y8bv76ss79" fill="#02E2AC" stroke="none" stroke-width="1" points="784.28 627.44 777.04 614.78 791.57 614.85"/></g><g id="ea53y8bv76ss80"><polygon id="ea53y8bv76ss81" fill="#02E2AC" stroke="none" stroke-width="1" points="697.69 600.52 692.93 614.9 682.9 603.64"/></g><g id="ea53y8bv76ss82"><polygon id="ea53y8bv76ss83" fill="#02E2AC" stroke="none" stroke-width="1" points="835.67 517.51 826.44 525.73 823.95 513.67"/></g><g id="ea53y8bv76ss84"><polygon id="ea53y8bv76ss85" fill="#02E2AC" stroke="none" stroke-width="1" points="1024.22 381.2 1018.77 393.79 1010.62 382.81"/></g><g id="ea53y8bv76ss86"><polygon id="ea53y8bv76ss87" fill="#6F3FF5" stroke="none" stroke-width="1" points="945.48 355.36 941.46 373.22 928.06 360.84"/></g><g id="ea53y8bv76ss88"><polygon id="ea53y8bv76ss89" fill="#6F3FF5" stroke="none" stroke-width="1" points="1058.2 306.16 1041.35 315.42 1041.78 296.27"/></g><g id="ea53y8bv76ss90"><polygon id="ea53y8bv76ss91" fill="#6F3FF5" stroke="none" stroke-width="1" points="1242.17 167.72 1232.67 181.9 1225.19 166.63"/></g><g id="ea53y8bv76ss92"><polygon id="ea53y8bv76ss93" fill="#02E2AC" stroke="none" stroke-width="1" points="1144.06 160.59 1134.16 155.03 1143.89 149.26"/></g><g id="ea53y8bv76ss94"><polygon id="ea53y8bv76ss95" fill="#F35890" stroke="none" stroke-width="1" points="1275.72 70.47 1274.99 79.9 1267.16 74.57"/></g></g><g id="ea53y8bv76ss96" opacity="0"><g id="ea53y8bv76ss97"><polygon id="ea53y8bv76ss98" fill="#6F3FF5" stroke="none" stroke-width="1" points="392.45 799.61 384.44 814.73 375.41 800.28"/></g><g id="ea53y8bv76ss99"><polygon id="ea53y8bv76ss100" fill="#F35890" stroke="none" stroke-width="1" points="535.57 705.42 530.29 715.92 523.8 706.11"/></g><g id="ea53y8bv76ss101"><polygon id="ea53y8bv76ss102" fill="#02E2AC" stroke="none" stroke-width="1" points="421.5 721.72 407.44 729.28 407.93 713.38"/></g><g id="ea53y8bv76ss103"><polygon id="ea53y8bv76ss104" fill="#6F3FF5" stroke="none" stroke-width="1" points="613.39 595.11 599.01 581.71 617.74 576.01"/></g><g id="ea53y8bv76ss105"><polygon id="ea53y8bv76ss106" fill="#F35890" stroke="none" stroke-width="1" points="767.04 475.02 759.57 482.11 757.13 472.09"/></g><g id="ea53y8bv76ss107"><polygon id="ea53y8bv76ss108" fill="#6F3FF5" stroke="none" stroke-width="1" points="650.31 487.97 641.86 503.31 632.85 488.37"/></g><g id="ea53y8bv76ss109"><polygon id="ea53y8bv76ss110" fill="#02E2AC" stroke="none" stroke-width="1" points="825.92 374.96 815.43 362.37 831.51 359.6"/></g><g id="ea53y8bv76ss111"><polygon id="ea53y8bv76ss112" fill="#6F3FF5" stroke="none" stroke-width="1" points="956.29 307.06 941.46 294.04 960.09 287.76"/></g><g id="ea53y8bv76ss113"><polygon id="ea53y8bv76ss114" fill="#6F3FF5" stroke="none" stroke-width="1" points="871.32 283.78 854.28 278.67 867.2 266.54"/></g><g id="ea53y8bv76ss115"><polygon id="ea53y8bv76ss116" fill="#6F3FF5" stroke="none" stroke-width="1" points="1059.79 153.1 1040.04 150.92 1051.77 134.98"/></g><g id="ea53y8bv76ss117"><polygon id="ea53y8bv76ss118" fill="#6F3FF5" stroke="none" stroke-width="1" points="1181.5 74.84 1170.28 62.4 1186.6 58.94"/></g><g id="ea53y8bv76ss119"><polygon id="ea53y8bv76ss120" fill="#02E2AC" stroke="none" stroke-width="1" points="1097.25 49.22 1086.05 39.69 1099.85 34.77"/></g></g><g id="ea53y8bv76ss121" opacity="0"><g id="ea53y8bv76ss122"><polygon id="ea53y8bv76ss123" fill="#6F3FF5" stroke="none" stroke-width="1" points="252 829.33 245.24 842.47 237.29 830.09"/></g><g id="ea53y8bv76ss124"><polygon id="ea53y8bv76ss125" fill="#F35890" stroke="none" stroke-width="1" points="132.88 832.39 133.9 841.08 125.83 837.64"/></g><g id="ea53y8bv76ss126"><polygon id="ea53y8bv76ss127" fill="#F35890" stroke="none" stroke-width="1" points="330.69 685.37 336.2 692.75 327.05 693.86"/></g><g id="ea53y8bv76ss128"><polygon id="ea53y8bv76ss129" fill="#6F3FF5" stroke="none" stroke-width="1" points="470.18 632.38 454.39 619.31 473.54 612.23"/></g><g id="ea53y8bv76ss130"><polygon id="ea53y8bv76ss131" fill="#F35890" stroke="none" stroke-width="1" points="371.7 598.98 364.31 605.33 362.47 595.75"/></g><g id="ea53y8bv76ss132"><polygon id="ea53y8bv76ss133" fill="#02E2AC" stroke="none" stroke-width="1" points="518.56 507.94 513.07 521.07 504.48 509.78"/></g><g id="ea53y8bv76ss134"><polygon id="ea53y8bv76ss135" fill="#F35890" stroke="none" stroke-width="1" points="665.35 402.11 673.64 407.86 664.52 412.2"/></g><g id="ea53y8bv76ss136"><polygon id="ea53y8bv76ss137" fill="#6F3FF5" stroke="none" stroke-width="1" points="585.65 399.19 569.97 404.32 573.37 388.25"/></g><g id="ea53y8bv76ss138"><polygon id="ea53y8bv76ss139" fill="#6F3FF5" stroke="none" stroke-width="1" points="740.06 287.98 733.68 302.41 724.44 289.7"/></g><g id="ea53y8bv76ss140"><polygon id="ea53y8bv76ss141" fill="#02E2AC" stroke="none" stroke-width="1" points="934.05 157.39 920.31 158.91 925.85 146.31"/></g><g id="ea53y8bv76ss142"><polygon id="ea53y8bv76ss143" fill="#F35890" stroke="none" stroke-width="1" points="808.22 151.43 817.79 158.6 806.79 163.34"/></g><g id="ea53y8bv76ss144"><polygon id="ea53y8bv76ss145" fill="#02E2AC" stroke="none" stroke-width="1" points="969.55 69.36 957.07 62.92 968.85 55.36"/></g></g><g id="ea53y8bv76ss146" opacity="0"><g id="ea53y8bv76ss147"><polygon id="ea53y8bv76ss148" fill="#02E2AC" stroke="none" stroke-width="1" points="42.21 828.43 34.08 817.1 47.91 815.74"/></g><g id="ea53y8bv76ss149"><polygon id="ea53y8bv76ss150" fill="#F35890" stroke="none" stroke-width="1" points="189.3 714.82 200.04 721.14 189.2 727.33"/></g><g id="ea53y8bv76ss151"><polygon id="ea53y8bv76ss152" fill="#02E2AC" stroke="none" stroke-width="1" points="108.17 715.08 96.19 704.5 111.29 699.43"/></g><g id="ea53y8bv76ss153"><polygon id="ea53y8bv76ss154" fill="#6F3FF5" stroke="none" stroke-width="1" points="242.75 639.51 229.69 623.3 250.18 620.13"/></g><g id="ea53y8bv76ss155"><polygon id="ea53y8bv76ss156" fill="#6F3FF5" stroke="none" stroke-width="1" points="133.53 632.74 126.47 614.95 145.33 617.74"/></g><g id="ea53y8bv76ss157"><polygon id="ea53y8bv76ss158" fill="#02E2AC" stroke="none" stroke-width="1" points="421.35 503.14 412.78 494.15 424.8 491.24"/></g><g id="ea53y8bv76ss159"><polygon id="ea53y8bv76ss160" fill="#F35890" stroke="none" stroke-width="1" points="325.85 471.59 332.75 477.67 324.03 480.63"/></g><g id="ea53y8bv76ss161"><polygon id="ea53y8bv76ss162" fill="#6F3FF5" stroke="none" stroke-width="1" points="457.36 417.06 446.99 406.51 461.27 402.83"/></g><g id="ea53y8bv76ss163"><polygon id="ea53y8bv76ss164" fill="#6F3FF5" stroke="none" stroke-width="1" points="400.74 354.16 398.68 368.59 387.27 359.61"/></g><g id="ea53y8bv76ss165"><polygon id="ea53y8bv76ss166" fill="#6F3FF5" stroke="none" stroke-width="1" points="636.41 307.09 617.05 300.25 632.6 286.97"/></g><g id="ea53y8bv76ss167"><polygon id="ea53y8bv76ss168" fill="#6F3FF5" stroke="none" stroke-width="1" points="532.64 289.62 517.01 294.55 520.56 278.61"/></g><g id="ea53y8bv76ss169"><polygon id="ea53y8bv76ss170" fill="#6F3FF5" stroke="none" stroke-width="1" points="712.83 175.79 693.71 169.41 708.76 156.11"/></g><g id="ea53y8bv76ss171"><polygon id="ea53y8bv76ss172" fill="#F35890" stroke="none" stroke-width="1" points="592.58 156.33 593.74 165.62 585.09 162"/></g><g id="ea53y8bv76ss173"><polygon id="ea53y8bv76ss174" fill="#6F3FF5" stroke="none" stroke-width="1" points="858.5 70.31 843.7 75.84 846.32 60.32"/></g><g id="ea53y8bv76ss175"><polygon id="ea53y8bv76ss176" fill="#6F3FF5" stroke="none" stroke-width="1" points="762.2 48.39 759.02 63.9 747.23 53.41"/></g></g><g id="ea53y8bv76ss177" opacity="0"><g id="ea53y8bv76ss178"><polygon id="ea53y8bv76ss179" fill="#6F3FF5" stroke="none" stroke-width="1" points="28.84 689.77 10.29 696.07 14.11 676.93"/></g><g id="ea53y8bv76ss180"><polygon id="ea53y8bv76ss181" fill="#F35890" stroke="none" stroke-width="1" points="30.25 607.6 36.48 616.75 25.43 617.61"/></g><g id="ea53y8bv76ss182"><polygon id="ea53y8bv76ss183" fill="#6F3FF5" stroke="none" stroke-width="1" points="203.18 509.51 192.16 499.64 206.18 495.06"/></g><g id="ea53y8bv76ss184"><polygon id="ea53y8bv76ss185" fill="#6F3FF5" stroke="none" stroke-width="1" points="124 480.3 113.11 469.9 127.51 465.71"/></g><g id="ea53y8bv76ss186"><polygon id="ea53y8bv76ss187" fill="#02E2AC" stroke="none" stroke-width="1" points="272.23 384.91 259.63 383.62 267.03 373.39"/></g><g id="ea53y8bv76ss188"><polygon id="ea53y8bv76ss189" fill="#6F3FF5" stroke="none" stroke-width="1" points="172.93 386.49 155.78 380.75 169.29 368.84"/></g><g id="ea53y8bv76ss190"><polygon id="ea53y8bv76ss191" fill="#02E2AC" stroke="none" stroke-width="1" points="455.48 255.27 443.86 251.5 452.9 243.36"/></g><g id="ea53y8bv76ss192"><polygon id="ea53y8bv76ss193" fill="#02E2AC" stroke="none" stroke-width="1" points="295.45 312.05 282.33 303.59 296.18 296.49"/></g><g id="ea53y8bv76ss194"><polygon id="ea53y8bv76ss195" fill="#02E2AC" stroke="none" stroke-width="1" points="477.49 169.41 470.7 181.56 463.61 169.65"/></g><g id="ea53y8bv76ss196"><polygon id="ea53y8bv76ss197" fill="#6F3FF5" stroke="none" stroke-width="1" points="384.53 173.03 365.53 177.91 370.8 159.09"/></g><g id="ea53y8bv76ss198"><polygon id="ea53y8bv76ss199" fill="#02E2AC" stroke="none" stroke-width="1" points="661.03 53.13 648.39 46.36 660.53 38.83"/></g><g id="ea53y8bv76ss200"><polygon id="ea53y8bv76ss201" fill="#6F3FF5" stroke="none" stroke-width="1" points="547.77 58.43 533.67 56.2 542.62 45.16"/></g></g><g id="ea53y8bv76ss202" opacity="0"><g id="ea53y8bv76ss203"><polygon id="ea53y8bv76ss204" fill="#02E2AC" stroke="none" stroke-width="1" points="30.89 414.58 16.32 410.37 27.21 399.9"/></g><g id="ea53y8bv76ss205"><polygon id="ea53y8bv76ss206" fill="#6F3FF5" stroke="none" stroke-width="1" points="213.77 284.26 197.94 287.99 202.63 272.48"/></g><g id="ea53y8bv76ss207"><polygon id="ea53y8bv76ss208" fill="#6F3FF5" stroke="none" stroke-width="1" points="81.55 314.48 64.87 308.57 78.3 297.15"/></g><g id="ea53y8bv76ss209"><polygon id="ea53y8bv76ss210" fill="#6F3FF5" stroke="none" stroke-width="1" points="273.06 164.89 259.62 174.31 258.2 158.02"/></g><g id="ea53y8bv76ss211"><polygon id="ea53y8bv76ss212" fill="#02E2AC" stroke="none" stroke-width="1" points="185.66 149.13 172.87 142.84 184.67 134.95"/></g><g id="ea53y8bv76ss213"><polygon id="ea53y8bv76ss214" fill="#6F3FF5" stroke="none" stroke-width="1" points="440.15 49.49 434.03 68.21 420.94 53.59"/></g><g id="ea53y8bv76ss215"><polygon id="ea53y8bv76ss216" fill="#F35890" stroke="none" stroke-width="1" points="324.1 44.4 328.52 54.42 317.62 53.28"/></g></g><g id="ea53y8bv76ss217" opacity="0"><g id="ea53y8bv76ss218"><polygon id="ea53y8bv76ss219" fill="#F35890" stroke="none" stroke-width="1" points="8.81 251.42 12.8 261.32 2.21 259.85"/></g><g id="ea53y8bv76ss220"><polygon id="ea53y8bv76ss221" fill="#02E2AC" stroke="none" stroke-width="1" points="42.13 180.61 29.62 180.58 35.88 169.8"/></g><g id="ea53y8bv76ss222"><polygon id="ea53y8bv76ss223" fill="#F35890" stroke="none" stroke-width="1" points="192.01 68.89 197.05 80.17 184.74 78.92"/></g><g id="ea53y8bv76ss224"><polygon id="ea53y8bv76ss225" fill="#6F3FF5" stroke="none" stroke-width="1" points="109.78 57.27 96.49 67.55 94.27 50.96"/></g><g id="ea53y8bv76ss226"><polygon id="ea53y8bv76ss227" fill="#6F3FF5" stroke="none" stroke-width="1" points="1.67 60.22 -5.02 41.84 14.17 45.25"/></g></g></svg>