<svg xmlns="http://www.w3.org/2000/svg" xmlns:xlink="http://www.w3.org/1999/xlink" id="e3k9nuqpvume1" width="1400" height="900" shape-rendering="geometricPrecision" text-rendering="geometricPrecision" viewBox="0 0 1400 900"><style>@keyframes e3k9nuqpvume19_f_o{0%,50.704225%,61.971831%{fill-opacity:0}56.338028%{fill-opacity:1}}@keyframes e3k9nuqpvume20_f_o{0%,45.070423%,56.338028%{fill-opacity:0}50.704225%{fill-opacity:1}}@keyframes e3k9nuqpvume21_f_o{0%,47.887324%,59.15493%{fill-opacity:0}53.521127%{fill-opacity:1}}@keyframes e3k9nuqpvume22_f_o{0%,30.985915%,45.915493%{fill-opacity:0}38.028169%{fill-opacity:1}}@keyframes e3k9nuqpvume23_f_o{0%,22.535211%,37.464789%{fill-opacity:0}29.577465%{fill-opacity:1}}@keyframes e3k9nuqpvume24_f_o{0%,26.760563%,41.690141%{fill-opacity:0}33.802817%{fill-opacity:1}}@keyframes e3k9nuqpvume25_f_o{0%,19.71831%,2.816901%{fill-opacity:0}9.859155%{fill-opacity:1}}@keyframes e3k9nuqpvume26_f_o{0%,16.901408%{fill-opacity:0}7.042254%{fill-opacity:1}}@keyframes e3k9nuqpvume27_f_o{0%,22.535211%,5.633803%{fill-opacity:0}12.676056%{fill-opacity:1}}@keyframes e3k9nuqpvume28_f_o{0%,25.352113%,8.450704%{fill-opacity:0}15.492958%{fill-opacity:1}}@keyframes e3k9nuqpvume29_f_o{0%,63.380282%,76.056338%{fill-opacity:0}69.014085%{fill-opacity:1}}@keyframes e3k9nuqpvume30_f_o{0%,66.197183%,78.873239%{fill-opacity:0}71.830986%{fill-opacity:1}}@keyframes e3k9nuqpvume31_f_o{0%,89.15493%{fill-opacity:0}94.366197%{fill-opacity:1}}@keyframes e3k9nuqpvume32_f_o{0%,84.929577%,95.774648%{fill-opacity:0}90.140845%{fill-opacity:1}}#e3k9nuqpvume19{animation:e3k9nuqpvume19_f_o 7100ms linear infinite normal forwards}#e3k9nuqpvume20{animation:e3k9nuqpvume20_f_o 7100ms linear infinite normal forwards}#e3k9nuqpvume21{animation:e3k9nuqpvume21_f_o 7100ms linear infinite normal forwards}#e3k9nuqpvume22{animation:e3k9nuqpvume22_f_o 7100ms linear infinite normal forwards}#e3k9nuqpvume23{animation:e3k9nuqpvume23_f_o 7100ms linear infinite normal forwards}#e3k9nuqpvume24{animation:e3k9nuqpvume24_f_o 7100ms linear infinite normal forwards}#e3k9nuqpvume25{animation:e3k9nuqpvume25_f_o 7100ms linear infinite normal forwards}#e3k9nuqpvume26{animation:e3k9nuqpvume26_f_o 7100ms linear infinite normal forwards}#e3k9nuqpvume27{animation:e3k9nuqpvume27_f_o 7100ms linear infinite normal forwards}#e3k9nuqpvume28{animation:e3k9nuqpvume28_f_o 7100ms linear infinite normal forwards}#e3k9nuqpvume29{animation:e3k9nuqpvume29_f_o 7100ms linear infinite normal forwards}#e3k9nuqpvume30{animation:e3k9nuqpvume30_f_o 7100ms linear infinite normal forwards}#e3k9nuqpvume31{animation:e3k9nuqpvume31_f_o 7100ms linear infinite normal forwards}#e3k9nuqpvume32{animation:e3k9nuqpvume32_f_o 7100ms linear infinite normal forwards}</style><rect id="e3k9nuqpvume2" width="1400" height="900" fill="#0E0333" stroke="none" stroke-width="1" rx="0" ry="0"/><polygon id="e3k9nuqpvume3" fill="#02E2AC" stroke="none" stroke-width="1" points="907.53 435.61 860.28 466.34 949.57 603.64 907.53 435.61" display="none"/><polygon id="e3k9nuqpvume4" fill="#6F3FF5" stroke="none" stroke-width="1" points="899.83 404.83 815.22 66.64 762.41 315.84 843.93 441.19 899.83 404.83" display="none"/><polygon id="e3k9nuqpvume5" fill="#F35890" stroke="none" stroke-width="1" points="836.36 27.51 926.43 387.54 1143.12 246.63 836.36 27.51" display="none"/><polygon id="e3k9nuqpvume6" fill="#6F3FF5" stroke="none" stroke-width="1" points="558.98 2.99 739.29 280.27 798.57 .52 797.84 0 561.69 0 558.98 2.99" display="none"/><polygon id="e3k9nuqpvume7" fill="#6F3FF5" stroke="none" stroke-width="1" points="219.48 332.59 521.18 0 11.91 0 219.48 332.59" display="none"/><polygon id="e3k9nuqpvume8" fill="#F35890" stroke="none" stroke-width="1" points="702.74 452.72 243.18 370.56 447.95 698.68 683.01 545.83 702.74 452.72" display="none"/><polygon id="e3k9nuqpvume9" fill="#6F3FF5" stroke="none" stroke-width="1" points="674.22 587.34 506.18 696.61 655.02 677.92 674.22 587.34" display="none"/><polygon id="e3k9nuqpvume10" fill="#6F3FF5" stroke="none" stroke-width="1" points="1176.46 612.43 1400 584.36 1400 430.12 1347.32 392.49 1176.46 612.43" display="none"/><polygon id="e3k9nuqpvume11" fill="#6F3FF5" stroke="none" stroke-width="1" points="1365.74 368.78 1400 393.25 1400 324.68 1365.74 368.78" display="none"/><polygon id="e3k9nuqpvume12" fill="#F35890" stroke="none" stroke-width="1" points="1150.43 645.94 1056.06 767.41 1142.29 900 1400 900 1400 614.59 1150.43 645.94" display="none"/><polygon id="e3k9nuqpvume13" fill="#F35890" stroke="none" stroke-width="1" points="142.52 772.51 0 790.41 0 900 122.9 900 142.52 772.51" display="none"/><polygon id="e3k9nuqpvume14" fill="#6F3FF5" stroke="none" stroke-width="1" points="1174.45 0 849.45 0 1159.77 221.66 1174.45 0" display="none"/><polygon id="e3k9nuqpvume15" fill="#6F3FF5" stroke="none" stroke-width="1" points="200.06 398.66 0 619.19 0 760.18 147.26 741.68 200.06 398.66" display="none"/><polygon id="e3k9nuqpvume16" fill="#02E2AC" stroke="none" stroke-width="1" points="468.48 731.58 573.59 900 607.96 900 648.44 708.98 468.48 731.58" display="none"/><polygon id="e3k9nuqpvume17" fill="#6F3FF5" stroke="none" stroke-width="1" points="1156.32 273.83 934.13 418.32 988.6 636.02 1133.54 617.82 1156.32 273.83" display="none"/><polygon id="e3k9nuqpvume18" fill="#6F3FF5" stroke="none" stroke-width="1" points="990.16 666.06 1038.75 740.79 1108.33 651.22 990.16 666.06" display="none"/><polygon id="e3k9nuqpvume19" fill="#6F3FF5" fill-opacity="0" stroke="none" stroke-width="1" points="438.69 740.5 193.41 900 538.23 900 438.69 740.5"/><polygon id="e3k9nuqpvume20" fill="#6F3FF5" fill-opacity="0" stroke="none" stroke-width="1" points="229.41 405.16 178.22 737.8 418.19 707.66 229.41 405.16"/><polygon id="e3k9nuqpvume21" fill="#6F3FF5" fill-opacity="0" stroke="none" stroke-width="1" points="154.91 889.25 380.35 742.65 173.47 768.63 154.91 889.25"/><polygon id="e3k9nuqpvume22" fill="#6F3FF5" fill-opacity="0" stroke="none" stroke-width="1" points="1190.21 216 1400 79.58 1400 0 1204.52 0 1190.21 216"/><polygon id="e3k9nuqpvume23" fill="#6F3FF5" fill-opacity="0" stroke="none" stroke-width="1" points="1186.15 277.37 1166.34 576.55 1322.89 375.04 1186.15 277.37"/><polygon id="e3k9nuqpvume24" fill="#02E2AC" fill-opacity="0" stroke="none" stroke-width="1" points="1400 275.78 1400 115.37 1196.36 247.79 1341.31 351.33 1400 275.78"/><polygon id="e3k9nuqpvume25" fill="#6F3FF5" fill-opacity="0" stroke="none" stroke-width="1" points="835.13 482.69 709.78 564.21 686.52 673.96 938.9 642.27 835.13 482.69"/><polygon id="e3k9nuqpvume26" fill="#6F3FF5" fill-opacity="0" stroke="none" stroke-width="1" points="718.58 522.7 818.78 457.54 753.62 357.34 718.58 522.7"/><polygon id="e3k9nuqpvume27" fill="#6F3FF5" fill-opacity="0" stroke="none" stroke-width="1" points="1019.27 765.86 957.08 670.22 679.94 705.02 638.63 900 915.07 900 1019.27 765.86"/><polygon id="e3k9nuqpvume28" fill="#02E2AC" fill-opacity="0" stroke="none" stroke-width="1" points="1036.58 792.48 953.06 900 1106.5 900 1036.58 792.48"/><polygon id="e3k9nuqpvume29" fill="#F35890" fill-opacity="0" stroke="none" stroke-width="1" points="181.97 329.14 0 37.57 0 296.61 181.97 329.14"/><polygon id="e3k9nuqpvume30" fill="#6F3FF5" fill-opacity="0" stroke="none" stroke-width="1" points="193.15 361.62 0 327.08 0 574.54 193.15 361.62"/><polygon id="e3k9nuqpvume31" fill="#6F3FF5" fill-opacity="0" stroke="none" stroke-width="1" points="526.78 390.79 708.96 423.36 730.49 321.78 552.25 47.69 526.78 390.79"/><polygon id="e3k9nuqpvume32" fill="#02E2AC" fill-opacity="0" stroke="none" stroke-width="1" points="251.79 341.63 497.09 385.48 522.5 43.2 251.79 341.63"/></svg>