<svg xmlns="http://www.w3.org/2000/svg" xmlns:xlink="http://www.w3.org/1999/xlink" id="e2mrekt7ef4a1" width="1400" height="900" shape-rendering="geometricPrecision" text-rendering="geometricPrecision" viewBox="0 0 1400 900"><style>@keyframes e2mrekt7ef4a4_f_o{0%,90%{fill-opacity:0}95%{fill-opacity:1}}@keyframes e2mrekt7ef4a5_f_o{0%,80%,90%{fill-opacity:0}85%{fill-opacity:1}}@keyframes e2mrekt7ef4a6_f_o{0%,60%,70%{fill-opacity:0}65%{fill-opacity:1}}@keyframes e2mrekt7ef4a7_f_o{0%,60%,70%{fill-opacity:0}65%{fill-opacity:1}}@keyframes e2mrekt7ef4a8_f_o{0%,40%,50%{fill-opacity:0}45%{fill-opacity:1}}@keyframes e2mrekt7ef4a9_f_o{0%,30%,40%{fill-opacity:0}35%{fill-opacity:1}}@keyframes e2mrekt7ef4a10_f_o{0%,30%,40%{fill-opacity:0}35%{fill-opacity:1}}@keyframes e2mrekt7ef4a11_f_o{0%,20%,30%{fill-opacity:0}25%{fill-opacity:1}}@keyframes e2mrekt7ef4a12_f_o{0%,10%,20%{fill-opacity:0}15%{fill-opacity:1}}@keyframes e2mrekt7ef4a13_f_o{0%,90%{fill-opacity:0}95%{fill-opacity:1}}@keyframes e2mrekt7ef4a14_f_o{0%,90%{fill-opacity:0}95%{fill-opacity:1}}@keyframes e2mrekt7ef4a15_f_o{0%,80%,90%{fill-opacity:0}85%{fill-opacity:1}}@keyframes e2mrekt7ef4a16_f_o{0%,80%,90%{fill-opacity:0}85%{fill-opacity:1}}@keyframes e2mrekt7ef4a17_f_o{0%,70%,80%{fill-opacity:0}75%{fill-opacity:1}}@keyframes e2mrekt7ef4a18_f_o{0%,50%,60%{fill-opacity:0}55%{fill-opacity:1}}@keyframes e2mrekt7ef4a19_f_o{0%,50%,60%{fill-opacity:0}55%{fill-opacity:1}}@keyframes e2mrekt7ef4a20_f_o{0%,40%,50%{fill-opacity:0}45%{fill-opacity:1}}@keyframes e2mrekt7ef4a21_f_o{0%,30%,40%{fill-opacity:0}35%{fill-opacity:1}}@keyframes e2mrekt7ef4a22_f_o{0%,20%,30%{fill-opacity:0}25%{fill-opacity:1}}@keyframes e2mrekt7ef4a23_f_o{0%,70%,80%{fill-opacity:0}75%{fill-opacity:1}}@keyframes e2mrekt7ef4a24_f_o{0%,10%,20%{fill-opacity:0}15%{fill-opacity:1}}@keyframes e2mrekt7ef4a25_f_o{0%,90%{fill-opacity:0}95%{fill-opacity:1}}@keyframes e2mrekt7ef4a26_f_o{0%,80%,90%{fill-opacity:0}85%{fill-opacity:1}}@keyframes e2mrekt7ef4a27_f_o{0%,70%,80%{fill-opacity:0}75%{fill-opacity:1}}@keyframes e2mrekt7ef4a28_f_o{0%,60%,70%{fill-opacity:0}65%{fill-opacity:1}}@keyframes e2mrekt7ef4a29_f_o{0%,60%,70%{fill-opacity:0}65%{fill-opacity:1}}@keyframes e2mrekt7ef4a30_f_o{0%,50%,60%{fill-opacity:0}55%{fill-opacity:1}}@keyframes e2mrekt7ef4a31_f_o{0%,30%,40%{fill-opacity:0}35%{fill-opacity:1}}@keyframes e2mrekt7ef4a32_f_o{0%,30%,40%{fill-opacity:0}35%{fill-opacity:1}}@keyframes e2mrekt7ef4a33_f_o{0%,20%,30%{fill-opacity:0}25%{fill-opacity:1}}@keyframes e2mrekt7ef4a34_f_o{0%,10%,20%{fill-opacity:0}15%{fill-opacity:1}}@keyframes e2mrekt7ef4a35_f_o{0%,90%{fill-opacity:0}95%{fill-opacity:1}}@keyframes e2mrekt7ef4a36_f_o{0%,90%{fill-opacity:0}95%{fill-opacity:1}}@keyframes e2mrekt7ef4a37_f_o{0%,80%,90%{fill-opacity:0}85%{fill-opacity:1}}@keyframes e2mrekt7ef4a38_f_o{0%,80%,90%{fill-opacity:0}85%{fill-opacity:1}}@keyframes e2mrekt7ef4a39_f_o{0%,70%,80%{fill-opacity:0}75%{fill-opacity:1}}@keyframes e2mrekt7ef4a40_f_o{0%,60%,70%{fill-opacity:0}65%{fill-opacity:1}}@keyframes e2mrekt7ef4a41_f_o{0%,50%,60%{fill-opacity:0}55%{fill-opacity:1}}@keyframes e2mrekt7ef4a42_f_o{0%,50%,60%{fill-opacity:0}55%{fill-opacity:1}}@keyframes e2mrekt7ef4a43_f_o{0%,40%,50%{fill-opacity:0}45%{fill-opacity:1}}@keyframes e2mrekt7ef4a44_f_o{0%,30%,40%{fill-opacity:0}35%{fill-opacity:1}}@keyframes e2mrekt7ef4a45_f_o{0%,20%,30%{fill-opacity:0}25%{fill-opacity:1}}@keyframes e2mrekt7ef4a46_f_o{0%,10%,20%{fill-opacity:0}15%{fill-opacity:1}}@keyframes e2mrekt7ef4a47_f_o{0%,10%,20%{fill-opacity:0}15%{fill-opacity:1}}@keyframes e2mrekt7ef4a48_f_o{0%,80%,90%{fill-opacity:0}85%{fill-opacity:1}}@keyframes e2mrekt7ef4a49_f_o{0%,80%,90%{fill-opacity:0}85%{fill-opacity:1}}@keyframes e2mrekt7ef4a50_f_o{0%,70%,80%{fill-opacity:0}75%{fill-opacity:1}}@keyframes e2mrekt7ef4a51_f_o{0%,60%,70%{fill-opacity:0}65%{fill-opacity:1}}@keyframes e2mrekt7ef4a52_f_o{0%,50%,60%{fill-opacity:0}55%{fill-opacity:1}}@keyframes e2mrekt7ef4a53_f_o{0%,30%,40%{fill-opacity:0}35%{fill-opacity:1}}@keyframes e2mrekt7ef4a54_f_o{0%,30%,40%{fill-opacity:0}35%{fill-opacity:1}}@keyframes e2mrekt7ef4a55_f_o{0%,20%,30%{fill-opacity:0}25%{fill-opacity:1}}@keyframes e2mrekt7ef4a56_f_o{0%,90%{fill-opacity:0}95%{fill-opacity:1}}@keyframes e2mrekt7ef4a57_f_o{0%,90%{fill-opacity:0}95%{fill-opacity:1}}@keyframes e2mrekt7ef4a58_f_o{0%,80%,90%{fill-opacity:0}85%{fill-opacity:1}}@keyframes e2mrekt7ef4a59_f_o{0%,70%,80%{fill-opacity:0}75%{fill-opacity:1}}@keyframes e2mrekt7ef4a60_f_o{0%,60%,70%{fill-opacity:0}65%{fill-opacity:1}}@keyframes e2mrekt7ef4a61_f_o{0%,50%,60%{fill-opacity:0}55%{fill-opacity:1}}@keyframes e2mrekt7ef4a62_f_o{0%,40%,50%{fill-opacity:0}45%{fill-opacity:1}}@keyframes e2mrekt7ef4a63_f_o{0%,30%,40%{fill-opacity:0}35%{fill-opacity:1}}@keyframes e2mrekt7ef4a64_f_o{0%,20%,30%{fill-opacity:0}25%{fill-opacity:1}}@keyframes e2mrekt7ef4a65_f_o{0%,10%,20%{fill-opacity:0}15%{fill-opacity:1}}@keyframes e2mrekt7ef4a66_f_o{0%,90%{fill-opacity:0}95%{fill-opacity:1}}@keyframes e2mrekt7ef4a67_f_o{0%,80%,90%{fill-opacity:0}85%{fill-opacity:1}}@keyframes e2mrekt7ef4a68_f_o{0%,70%,80%{fill-opacity:0}75%{fill-opacity:1}}@keyframes e2mrekt7ef4a69_f_o{0%,50%,60%{fill-opacity:0}55%{fill-opacity:1}}@keyframes e2mrekt7ef4a70_f_o{0%,40%,50%{fill-opacity:0}45%{fill-opacity:1}}@keyframes e2mrekt7ef4a71_f_o{0%,30%,40%{fill-opacity:0}35%{fill-opacity:1}}@keyframes e2mrekt7ef4a72_f_o{0%,30%,40%{fill-opacity:0}35%{fill-opacity:1}}@keyframes e2mrekt7ef4a73_f_o{0%,20%,30%{fill-opacity:0}25%{fill-opacity:1}}@keyframes e2mrekt7ef4a74_f_o{0%,10%,20%{fill-opacity:0}15%{fill-opacity:1}}@keyframes e2mrekt7ef4a75_f_o{0%,90%{fill-opacity:0}95%{fill-opacity:1}}@keyframes e2mrekt7ef4a76_f_o{0%,90%{fill-opacity:0}95%{fill-opacity:1}}@keyframes e2mrekt7ef4a77_f_o{0%,80%,90%{fill-opacity:0}85%{fill-opacity:1}}@keyframes e2mrekt7ef4a78_f_o{0%,80%,90%{fill-opacity:0}85%{fill-opacity:1}}@keyframes e2mrekt7ef4a79_f_o{0%,70%,80%{fill-opacity:0}75%{fill-opacity:1}}@keyframes e2mrekt7ef4a80_f_o{0%,60%,70%{fill-opacity:0}65%{fill-opacity:1}}@keyframes e2mrekt7ef4a81_f_o{0%,50%,60%{fill-opacity:0}55%{fill-opacity:1}}@keyframes e2mrekt7ef4a82_f_o{0%,40%,50%{fill-opacity:0}45%{fill-opacity:1}}@keyframes e2mrekt7ef4a83_f_o{0%,20%,30%{fill-opacity:0}25%{fill-opacity:1}}@keyframes e2mrekt7ef4a84_f_o{0%,10%,20%{fill-opacity:0}15%{fill-opacity:1}}@keyframes e2mrekt7ef4a85_f_o{0%,10%,20%{fill-opacity:0}15%{fill-opacity:1}}@keyframes e2mrekt7ef4a86_f_o{0%,10%{fill-opacity:0}5%{fill-opacity:1}}@keyframes e2mrekt7ef4a87_f_o{0%,10%{fill-opacity:0}5%{fill-opacity:1}}@keyframes e2mrekt7ef4a88_f_o{0%,10%{fill-opacity:0}5%{fill-opacity:1}}@keyframes e2mrekt7ef4a89_f_o{0%,10%{fill-opacity:0}5%{fill-opacity:1}}@keyframes e2mrekt7ef4a90_f_o{0%,10%{fill-opacity:0}5%{fill-opacity:1}}@keyframes e2mrekt7ef4a91_f_o{0%,10%{fill-opacity:0}5%{fill-opacity:1}}@keyframes e2mrekt7ef4a92_f_o{0%,10%{fill-opacity:0}5%{fill-opacity:1}}#e2mrekt7ef4a4{animation:e2mrekt7ef4a4_f_o 10000ms linear infinite normal forwards}#e2mrekt7ef4a5{animation:e2mrekt7ef4a5_f_o 10000ms linear infinite normal forwards}#e2mrekt7ef4a6{animation:e2mrekt7ef4a6_f_o 10000ms linear infinite normal forwards}#e2mrekt7ef4a7{animation:e2mrekt7ef4a7_f_o 10000ms linear infinite normal forwards}#e2mrekt7ef4a8{animation:e2mrekt7ef4a8_f_o 10000ms linear infinite normal forwards}#e2mrekt7ef4a9{animation:e2mrekt7ef4a9_f_o 10000ms linear infinite normal forwards}#e2mrekt7ef4a10{animation:e2mrekt7ef4a10_f_o 10000ms linear infinite normal forwards}#e2mrekt7ef4a11{animation:e2mrekt7ef4a11_f_o 10000ms linear infinite normal forwards}#e2mrekt7ef4a12{animation:e2mrekt7ef4a12_f_o 10000ms linear infinite normal forwards}#e2mrekt7ef4a13{animation:e2mrekt7ef4a13_f_o 10000ms linear infinite normal forwards}#e2mrekt7ef4a14{animation:e2mrekt7ef4a14_f_o 10000ms linear infinite normal forwards}#e2mrekt7ef4a15{animation:e2mrekt7ef4a15_f_o 10000ms linear infinite normal forwards}#e2mrekt7ef4a16{animation:e2mrekt7ef4a16_f_o 10000ms linear infinite normal forwards}#e2mrekt7ef4a17{animation:e2mrekt7ef4a17_f_o 10000ms linear infinite normal forwards}#e2mrekt7ef4a18{animation:e2mrekt7ef4a18_f_o 10000ms linear infinite normal forwards}#e2mrekt7ef4a19{animation:e2mrekt7ef4a19_f_o 10000ms linear infinite normal forwards}#e2mrekt7ef4a20{animation:e2mrekt7ef4a20_f_o 10000ms linear infinite normal forwards}#e2mrekt7ef4a21{animation:e2mrekt7ef4a21_f_o 10000ms linear infinite normal forwards}#e2mrekt7ef4a22{animation:e2mrekt7ef4a22_f_o 10000ms linear infinite normal forwards}#e2mrekt7ef4a23{animation:e2mrekt7ef4a23_f_o 10000ms linear infinite normal forwards}#e2mrekt7ef4a24{animation:e2mrekt7ef4a24_f_o 10000ms linear infinite normal forwards}#e2mrekt7ef4a25{animation:e2mrekt7ef4a25_f_o 10000ms linear infinite normal forwards}#e2mrekt7ef4a26{animation:e2mrekt7ef4a26_f_o 10000ms linear infinite normal forwards}#e2mrekt7ef4a27{animation:e2mrekt7ef4a27_f_o 10000ms linear infinite normal forwards}#e2mrekt7ef4a28{animation:e2mrekt7ef4a28_f_o 10000ms linear infinite normal forwards}#e2mrekt7ef4a29{animation:e2mrekt7ef4a29_f_o 10000ms linear infinite normal forwards}#e2mrekt7ef4a30{animation:e2mrekt7ef4a30_f_o 10000ms linear infinite normal forwards}#e2mrekt7ef4a31{animation:e2mrekt7ef4a31_f_o 10000ms linear infinite normal forwards}#e2mrekt7ef4a32{animation:e2mrekt7ef4a32_f_o 10000ms linear infinite normal forwards}#e2mrekt7ef4a33{animation:e2mrekt7ef4a33_f_o 10000ms linear infinite normal forwards}#e2mrekt7ef4a34{animation:e2mrekt7ef4a34_f_o 10000ms linear infinite normal forwards}#e2mrekt7ef4a35{animation:e2mrekt7ef4a35_f_o 10000ms linear infinite normal forwards}#e2mrekt7ef4a36{animation:e2mrekt7ef4a36_f_o 10000ms linear infinite normal forwards}#e2mrekt7ef4a37{animation:e2mrekt7ef4a37_f_o 10000ms linear infinite normal forwards}#e2mrekt7ef4a38{animation:e2mrekt7ef4a38_f_o 10000ms linear infinite normal forwards}#e2mrekt7ef4a39{animation:e2mrekt7ef4a39_f_o 10000ms linear infinite normal forwards}#e2mrekt7ef4a40{animation:e2mrekt7ef4a40_f_o 10000ms linear infinite normal forwards}#e2mrekt7ef4a41{animation:e2mrekt7ef4a41_f_o 10000ms linear infinite normal forwards}#e2mrekt7ef4a42{animation:e2mrekt7ef4a42_f_o 10000ms linear infinite normal forwards}#e2mrekt7ef4a43{animation:e2mrekt7ef4a43_f_o 10000ms linear infinite normal forwards}#e2mrekt7ef4a44{animation:e2mrekt7ef4a44_f_o 10000ms linear infinite normal forwards}#e2mrekt7ef4a45{animation:e2mrekt7ef4a45_f_o 10000ms linear infinite normal forwards}#e2mrekt7ef4a46{animation:e2mrekt7ef4a46_f_o 10000ms linear infinite normal forwards}#e2mrekt7ef4a47{animation:e2mrekt7ef4a47_f_o 10000ms linear infinite normal forwards}#e2mrekt7ef4a48{animation:e2mrekt7ef4a48_f_o 10000ms linear infinite normal forwards}#e2mrekt7ef4a49{animation:e2mrekt7ef4a49_f_o 10000ms linear infinite normal forwards}#e2mrekt7ef4a50{animation:e2mrekt7ef4a50_f_o 10000ms linear infinite normal forwards}#e2mrekt7ef4a51{animation:e2mrekt7ef4a51_f_o 10000ms linear infinite normal forwards}#e2mrekt7ef4a52{animation:e2mrekt7ef4a52_f_o 10000ms linear infinite normal forwards}#e2mrekt7ef4a53{animation:e2mrekt7ef4a53_f_o 10000ms linear infinite normal forwards}#e2mrekt7ef4a54{animation:e2mrekt7ef4a54_f_o 10000ms linear infinite normal forwards}#e2mrekt7ef4a55{animation:e2mrekt7ef4a55_f_o 10000ms linear infinite normal forwards}#e2mrekt7ef4a56{animation:e2mrekt7ef4a56_f_o 10000ms linear infinite normal forwards}#e2mrekt7ef4a57{animation:e2mrekt7ef4a57_f_o 10000ms linear infinite normal forwards}#e2mrekt7ef4a58{animation:e2mrekt7ef4a58_f_o 10000ms linear infinite normal forwards}#e2mrekt7ef4a59{animation:e2mrekt7ef4a59_f_o 10000ms linear infinite normal forwards}#e2mrekt7ef4a60{animation:e2mrekt7ef4a60_f_o 10000ms linear infinite normal forwards}#e2mrekt7ef4a61{animation:e2mrekt7ef4a61_f_o 10000ms linear infinite normal forwards}#e2mrekt7ef4a62{animation:e2mrekt7ef4a62_f_o 10000ms linear infinite normal forwards}#e2mrekt7ef4a63{animation:e2mrekt7ef4a63_f_o 10000ms linear infinite normal forwards}#e2mrekt7ef4a64{animation:e2mrekt7ef4a64_f_o 10000ms linear infinite normal forwards}#e2mrekt7ef4a65{animation:e2mrekt7ef4a65_f_o 10000ms linear infinite normal forwards}#e2mrekt7ef4a66{animation:e2mrekt7ef4a66_f_o 10000ms linear infinite normal forwards}#e2mrekt7ef4a67{animation:e2mrekt7ef4a67_f_o 10000ms linear infinite normal forwards}#e2mrekt7ef4a68{animation:e2mrekt7ef4a68_f_o 10000ms linear infinite normal forwards}#e2mrekt7ef4a69{animation:e2mrekt7ef4a69_f_o 10000ms linear infinite normal forwards}#e2mrekt7ef4a70{animation:e2mrekt7ef4a70_f_o 10000ms linear infinite normal forwards}#e2mrekt7ef4a71{animation:e2mrekt7ef4a71_f_o 10000ms linear infinite normal forwards}#e2mrekt7ef4a72{animation:e2mrekt7ef4a72_f_o 10000ms linear infinite normal forwards}#e2mrekt7ef4a73{animation:e2mrekt7ef4a73_f_o 10000ms linear infinite normal forwards}#e2mrekt7ef4a74{animation:e2mrekt7ef4a74_f_o 10000ms linear infinite normal forwards}#e2mrekt7ef4a75{animation:e2mrekt7ef4a75_f_o 10000ms linear infinite normal forwards}#e2mrekt7ef4a76{animation:e2mrekt7ef4a76_f_o 10000ms linear infinite normal forwards}#e2mrekt7ef4a77{animation:e2mrekt7ef4a77_f_o 10000ms linear infinite normal forwards}#e2mrekt7ef4a78{animation:e2mrekt7ef4a78_f_o 10000ms linear infinite normal forwards}#e2mrekt7ef4a79{animation:e2mrekt7ef4a79_f_o 10000ms linear infinite normal forwards}#e2mrekt7ef4a80{animation:e2mrekt7ef4a80_f_o 10000ms linear infinite normal forwards}#e2mrekt7ef4a81{animation:e2mrekt7ef4a81_f_o 10000ms linear infinite normal forwards}#e2mrekt7ef4a82{animation:e2mrekt7ef4a82_f_o 10000ms linear infinite normal forwards}#e2mrekt7ef4a83{animation:e2mrekt7ef4a83_f_o 10000ms linear infinite normal forwards}#e2mrekt7ef4a84{animation:e2mrekt7ef4a84_f_o 10000ms linear infinite normal forwards}#e2mrekt7ef4a85{animation:e2mrekt7ef4a85_f_o 10000ms linear infinite normal forwards}#e2mrekt7ef4a86{animation:e2mrekt7ef4a86_f_o 10000ms linear infinite normal forwards}#e2mrekt7ef4a87{animation:e2mrekt7ef4a87_f_o 10000ms linear infinite normal forwards}#e2mrekt7ef4a88{animation:e2mrekt7ef4a88_f_o 10000ms linear infinite normal forwards}#e2mrekt7ef4a89{animation:e2mrekt7ef4a89_f_o 10000ms linear infinite normal forwards}#e2mrekt7ef4a90{animation:e2mrekt7ef4a90_f_o 10000ms linear infinite normal forwards}#e2mrekt7ef4a91{animation:e2mrekt7ef4a91_f_o 10000ms linear infinite normal forwards}#e2mrekt7ef4a92{animation:e2mrekt7ef4a92_f_o 10000ms linear infinite normal forwards}</style><rect id="e2mrekt7ef4a2" width="1400" height="900" fill="#0E0333" stroke="none" stroke-width="1" rx="0" ry="0"/><g id="e2mrekt7ef4a3" transform="matrix(1 0 0 1 5.01999997999974 3.78500656000028)"><polygon id="e2mrekt7ef4a4" fill="#6F3FF5" fill-opacity="0" stroke="none" stroke-width="1" points="1347.63 807.85 1332.23 818.59 1330.66 799.95 1347.63 807.85" transform="matrix(1 0 0 1 0 21)"/><polygon id="e2mrekt7ef4a5" fill="#6F3FF5" fill-opacity="0" stroke="none" stroke-width="1" points="1238.51 810.3 1223.9 811.5 1230.15 798.31 1238.51 810.3" transform="matrix(1 0 0 1 0 21)"/><polygon id="e2mrekt7ef4a6" fill="#6F3FF5" fill-opacity="0" stroke="none" stroke-width="1" points="912.36 811.56 897.25 813.99 902.7 799.75 912.36 811.56" transform="matrix(1 0 0 1 0 21)"/><polygon id="e2mrekt7ef4a7" fill="#02E2AC" fill-opacity="0" stroke="none" stroke-width="1" points="831.85 769 827.49 780.65 819.61 771.08 831.85 769" transform="matrix(1 0 0 1 0 21)"/><polygon id="e2mrekt7ef4a8" fill="#02E2AC" fill-opacity="0" stroke="none" stroke-width="1" points="573.96 821.47 563.44 813.45 575.6 808.37 573.96 821.47" transform="matrix(1 0 0 1 0 21)"/><polygon id="e2mrekt7ef4a9" fill="#6F3FF5" fill-opacity="0" stroke="none" stroke-width="1" points="461.61 822.32 448.78 830.74 447.93 815.48 461.61 822.32" transform="matrix(1 0 0 1 0 21)"/><polygon id="e2mrekt7ef4a10" fill="#6F3FF5" fill-opacity="0" stroke="none" stroke-width="1" points="392.45 779.6 384.44 794.72 375.41 780.26 392.45 779.6" transform="matrix(1 0 0 1 0 21)"/><polygon id="e2mrekt7ef4a11" fill="#6F3FF5" fill-opacity="0" stroke="none" stroke-width="1" points="252 809.32 245.24 822.46 237.29 810.08 252 809.32" transform="matrix(1 0 0 1 -14.95500000000007 -32.45999999999981)"/><polygon id="e2mrekt7ef4a12" fill="#F35890" fill-opacity="0" stroke="none" stroke-width="1" points="132.88 812.37 133.9 821.07 125.83 817.63 132.88 812.37" transform="matrix(1 0 0 1 0 21)"/><polygon id="e2mrekt7ef4a13" fill="#02E2AC" fill-opacity="0" stroke="none" stroke-width="1" points="1405.02 693.11 1394.69 688.18 1404.09 681.72 1405.02 693.11" transform="matrix(1 0 0 1 0 21)"/><polygon id="e2mrekt7ef4a14" fill="#F35890" fill-opacity="0" stroke="none" stroke-width="1" points="1310.84 676.09 1300.16 678.16 1303.68 667.85 1310.84 676.09" transform="matrix(1 0 0 1 0 21)"/><polygon id="e2mrekt7ef4a15" fill="#F35890" fill-opacity="0" stroke="none" stroke-width="1" points="1161.76 705.11 1165.62 715.69 1154.5 713.77 1161.76 705.11" transform="matrix(1 0 0 1 0 21)"/><polygon id="e2mrekt7ef4a16" fill="#6F3FF5" fill-opacity="0" stroke="none" stroke-width="1" points="1104.74 678.32 1085.5 686.27 1088.25 665.71 1104.74 678.32" transform="matrix(1 0 0 1 0 21)"/><polygon id="e2mrekt7ef4a17" fill="#F35890" fill-opacity="0" stroke="none" stroke-width="1" points="980.85 679.88 970.68 682.01 973.89 672.12 980.85 679.88" transform="matrix(1 0 0 1 0 21)"/><polygon id="e2mrekt7ef4a18" fill="#6F3FF5" fill-opacity="0" stroke="none" stroke-width="1" points="744.69 705.96 729.47 713.35 730.7 696.54 744.69 705.96" transform="matrix(1 0 0 1 0 21)"/><polygon id="e2mrekt7ef4a19" fill="#6F3FF5" fill-opacity="0" stroke="none" stroke-width="1" points="665.47 673.39 657.22 661.63 671.48 660.39 665.47 673.39" transform="matrix(1 0 0 1 0 21)"/><polygon id="e2mrekt7ef4a20" fill="#F35890" fill-opacity="0" stroke="none" stroke-width="1" points="535.57 685.41 530.29 695.9 523.8 686.09 535.57 685.41" transform="matrix(1 0 0 1 0 21)"/><polygon id="e2mrekt7ef4a21" fill="#02E2AC" fill-opacity="0" stroke="none" stroke-width="1" points="421.5 701.71 407.44 709.26 407.93 693.37 421.5 701.71" transform="matrix(1 0 0 1 0 21)"/><polygon id="e2mrekt7ef4a22" fill="#F35890" fill-opacity="0" stroke="none" stroke-width="1" points="330.69 665.36 336.2 672.73 327.05 673.85 330.69 665.36" transform="matrix(1 0 0 1 0 21)"/><polygon id="e2mrekt7ef4a23" fill="#F35890" fill-opacity="0" stroke="none" stroke-width="1" points="189.29 694.81 200.04 701.12 189.2 707.32 189.29 694.81" transform="matrix(1 0 0 1 855.15500000000009 -486.47907800000007)"/><polygon id="e2mrekt7ef4a24" fill="#02E2AC" fill-opacity="0" stroke="none" stroke-width="1" points="108.17 695.07 96.19 684.49 111.29 679.42 108.17 695.07" transform="matrix(1 0 0 1 0 21)"/><polygon id="e2mrekt7ef4a25" fill="#6F3FF5" fill-opacity="0" stroke="none" stroke-width="1" points="1370.46 562.89 1364.24 549.57 1378.83 550.86 1370.46 562.89" transform="matrix(1 0 0 1 0 21)"/><polygon id="e2mrekt7ef4a26" fill="#6F3FF5" fill-opacity="0" stroke="none" stroke-width="1" points="1225.22 614.18 1209.92 603.18 1227.04 595.49 1225.22 614.18" transform="matrix(1 0 0 1 0 21)"/><polygon id="e2mrekt7ef4a27" fill="#02E2AC" fill-opacity="0" stroke="none" stroke-width="1" points="1031.53 579.38 1022.13 569.82 1035.06 566.48 1031.53 579.38" transform="matrix(1 0 0 1 0 21)"/><polygon id="e2mrekt7ef4a28" fill="#6F3FF5" fill-opacity="0" stroke="none" stroke-width="1" points="898.2 609.38 887.43 594.76 905.41 592.78 898.2 609.38" transform="matrix(1 0 0 1 0 21)"/><polygon id="e2mrekt7ef4a29" fill="#02E2AC" fill-opacity="0" stroke="none" stroke-width="1" points="784.28 607.43 777.04 594.77 791.57 594.83 784.28 607.43" transform="matrix(1 0 0 1 7.57431399999996 -401.71999999999991)"/><polygon id="e2mrekt7ef4a30" fill="#02E2AC" fill-opacity="0" stroke="none" stroke-width="1" points="697.69 580.51 692.93 594.89 682.9 583.62 697.69 580.51" transform="matrix(1 0 0 1 0 21)"/><polygon id="e2mrekt7ef4a31" fill="#6F3FF5" fill-opacity="0" stroke="none" stroke-width="1" points="470.18 612.36 454.39 599.3 473.54 592.22 470.18 612.36" transform="matrix(1 0 0 1 0 21)"/><polygon id="e2mrekt7ef4a32" fill="#F35890" fill-opacity="0" stroke="none" stroke-width="1" points="371.7 578.97 364.31 585.32 362.47 575.74 371.7 578.97" transform="matrix(1 0 0 1 0 21)"/><polygon id="e2mrekt7ef4a33" fill="#6F3FF5" fill-opacity="0" stroke="none" stroke-width="1" points="242.75 619.49 229.69 603.29 250.18 600.12 242.75 619.49" transform="matrix(1 0 0 1 0 21)"/><polygon id="e2mrekt7ef4a34" fill="#6F3FF5" fill-opacity="0" stroke="none" stroke-width="1" points="133.53 612.73 126.47 594.94 145.33 597.73 133.53 612.73" transform="matrix(1 0 0 1 0 21)"/><polygon id="e2mrekt7ef4a35" fill="#F35890" fill-opacity="0" stroke="none" stroke-width="1" points="1398.18 478.46 1388.82 479.37 1392.68 470.79 1398.18 478.46" transform="matrix(1 0 0 1 0 21)"/><polygon id="e2mrekt7ef4a36" fill="#F35890" fill-opacity="0" stroke="none" stroke-width="1" points="1304.24 457.14 1301.04 467 1294.07 459.31 1304.24 457.14" transform="matrix(1 0 0 1 0 21)"/><polygon id="e2mrekt7ef4a37" fill="#F35890" fill-opacity="0" stroke="none" stroke-width="1" points="1204.74 452.57 1195.58 457.87 1195.53 447.27 1204.74 452.57" transform="matrix(1 0 0 1 0 21)"/><polygon id="e2mrekt7ef4a38" fill="#02E2AC" fill-opacity="0" stroke="none" stroke-width="1" points="1105.26 451.76 1091.88 456.36 1094.58 442.53 1105.26 451.76" transform="matrix(1 0 0 1 0 21)"/><polygon id="e2mrekt7ef4a39" fill="#6F3FF5" fill-opacity="0" stroke="none" stroke-width="1" points="978.3 480.78 961.89 475.76 974.41 464.12 978.3 480.78" transform="matrix(1 0 0 1 0 21)"/><polygon id="e2mrekt7ef4a40" fill="#02E2AC" fill-opacity="0" stroke="none" stroke-width="1" points="835.67 497.5 826.44 505.71 823.95 493.66 835.67 497.5" transform="matrix(1 0 0 1 0 21)"/><polygon id="e2mrekt7ef4a41" fill="#F35890" fill-opacity="0" stroke="none" stroke-width="1" points="767.04 455.01 759.57 462.1 757.13 452.08 767.04 455.01" transform="matrix(1 0 0 1 0 21)"/><polygon id="e2mrekt7ef4a42" fill="#6F3FF5" fill-opacity="0" stroke="none" stroke-width="1" points="650.31 467.96 641.86 483.3 632.85 468.35 650.31 467.96" transform="matrix(1 0 0 1 0 21)"/><polygon id="e2mrekt7ef4a43" fill="#02E2AC" fill-opacity="0" stroke="none" stroke-width="1" points="518.56 487.93 513.07 501.06 504.48 489.77 518.56 487.93" transform="matrix(1 0 0 1 0 21)"/><polygon id="e2mrekt7ef4a44" fill="#02E2AC" fill-opacity="0" stroke="none" stroke-width="1" points="421.35 483.13 412.78 474.14 424.8 471.23 421.35 483.13" transform="matrix(1 0 0 1 0 21)"/><polygon id="e2mrekt7ef4a45" fill="#F35890" fill-opacity="0" stroke="none" stroke-width="1" points="325.86 451.57 332.75 457.66 324.03 460.62 325.86 451.57" transform="matrix(1 0 0 1 0 21)"/><polygon id="e2mrekt7ef4a46" fill="#6F3FF5" fill-opacity="0" stroke="none" stroke-width="1" points="203.18 489.5 192.16 479.62 206.18 475.05 203.18 489.5" transform="matrix(1 0 0 1 0 21)"/><polygon id="e2mrekt7ef4a47" fill="#6F3FF5" fill-opacity="0" stroke="none" stroke-width="1" points="124 460.29 113.11 449.89 127.51 445.7 124 460.29" transform="matrix(1 0 0 1 0 21)"/><polygon id="e2mrekt7ef4a48" fill="#F35890" fill-opacity="0" stroke="none" stroke-width="1" points="1248.95 348.39 1246.45 356.99 1240.22 350.52 1248.95 348.39" transform="matrix(1 0 0 1 0 21)"/><polygon id="e2mrekt7ef4a49" fill="#02E2AC" fill-opacity="0" stroke="none" stroke-width="1" points="1160.21 343.62 1146.3 348.17 1149.3 333.91 1160.21 343.62" transform="matrix(1 0 0 1 0 21)"/><polygon id="e2mrekt7ef4a50" fill="#02E2AC" fill-opacity="0" stroke="none" stroke-width="1" points="1024.22 361.19 1018.76 373.78 1010.62 362.8 1024.22 361.19" transform="matrix(1 0 0 1 0 21)"/><polygon id="e2mrekt7ef4a51" fill="#02E2AC" fill-opacity="0" stroke="none" stroke-width="1" points="825.92 354.94 815.43 342.36 831.51 339.58 825.92 354.94" transform="matrix(1 0 0 1 0 21)"/><polygon id="e2mrekt7ef4a52" fill="#F35890" fill-opacity="0" stroke="none" stroke-width="1" points="665.36 382.09 673.64 387.85 664.51 392.19 665.36 382.09" transform="matrix(1 0 0 1 0 21)"/><polygon id="e2mrekt7ef4a53" fill="#6F3FF5" fill-opacity="0" stroke="none" stroke-width="1" points="457.36 397.05 446.99 386.5 461.27 382.82 457.36 397.05" transform="matrix(1 0 0 1 0 21)"/><polygon id="e2mrekt7ef4a54" fill="#6F3FF5" fill-opacity="0" stroke="none" stroke-width="1" points="400.74 334.14 398.68 348.58 387.27 339.59 400.74 334.14" transform="matrix(1 0 0 1 0 21)"/><polygon id="e2mrekt7ef4a55" fill="#02E2AC" fill-opacity="0" stroke="none" stroke-width="1" points="272.23 364.9 259.63 363.61 267.03 353.38 272.23 364.9" transform="matrix(1 0 0 1 0 21)"/><polygon id="e2mrekt7ef4a56" fill="#6F3FF5" fill-opacity="0" stroke="none" stroke-width="1" points="1390.72 272.34 1381.01 290.19 1370.47 272.91 1390.72 272.34" transform="matrix(1 0 0 1 0 21)"/><polygon id="e2mrekt7ef4a57" fill="#02E2AC" fill-opacity="0" stroke="none" stroke-width="1" points="1316.23 240.1 1307.33 229.45 1320.95 227.08 1316.23 240.1" transform="matrix(1 0 0 1 0 21)"/><polygon id="e2mrekt7ef4a58" fill="#6F3FF5" fill-opacity="0" stroke="none" stroke-width="1" points="1213.68 236.17 1200.47 252.33 1193.14 232.87 1213.68 236.17" transform="matrix(1 0 0 1 0 21)"/><polygon id="e2mrekt7ef4a59" fill="#6F3FF5" fill-opacity="0" stroke="none" stroke-width="1" points="1058.2 286.15 1041.35 295.41 1041.78 276.26 1058.2 286.15" transform="matrix(1 0 0 1 0 21)"/><polygon id="e2mrekt7ef4a60" fill="#6F3FF5" fill-opacity="0" stroke="none" stroke-width="1" points="871.32 263.77 854.28 258.66 867.2 246.52 871.32 263.77" transform="matrix(1 0 0 1 0 21)"/><polygon id="e2mrekt7ef4a61" fill="#6F3FF5" fill-opacity="0" stroke="none" stroke-width="1" points="740.07 267.97 733.68 282.39 724.44 269.69 740.07 267.97" transform="matrix(1 0 0 1 0 21)"/><polygon id="e2mrekt7ef4a62" fill="#6F3FF5" fill-opacity="0" stroke="none" stroke-width="1" points="532.64 269.6 517.01 274.54 520.56 258.6 532.64 269.6" transform="matrix(1 0 0 1 0 21)"/><polygon id="e2mrekt7ef4a63" fill="#02E2AC" fill-opacity="0" stroke="none" stroke-width="1" points="455.48 235.25 443.86 231.49 452.9 223.34 455.48 235.25" transform="matrix(1 0 0 1 0 21)"/><polygon id="e2mrekt7ef4a64" fill="#02E2AC" fill-opacity="0" stroke="none" stroke-width="1" points="295.45 292.04 282.33 283.57 296.18 276.48 295.45 292.04" transform="matrix(1 0 0 1 0 21)"/><polygon id="e2mrekt7ef4a65" fill="#6F3FF5" fill-opacity="0" stroke="none" stroke-width="1" points="213.77 264.25 197.94 267.98 202.63 252.47 213.77 264.25" transform="matrix(1 0 0 1 0 21)"/><polygon id="e2mrekt7ef4a66" fill="#6F3FF5" fill-opacity="0" stroke="none" stroke-width="1" points="1337.38 172.05 1325.81 156.71 1344.81 154.4 1337.38 172.05" transform="matrix(1 0 0 1 0 21)"/><polygon id="e2mrekt7ef4a67" fill="#02E2AC" fill-opacity="0" stroke="none" stroke-width="1" points="1144.06 140.58 1134.16 135.02 1143.89 129.25 1144.06 140.58" transform="matrix(1 0 0 1 0 21)"/><polygon id="e2mrekt7ef4a68" fill="#02E2AC" fill-opacity="0" stroke="none" stroke-width="1" points="934.04 137.38 920.31 138.89 925.86 126.29 934.04 137.38" transform="matrix(1 0 0 1 0 21)"/><polygon id="e2mrekt7ef4a69" fill="#F35890" fill-opacity="0" stroke="none" stroke-width="1" points="808.22 131.41 817.79 138.59 806.79 143.33 808.22 131.41" transform="matrix(1 0 0 1 -153.44000000000005 101.00999999999999)"/><polygon id="e2mrekt7ef4a70" fill="#F35890" fill-opacity="0" stroke="none" stroke-width="1" points="592.58 136.31 593.74 145.6 585.09 141.99 592.58 136.31" transform="matrix(1 0 0 1 0 21)"/><polygon id="e2mrekt7ef4a71" fill="#02E2AC" fill-opacity="0" stroke="none" stroke-width="1" points="477.5 149.4 470.7 161.55 463.61 149.64 477.5 149.4" transform="matrix(1 0 0 1 0 21)"/><polygon id="e2mrekt7ef4a72" fill="#6F3FF5" fill-opacity="0" stroke="none" stroke-width="1" points="384.53 153.01 365.53 157.9 370.8 139.08 384.53 153.01" transform="matrix(1 0 0 1 0 21)"/><polygon id="e2mrekt7ef4a73" fill="#6F3FF5" fill-opacity="0" stroke="none" stroke-width="1" points="273.06 144.87 259.62 154.3 258.2 138 273.06 144.87" transform="matrix(1 0 0 1 0 21)"/><polygon id="e2mrekt7ef4a74" fill="#02E2AC" fill-opacity="0" stroke="none" stroke-width="1" points="185.66 129.12 172.87 122.83 184.67 114.94 185.66 129.12" transform="matrix(1 0 0 1 0 21)"/><polygon id="e2mrekt7ef4a75" fill="#6F3FF5" fill-opacity="0" stroke="none" stroke-width="1" points="1401.85 52.17 1386.35 53.87 1392.63 39.66 1401.85 52.17" transform="matrix(1 0 0 1 0 21)"/><polygon id="e2mrekt7ef4a76" fill="#F35890" fill-opacity="0" stroke="none" stroke-width="1" points="1275.72 50.45 1274.99 59.88 1267.16 54.55 1275.72 50.45" transform="matrix(1 0 0 1 0 21)"/><polygon id="e2mrekt7ef4a77" fill="#6F3FF5" fill-opacity="0" stroke="none" stroke-width="1" points="1181.5 54.83 1170.28 42.39 1186.6 38.93 1181.5 54.83" transform="matrix(1 0 0 1 0 21)"/><polygon id="e2mrekt7ef4a78" fill="#02E2AC" fill-opacity="0" stroke="none" stroke-width="1" points="1097.25 29.21 1086.05 19.67 1099.86 14.76 1097.25 29.21" transform="matrix(1 0 0 1 0 21)"/><polygon id="e2mrekt7ef4a79" fill="#02E2AC" fill-opacity="0" stroke="none" stroke-width="1" points="969.55 49.35 957.07 42.9 968.85 35.34 969.55 49.35" transform="matrix(1 0 0 1 0 21)"/><polygon id="e2mrekt7ef4a80" fill="#6F3FF5" fill-opacity="0" stroke="none" stroke-width="1" points="762.2 28.38 759.02 43.88 747.23 33.4 762.2 28.38" transform="matrix(1 0 0 1 68.20000000000027 52.78000000000000)"/><polygon id="e2mrekt7ef4a81" fill="#02E2AC" fill-opacity="0" stroke="none" stroke-width="1" points="661.03 33.12 648.39 26.35 660.53 18.82 661.03 33.12" transform="matrix(1 0 0 1 42.97999999999979 54.90999999999998)"/><polygon id="e2mrekt7ef4a82" fill="#6F3FF5" fill-opacity="0" stroke="none" stroke-width="1" points="547.77 38.41 533.67 36.19 542.62 25.14 547.77 38.41" transform="matrix(1 0 0 1 0 21)"/><polygon id="e2mrekt7ef4a83" fill="#F35890" fill-opacity="0" stroke="none" stroke-width="1" points="324.1 24.39 328.52 34.41 317.62 33.26 324.1 24.39" transform="matrix(1 0 0 1 0 21)"/><polygon id="e2mrekt7ef4a84" fill="#F35890" fill-opacity="0" stroke="none" stroke-width="1" points="192.01 48.87 197.05 60.16 184.74 58.91 192.01 48.87" transform="matrix(1 0 0 1 0 21)"/><polygon id="e2mrekt7ef4a85" fill="#6F3FF5" fill-opacity="0" stroke="none" stroke-width="1" points="109.78 37.26 96.49 47.53 94.27 30.94 109.78 37.26" transform="matrix(1 0 0 1 0 21)"/><polygon id="e2mrekt7ef4a86" fill="#6F3FF5" fill-opacity="0" stroke="none" stroke-width="1" points="1.68 40.21 -5.02 21.83 14.17 25.23 1.68 40.21" transform="matrix(1 0 0 1 0 21)"/><polygon id="e2mrekt7ef4a87" fill="#02E2AC" fill-opacity="0" stroke="none" stroke-width="1" points="42.21 808.42 34.08 797.09 47.91 795.72 42.21 808.42" transform="matrix(1 0 0 1 0 21)"/><polygon id="e2mrekt7ef4a88" fill="#F35890" fill-opacity="0" stroke="none" stroke-width="1" points="30.25 587.58 36.48 596.74 25.43 597.59 30.25 587.58" transform="matrix(1 0 0 1 0 21)"/><polygon id="e2mrekt7ef4a89" fill="#02E2AC" fill-opacity="0" stroke="none" stroke-width="1" points="30.89 394.56 16.32 390.36 27.21 379.89 30.89 394.56" transform="matrix(1 0 0 1 0 21)"/><polygon id="e2mrekt7ef4a90" fill="#F35890" fill-opacity="0" stroke="none" stroke-width="1" points="8.81 231.4 12.8 241.31 2.21 239.84 8.81 231.4" transform="matrix(1 0 0 1 0 21)"/><polygon id="e2mrekt7ef4a91" fill="#02E2AC" fill-opacity="0" stroke="none" stroke-width="1" points="42.13 160.59 29.62 160.57 35.88 149.79 42.13 160.59" transform="matrix(1 0 0 1 0 21)"/><polygon id="e2mrekt7ef4a92" fill="#6F3FF5" fill-opacity="0" stroke="none" stroke-width="1" points="81.55 294.47 64.87 288.56 78.3 277.14 81.55 294.47" transform="matrix(1 0 0 1 0 21)"/></g></svg>