<svg xmlns="http://www.w3.org/2000/svg" xmlns:xlink="http://www.w3.org/1999/xlink" id="e79t2fjunr9u1" width="700" height="700" shape-rendering="geometricPrecision" text-rendering="geometricPrecision" viewBox="0 0 700 700"><style>@keyframes e79t2fjunr9u2_tr__tr{0%{transform:translate(351.25px,351.75px) rotate(0deg);animation-timing-function:cubic-bezier(.68,-.55,.265,1.55)}70%{transform:translate(351.25px,351.75px) rotate(90deg)}}@keyframes e79t2fjunr9u5_tr__tr{0%{transform:translate(351.250008px,351.750008px) rotate(0deg);animation-timing-function:cubic-bezier(.68,-.55,.265,1.55)}74%{transform:translate(351.250008px,351.750008px) rotate(90deg)}}@keyframes e79t2fjunr9u6_tr__tr{0%{transform:translate(351.25px,351.755005px) rotate(0deg);animation-timing-function:cubic-bezier(.68,-.55,.265,1.55)}78%{transform:translate(351.25px,351.755005px) rotate(90deg)}}#e79t2fjunr9u2_tr{animation:e79t2fjunr9u2_tr__tr 5000ms linear infinite normal forwards}#e79t2fjunr9u5_tr{animation:e79t2fjunr9u5_tr__tr 5000ms linear infinite normal forwards}#e79t2fjunr9u6_tr{animation:e79t2fjunr9u6_tr__tr 5000ms linear infinite normal forwards}</style><g id="e79t2fjunr9u2_tr" transform="translate(351.250000,351.750000) rotate(0)"><g id="e79t2fjunr9u2" transform="translate(-351.250000,-351.750000)"><rect id="e79t2fjunr9u3" width="33.4" height="160" fill="#6F3FF5" stroke="none" stroke-width="1" rx="0" ry="0" transform="matrix(1 0 0 1 334.55000000000001 271.75000000000000)"/><rect id="e79t2fjunr9u4" width="33.4" height="160" fill="#6F3FF5" stroke="none" stroke-width="1" rx="0" ry="0" transform="matrix(0 1 -1 0 431.25000000000000 335.05000000000001)"/></g></g><g id="e79t2fjunr9u5_tr" transform="translate(351.250008,351.750008) rotate(0)"><polygon id="e79t2fjunr9u5" fill="none" stroke="#F35890" stroke-miterlimit="10" stroke-width="4" points="453.26 390.47 453.26 313.04 389.97 313.04 389.97 249.74 312.54 249.74 312.54 313.04 249.24 313.04 249.24 390.47 312.54 390.47 312.54 453.76 389.97 453.76 389.97 390.47 453.26 390.47" transform="translate(-351.250008,-351.750008)"/></g><g id="e79t2fjunr9u6_tr" transform="translate(351.250000,351.755005) rotate(0)"><polygon id="e79t2fjunr9u6" fill="none" stroke="#02E2AC" stroke-miterlimit="10" stroke-width="4" points="441.26 378.46 441.26 325.04 377.96 325.04 377.96 261.75 324.54 261.75 324.54 325.04 261.24 325.04 261.25 378.46 324.54 378.46 324.54 441.76 377.96 441.76 377.96 378.46 441.26 378.46" transform="translate(-351.250000,-351.755005)"/></g></svg>