<svg xmlns="http://www.w3.org/2000/svg" xmlns:xlink="http://www.w3.org/1999/xlink" id="eu8733ptd771" width="700" height="700" shape-rendering="geometricPrecision" text-rendering="geometricPrecision" viewBox="0 0 700 700"><style>@keyframes eu8733ptd772_f_p{0%{fill:#6f3ff5}89.189189%{fill:#6f3ff5;animation-timing-function:cubic-bezier(.42,0,.58,1)}94.594595%{fill:#f35890;animation-timing-function:cubic-bezier(.42,0,.58,1)}}@keyframes eu8733ptd773_f_p{0%,97.297297%{fill:#6f3ff5}86.486486%{fill:#6f3ff5;animation-timing-function:cubic-bezier(.42,0,.58,1)}91.891892%{fill:#f35890;animation-timing-function:cubic-bezier(.42,0,.58,1)}}@keyframes eu8733ptd774_f_p{0%,94.594595%{fill:#6f3ff5}83.783784%{fill:#6f3ff5;animation-timing-function:cubic-bezier(.42,0,.58,1)}89.189189%{fill:#f35890;animation-timing-function:cubic-bezier(.42,0,.58,1)}}@keyframes eu8733ptd775_f_p{0%,91.891892%{fill:#6f3ff5}81.081081%{fill:#6f3ff5;animation-timing-function:cubic-bezier(.42,0,.58,1)}86.486486%{fill:#f35890;animation-timing-function:cubic-bezier(.42,0,.58,1)}}@keyframes eu8733ptd776_f_p{0%,89.189189%{fill:#6f3ff5}78.378378%{fill:#6f3ff5;animation-timing-function:cubic-bezier(.42,0,.58,1)}83.783784%{fill:#f35890;animation-timing-function:cubic-bezier(.42,0,.58,1)}}@keyframes eu8733ptd777_f_p{0%,86.486486%{fill:#6f3ff5}75.675676%{fill:#6f3ff5;animation-timing-function:cubic-bezier(.42,0,.58,1)}81.081081%{fill:#f35890;animation-timing-function:cubic-bezier(.42,0,.58,1)}}@keyframes eu8733ptd778_f_p{0%,83.783784%{fill:#6f3ff5}72.972973%{fill:#6f3ff5;animation-timing-function:cubic-bezier(.42,0,.58,1)}78.378378%{fill:#f35890;animation-timing-function:cubic-bezier(.42,0,.58,1)}}@keyframes eu8733ptd779_f_p{0%,81.081081%{fill:#6f3ff5}70.27027%{fill:#6f3ff5;animation-timing-function:cubic-bezier(.42,0,.58,1)}75.675676%{fill:#f35890;animation-timing-function:cubic-bezier(.42,0,.58,1)}}@keyframes eu8733ptd7710_f_p{0%,78.378378%{fill:#6f3ff5}67.567568%{fill:#6f3ff5;animation-timing-function:cubic-bezier(.42,0,.58,1)}72.972973%{fill:#f35890;animation-timing-function:cubic-bezier(.42,0,.58,1)}}@keyframes eu8733ptd7711_f_p{0%,75.675676%{fill:#6f3ff5}64.864865%{fill:#6f3ff5;animation-timing-function:cubic-bezier(.42,0,.58,1)}70.27027%{fill:#f35890;animation-timing-function:cubic-bezier(.42,0,.58,1)}}@keyframes eu8733ptd7712_f_p{0%,72.972973%{fill:#6f3ff5}62.162162%{fill:#6f3ff5;animation-timing-function:cubic-bezier(.42,0,.58,1)}67.567568%{fill:#f35890;animation-timing-function:cubic-bezier(.42,0,.58,1)}}@keyframes eu8733ptd7713_f_p{0%,70.27027%{fill:#6f3ff5}59.459459%{fill:#6f3ff5;animation-timing-function:cubic-bezier(.42,0,.58,1)}64.864865%{fill:#f35890;animation-timing-function:cubic-bezier(.42,0,.58,1)}}@keyframes eu8733ptd7714_f_p{0%,67.567568%{fill:#6f3ff5}56.756757%{fill:#6f3ff5;animation-timing-function:cubic-bezier(.42,0,.58,1)}62.162162%{fill:#f35890;animation-timing-function:cubic-bezier(.42,0,.58,1)}}@keyframes eu8733ptd7715_f_p{0%,64.864865%{fill:#6f3ff5}54.054054%{fill:#6f3ff5;animation-timing-function:cubic-bezier(.42,0,.58,1)}59.459459%{fill:#f35890;animation-timing-function:cubic-bezier(.42,0,.58,1)}}@keyframes eu8733ptd7716_f_p{0%,62.162162%{fill:#6f3ff5}51.351351%{fill:#6f3ff5;animation-timing-function:cubic-bezier(.42,0,.58,1)}56.756757%{fill:#f35890;animation-timing-function:cubic-bezier(.42,0,.58,1)}}@keyframes eu8733ptd7717_f_p{0%,59.459459%{fill:#6f3ff5}48.648649%{fill:#6f3ff5;animation-timing-function:cubic-bezier(.42,0,.58,1)}54.054054%{fill:#f35890;animation-timing-function:cubic-bezier(.42,0,.58,1)}}@keyframes eu8733ptd7718_f_p{0%,56.756757%{fill:#6f3ff5}45.945946%{fill:#6f3ff5;animation-timing-function:cubic-bezier(.42,0,.58,1)}51.351351%{fill:#f35890;animation-timing-function:cubic-bezier(.42,0,.58,1)}}@keyframes eu8733ptd7719_f_p{0%,54.054054%{fill:#6f3ff5}43.243243%{fill:#6f3ff5;animation-timing-function:cubic-bezier(.42,0,.58,1)}48.648649%{fill:#02e2ac;animation-timing-function:cubic-bezier(.42,0,.58,1)}}@keyframes eu8733ptd7720_f_p{0%,51.351351%{fill:#6f3ff5}40.540541%{fill:#6f3ff5;animation-timing-function:cubic-bezier(.42,0,.58,1)}45.945946%{fill:#02e2ac;animation-timing-function:cubic-bezier(.42,0,.58,1)}}@keyframes eu8733ptd7721_f_p{0%,48.648649%{fill:#6f3ff5}37.837838%{fill:#6f3ff5;animation-timing-function:cubic-bezier(.42,0,.58,1)}43.243243%{fill:#02e2ac;animation-timing-function:cubic-bezier(.42,0,.58,1)}}@keyframes eu8733ptd7722_f_p{0%,45.945946%{fill:#6f3ff5}35.135135%{fill:#6f3ff5;animation-timing-function:cubic-bezier(.42,0,.58,1)}40.540541%{fill:#02e2ac;animation-timing-function:cubic-bezier(.42,0,.58,1)}}@keyframes eu8733ptd7723_f_p{0%,43.243243%{fill:#6f3ff5}32.432432%{fill:#6f3ff5;animation-timing-function:cubic-bezier(.42,0,.58,1)}37.837838%{fill:#02e2ac;animation-timing-function:cubic-bezier(.42,0,.58,1)}}@keyframes eu8733ptd7724_f_p{0%,40.540541%{fill:#6f3ff5}29.72973%{fill:#6f3ff5;animation-timing-function:cubic-bezier(.42,0,.58,1)}35.135135%{fill:#02e2ac;animation-timing-function:cubic-bezier(.42,0,.58,1)}}@keyframes eu8733ptd7725_f_p{0%,37.837838%{fill:#6f3ff5}27.027027%{fill:#6f3ff5;animation-timing-function:cubic-bezier(.42,0,.58,1)}32.432432%{fill:#02e2ac;animation-timing-function:cubic-bezier(.42,0,.58,1)}}@keyframes eu8733ptd7726_f_p{0%,35.135135%{fill:#6f3ff5}24.324324%{fill:#6f3ff5;animation-timing-function:cubic-bezier(.42,0,.58,1)}29.72973%{fill:#02e2ac;animation-timing-function:cubic-bezier(.42,0,.58,1)}}@keyframes eu8733ptd7727_f_p{0%,32.432432%{fill:#6f3ff5}21.621622%{fill:#6f3ff5;animation-timing-function:cubic-bezier(.42,0,.58,1)}27.027027%{fill:#02e2ac;animation-timing-function:cubic-bezier(.42,0,.58,1)}}@keyframes eu8733ptd7728_f_p{0%,29.72973%{fill:#6f3ff5}18.918919%{fill:#6f3ff5;animation-timing-function:cubic-bezier(.42,0,.58,1)}24.324324%{fill:#02e2ac;animation-timing-function:cubic-bezier(.42,0,.58,1)}}@keyframes eu8733ptd7729_f_p{0%,27.027027%{fill:#6f3ff5}16.216216%{fill:#6f3ff5;animation-timing-function:cubic-bezier(.42,0,.58,1)}21.621622%{fill:#02e2ac;animation-timing-function:cubic-bezier(.42,0,.58,1)}}@keyframes eu8733ptd7730_f_p{0%,24.324324%{fill:#6f3ff5}13.513514%{fill:#6f3ff5;animation-timing-function:cubic-bezier(.42,0,.58,1)}18.918919%{fill:#02e2ac;animation-timing-function:cubic-bezier(.42,0,.58,1)}}@keyframes eu8733ptd7731_f_p{0%,21.621622%{fill:#6f3ff5}10.810811%{fill:#6f3ff5;animation-timing-function:cubic-bezier(.42,0,.58,1)}16.216216%{fill:#02e2ac;animation-timing-function:cubic-bezier(.42,0,.58,1)}}@keyframes eu8733ptd7732_f_p{0%,18.918919%{fill:#6f3ff5}8.108108%{fill:#6f3ff5;animation-timing-function:cubic-bezier(.42,0,.58,1)}13.513514%{fill:#02e2ac;animation-timing-function:cubic-bezier(.42,0,.58,1)}}@keyframes eu8733ptd7733_f_p{0%,16.216216%{fill:#6f3ff5}5.405405%{fill:#6f3ff5;animation-timing-function:cubic-bezier(.42,0,.58,1)}10.810811%{fill:#02e2ac;animation-timing-function:cubic-bezier(.42,0,.58,1)}}@keyframes eu8733ptd7734_f_p{0%,13.513514%{fill:#6f3ff5}2.702703%{fill:#6f3ff5;animation-timing-function:cubic-bezier(.42,0,.58,1)}8.108108%{fill:#02e2ac;animation-timing-function:cubic-bezier(.42,0,.58,1)}}@keyframes eu8733ptd7735_f_p{0%{fill:#6f3ff5;animation-timing-function:cubic-bezier(.42,0,.58,1)}5.405405%{fill:#02e2ac;animation-timing-function:cubic-bezier(.42,0,.58,1)}10.810811%{fill:#6f3ff5}}#eu8733ptd772{animation:eu8733ptd772_f_p 3700ms linear infinite normal forwards}#eu8733ptd773{animation:eu8733ptd773_f_p 3700ms linear infinite normal forwards}#eu8733ptd774{animation:eu8733ptd774_f_p 3700ms linear infinite normal forwards}#eu8733ptd775{animation:eu8733ptd775_f_p 3700ms linear infinite normal forwards}#eu8733ptd776{animation:eu8733ptd776_f_p 3700ms linear infinite normal forwards}#eu8733ptd777{animation:eu8733ptd777_f_p 3700ms linear infinite normal forwards}#eu8733ptd778{animation:eu8733ptd778_f_p 3700ms linear infinite normal forwards}#eu8733ptd779{animation:eu8733ptd779_f_p 3700ms linear infinite normal forwards}#eu8733ptd7710{animation:eu8733ptd7710_f_p 3700ms linear infinite normal forwards}#eu8733ptd7711{animation:eu8733ptd7711_f_p 3700ms linear infinite normal forwards}#eu8733ptd7712{animation:eu8733ptd7712_f_p 3700ms linear infinite normal forwards}#eu8733ptd7713{animation:eu8733ptd7713_f_p 3700ms linear infinite normal forwards}#eu8733ptd7714{animation:eu8733ptd7714_f_p 3700ms linear infinite normal forwards}#eu8733ptd7715{animation:eu8733ptd7715_f_p 3700ms linear infinite normal forwards}#eu8733ptd7716{animation:eu8733ptd7716_f_p 3700ms linear infinite normal forwards}#eu8733ptd7717{animation:eu8733ptd7717_f_p 3700ms linear infinite normal forwards}#eu8733ptd7718{animation:eu8733ptd7718_f_p 3700ms linear infinite normal forwards}#eu8733ptd7719{animation:eu8733ptd7719_f_p 3700ms linear infinite normal forwards}#eu8733ptd7720{animation:eu8733ptd7720_f_p 3700ms linear infinite normal forwards}#eu8733ptd7721{animation:eu8733ptd7721_f_p 3700ms linear infinite normal forwards}#eu8733ptd7722{animation:eu8733ptd7722_f_p 3700ms linear infinite normal forwards}#eu8733ptd7723{animation:eu8733ptd7723_f_p 3700ms linear infinite normal forwards}#eu8733ptd7724{animation:eu8733ptd7724_f_p 3700ms linear infinite normal forwards}#eu8733ptd7725{animation:eu8733ptd7725_f_p 3700ms linear infinite normal forwards}#eu8733ptd7726{animation:eu8733ptd7726_f_p 3700ms linear infinite normal forwards}#eu8733ptd7727{animation:eu8733ptd7727_f_p 3700ms linear infinite normal forwards}#eu8733ptd7728{animation:eu8733ptd7728_f_p 3700ms linear infinite normal forwards}#eu8733ptd7729{animation:eu8733ptd7729_f_p 3700ms linear infinite normal forwards}#eu8733ptd7730{animation:eu8733ptd7730_f_p 3700ms linear infinite normal forwards}#eu8733ptd7731{animation:eu8733ptd7731_f_p 3700ms linear infinite normal forwards}#eu8733ptd7732{animation:eu8733ptd7732_f_p 3700ms linear infinite normal forwards}#eu8733ptd7733{animation:eu8733ptd7733_f_p 3700ms linear infinite normal forwards}#eu8733ptd7734{animation:eu8733ptd7734_f_p 3700ms linear infinite normal forwards}#eu8733ptd7735{animation:eu8733ptd7735_f_p 3700ms linear infinite normal forwards}</style><path id="eu8733ptd772" fill="#6F3FF5" stroke="none" stroke-width="1" d="M515.900000,235.300000L508,258L452.500000,258L457.200000,235.300000L515.900000,235.300000ZM242.800000,235.300000L184.100000,235.300000L192,258L247.500000,258L242.800000,235.300000Z"/><path id="eu8733ptd773" fill="#6F3FF5" stroke="none" stroke-width="1" d="M451.700000,262L506.700000,262L499.800000,281.700000L447.600000,281.700000L451.700000,262ZM248.300000,262L193.300000,262L200.200000,281.700000L252.400000,281.700000L248.300000,262Z"/><path id="eu8733ptd774" fill="#6F3FF5" stroke="none" stroke-width="1" d="M446.700000,285.600000L498.400000,285.600000L492.400000,302.800000L443.100000,302.800000L446.700000,285.600000ZM253.300000,285.600000L201.600000,285.600000L207.600000,302.800000L256.900000,302.800000L253.300000,285.600000Z"/><path id="eu8733ptd775" fill="#6F3FF5" stroke="none" stroke-width="1" d="M442.300000,306.800000L491,306.800000L485.700000,321.900000L439.100000,321.900000L442.300000,306.800000ZM257.700000,306.800000L209,306.800000L214.300000,321.900000L260.900000,321.900000L257.700000,306.800000Z"/><path id="eu8733ptd776" fill="#6F3FF5" stroke="none" stroke-width="1" d="M438.300000,326L484.300000,326L479.700000,339.200000L435.500000,339.200000L438.300000,326ZM261.700000,326L215.700000,326L220.300000,339.200000L264.500000,339.200000L261.700000,326Z"/><path id="eu8733ptd777" fill="#6F3FF5" stroke="none" stroke-width="1" d="M434.700000,343.100000L478.300000,343.100000L474.200000,354.800000L432.200000,354.800000L434.700000,343.100000ZM265.300000,343.100000L221.700000,343.100000L225.800000,354.800000L267.800000,354.800000L265.300000,343.100000Z"/><path id="eu8733ptd778" fill="#6F3FF5" stroke="none" stroke-width="1" d="M431.400000,358.800000L472.900000,358.800000L469.300000,369.200000L429.300000,369.200000L431.400000,358.800000ZM268.600000,358.800000L227.100000,358.800000L230.700000,369.200000L270.700000,369.200000L268.600000,358.800000Z"/><path id="eu8733ptd779" fill="#6F3FF5" stroke="none" stroke-width="1" d="M428.400000,373.300000L467.900000,373.300000L464.700000,382.400000L426.500000,382.400000L428.400000,373.300000ZM271.600000,373.300000L232.100000,373.300000L235.300000,382.400000L273.500000,382.400000L271.600000,373.300000Z"/><path id="eu8733ptd7710" fill="#6F3FF5" stroke="none" stroke-width="1" d="M425.700000,386.300000L463.300000,386.300000L460.500000,394.400000L460.500000,394.400000L424,394.400000L424,394.400000L425.700000,386.300000ZM276,394.400000L274.300000,386.300000L236.700000,386.300000L239.500000,394.400000L239.500000,394.400000L276,394.400000L276,394.400000Z"/><path id="eu8733ptd7711" fill="#6F3FF5" stroke="none" stroke-width="1" d="M423.100000,398.500000L459,398.500000L456.500000,405.600000L421.600000,405.600000L423.100000,398.500000ZM276.900000,398.500000L241,398.500000L243.500000,405.600000L278.400000,405.600000L276.900000,398.500000Z"/><path id="eu8733ptd7712" fill="#6F3FF5" stroke="none" stroke-width="1" d="M420.800000,409.600000L455.200000,409.600000L453,416L421.800000,416L419.800000,416L419.600000,416L419.700000,415.400000L420.700000,410.400000L420.800000,409.600000ZM280.200000,415.900000L280.500000,415.900000L280.400000,415.200000L279.400000,410.200000L279.200000,409.500000L244.800000,409.500000L247,415.900000L278.200000,415.900000L280.200000,415.900000Z"/><path id="eu8733ptd7713" fill="#6F3FF5" stroke="none" stroke-width="1" d="M422.600000,420L451.600000,420L449.600000,425.600000L423.800000,425.600000L423.800000,425.600000L421.800000,425.600000L419.800000,425.600000L417.600000,425.600000L418.700000,420.300000L418.800000,420L420.700000,420L422.600000,420ZM276.200000,425.600000L278.200000,425.600000L280.200000,425.600000L282.500000,425.600000L281.400000,420.200000L281.300000,420L279.400000,420L277.400000,420L248.500000,420L250.500000,425.600000L276.200000,425.600000L276.200000,425.600000Z"/><path id="eu8733ptd7714" fill="#6F3FF5" stroke="none" stroke-width="1" d="M424.600000,429.600000L448.200000,429.600000L446.500000,434.500000L425.600000,434.500000L425.600000,434.500000L423.600000,434.500000L421.600000,434.500000L415.600000,434.500000L416.600000,429.600000L420.500000,429.600000L422.500000,429.600000L424.600000,429.600000L424.600000,429.600000ZM274.300000,434.400000L276.300000,434.400000L278.300000,434.400000L284.300000,434.400000L283.300000,429.500000L279.300000,429.500000L277.300000,429.500000L275.300000,429.500000L275.300000,429.500000L251.700000,429.500000L253.400000,434.400000L274.300000,434.400000L274.300000,434.400000Z"/><path id="eu8733ptd7715" fill="#6F3FF5" stroke="none" stroke-width="1" d="M426.500000,438.400000L445.100000,438.400000L443.600000,442.700000L427.400000,442.700000L427.400000,442.700000L425.400000,442.700000L423.400000,442.700000L414,442.700000L414.900000,438.400000L422.500000,438.400000L424.500000,438.400000L426.500000,438.400000L426.500000,438.400000ZM272.600000,442.800000L274.600000,442.800000L276.600000,442.800000L286.100000,442.800000L285.200000,438.500000L277.500000,438.500000L275.500000,438.500000L273.500000,438.500000L273.500000,438.500000L254.900000,438.500000L256.400000,442.800000L272.600000,442.800000L272.600000,442.800000Z"/><path id="eu8733ptd7716" fill="#6F3FF5" stroke="none" stroke-width="1" d="M428.200000,446.800000L442.200000,446.800000L440.900000,450.600000L429,450.600000L429,450.600000L427,450.600000L425,450.600000L412.300000,450.600000L413.100000,446.800000L424.200000,446.800000L426.200000,446.800000L428.200000,446.800000L428.200000,446.800000ZM270.900000,450.600000L272.900000,450.600000L274.900000,450.600000L287.700000,450.600000L286.900000,446.800000L275.800000,446.800000L273.800000,446.800000L271.800000,446.800000L271.800000,446.800000L257.800000,446.800000L259.100000,450.600000L270.900000,450.600000L270.900000,450.600000Z"/><path id="eu8733ptd7717" fill="#6F3FF5" stroke="none" stroke-width="1" d="M429.900000,454.600000L439.500000,454.600000L438.400000,457.900000L430.600000,457.900000L430.600000,457.900000L428.600000,457.900000L426.600000,457.900000L410.800000,457.900000L411.500000,454.600000L425.900000,454.600000L427.900000,454.600000L429.900000,454.600000L429.900000,454.600000ZM269.400000,457.800000L271.400000,457.800000L273.400000,457.800000L289.200000,457.800000L288.500000,454.500000L274.100000,454.500000L272.100000,454.500000L270.100000,454.500000L270.100000,454.500000L260.500000,454.500000L261.600000,457.800000L269.400000,457.800000L269.400000,457.800000Z"/><path id="eu8733ptd7718" fill="#6F3FF5" stroke="none" stroke-width="1" d="M431.400000,461.800000L437,461.800000L436,464.700000L432,464.700000L430,464.700000L428,464.700000L409.300000,464.700000L409.900000,461.800000L427.300000,461.800000L429.300000,461.800000L431.400000,461.800000L431.400000,461.800000ZM272.700000,461.800000L270.700000,461.800000L268.700000,461.800000L268.700000,461.800000L263,461.800000L264,464.700000L267.900000,464.700000L269.900000,464.700000L271.900000,464.700000L290.600000,464.700000L290,461.800000L272.700000,461.800000Z"/><path id="eu8733ptd7719" fill="#6F3FF5" stroke="none" stroke-width="1" d="M400.200000,461.800000L405.800000,461.800000L405.200000,464.700000L401.200000,464.700000L400.200000,461.800000ZM294.800000,464.700000L298.700000,464.700000L299.700000,461.800000L294.100000,461.800000L294.800000,464.700000Z"/><path id="eu8733ptd7720" fill="#6F3FF5" stroke="none" stroke-width="1" d="M407.300000,454.600000L407.300000,454.600000L406.600000,457.900000L398.800000,457.900000L397.700000,454.600000L407.300000,454.600000ZM292.700000,454.600000L293.400000,457.900000L301.200000,457.900000L302.300000,454.600000L292.700000,454.600000L292.700000,454.600000Z"/><path id="eu8733ptd7721" fill="#6F3FF5" stroke="none" stroke-width="1" d="M394.900000,446.800000L408.900000,446.800000L408.100000,450.600000L408.100000,450.600000L396.300000,450.600000L394.900000,446.800000ZM291.900000,450.600000L291.900000,450.600000L303.700000,450.600000L305,446.800000L291,446.800000L291.900000,450.600000Z"/><path id="eu8733ptd7722" fill="#6F3FF5" stroke="none" stroke-width="1" d="M409.800000,442.800000L393.600000,442.800000L392.100000,438.500000L410.700000,438.500000L410.700000,438.500000L409.800000,442.800000ZM289.300000,438.400000L290.200000,442.700000L306.400000,442.700000L307.900000,438.400000L289.300000,438.400000L289.300000,438.400000Z"/><path id="eu8733ptd7723" fill="#6F3FF5" stroke="none" stroke-width="1" d="M411.500000,434.400000L390.600000,434.400000L388.900000,429.500000L412.500000,429.500000L412.500000,429.500000L411.500000,434.400000L411.500000,434.400000ZM287.500000,429.600000L288.500000,434.500000L288.500000,434.500000L309.300000,434.500000L311,429.600000L287.500000,429.600000L287.500000,429.600000Z"/><path id="eu8733ptd7724" fill="#6F3FF5" stroke="none" stroke-width="1" d="M413.400000,425.600000L387.600000,425.600000L385.600000,420L414.600000,420L413.400000,425.600000L413.400000,425.600000ZM286.600000,425.600000L286.600000,425.600000L312.400000,425.600000L314.400000,420L285.500000,420L286.600000,425.600000Z"/><path id="eu8733ptd7725" fill="#6F3FF5" stroke="none" stroke-width="1" d="M415.400000,415.900000L384.200000,415.900000L382,409.500000L416.400000,409.500000L416.600000,410.300000L415.400000,415.900000ZM283.400000,410.300000L284.600000,416L315.800000,416L318,409.600000L283.600000,409.600000L283.400000,410.300000Z"/><path id="eu8733ptd7726" fill="#6F3FF5" stroke="none" stroke-width="1" d="M415.500000,405.600000L380.600000,405.600000L378.100000,398.500000L414,398.500000L415.500000,405.600000ZM284.400000,405.600000L319.300000,405.600000L321.800000,398.500000L285.900000,398.500000L284.400000,405.600000Z"/><path id="eu8733ptd7727" fill="#6F3FF5" stroke="none" stroke-width="1" d="M413.200000,394.500000L376.700000,394.500000L376.700000,394.500000L373.900000,386.400000L411.500000,386.400000L413.200000,394.500000L413.200000,394.500000ZM286.800000,394.400000L286.800000,394.400000L323.300000,394.400000L323.300000,394.400000L326.100000,386.300000L288.500000,386.300000L286.800000,394.400000Z"/><path id="eu8733ptd7728" fill="#6F3FF5" stroke="none" stroke-width="1" d="M410.700000,382.300000L372.500000,382.300000L369.300000,373.200000L408.800000,373.200000L410.700000,382.300000ZM289.300000,382.300000L327.500000,382.300000L330.700000,373.200000L291.200000,373.200000L289.300000,382.300000Z"/><path id="eu8733ptd7729" fill="#6F3FF5" stroke="none" stroke-width="1" d="M408,369.300000L368,369.300000L364.400000,358.900000L405.900000,358.900000L408,369.300000ZM292,369.300000L332,369.300000L335.600000,358.900000L294.100000,358.900000L292,369.300000Z"/><path id="eu8733ptd7730" fill="#6F3FF5" stroke="none" stroke-width="1" d="M404.900000,354.800000L362.900000,354.800000L358.800000,343.100000L402.400000,343.100000L404.900000,354.800000ZM295,354.800000L337,354.800000L341.100000,343.100000L297.500000,343.100000L295,354.800000Z"/><path id="eu8733ptd7731" fill="#6F3FF5" stroke="none" stroke-width="1" d="M401.700000,339.100000L357.500000,339.100000L352.900000,325.900000L398.900000,325.900000L401.700000,339.100000ZM298.300000,339.100000L342.500000,339.100000L347.100000,325.900000L301.100000,325.900000L298.300000,339.100000Z"/><path id="eu8733ptd7732" fill="#6F3FF5" stroke="none" stroke-width="1" d="M398,322L352.700000,322L352.700000,322L358,306.900000L394.900000,306.900000L398,322ZM346.200000,306.800000L344.100000,306.800000L342,306.800000L305.100000,306.800000L302,321.900000L347.300000,321.900000L347.300000,321.900000L348.600000,321.900000L349,320.800000L350.100000,317.800000L353.900000,306.900000L346.200000,306.900000Z"/><path id="eu8733ptd7733" fill="#6F3FF5" stroke="none" stroke-width="1" d="M365.400000,285.600000L390.400000,285.600000L394,302.800000L359.300000,302.800000L359.300000,302.800000L365.400000,285.600000ZM340.500000,302.800000L342.600000,302.800000L344.700000,302.800000L355.100000,302.800000L361.100000,285.600000L338.700000,285.600000L336.600000,285.600000L334.500000,285.600000L334.500000,285.600000L309.500000,285.600000L305.900000,302.800000L340.500000,302.800000L340.500000,302.800000Z"/><path id="eu8733ptd7734" fill="#6F3FF5" stroke="none" stroke-width="1" d="M373.700000,262L385.500000,262L389.600000,281.700000L366.800000,281.700000L373.700000,262L373.700000,262ZM333.200000,281.600000L335.300000,281.600000L337.400000,281.600000L362.600000,281.600000L369.500000,261.900000L330.600000,261.900000L328.500000,261.900000L326.400000,261.900000L326.400000,261.900000L314.600000,261.900000L310.500000,281.600000L333.200000,281.600000L333.200000,281.600000Z"/><path id="eu8733ptd7735" fill="#6F3FF5" stroke="none" stroke-width="1" d="M375.100000,258L381.100000,240.800000L384.700000,258L375.100000,258L375.100000,258ZM324.900000,258L327,258L329.100000,258L370.800000,258L378.700000,235.300000L321.200000,235.300000L320,235.300000L319.700000,237L318.900000,240.800000L315.300000,258L324.900000,258L324.900000,258Z"/></svg>