<svg xmlns="http://www.w3.org/2000/svg" xmlns:xlink="http://www.w3.org/1999/xlink" style="enable-background:new 0 0 1200 700" width="1200" height="700" x="0" y="0" version="1.1" viewBox="0 0 1200 700" xml:space="preserve"><style type="text/css">.st51{stroke:#02e2ac}.st51,.st53,.st54,.st55{fill:none;stroke-width:4}.st53{stroke:#6f3ff5}.st54{stroke:#f35890}.st55{stroke:#9b95b0}.st56{fill:#fff}</style><g id="Quad_City"><g><line x1="289.3" x2="289.3" y1="282.2" y2="188.9" class="st53"/><line x1="306.3" x2="306.3" y1="173.5" y2="299.8" class="st53"/><line x1="323.3" x2="323.3" y1="315.2" y2="166.8" class="st53"/><line x1="340.4" x2="340.4" y1="163.5" y2="333.1" class="st53"/><line x1="357.4" x2="357.4" y1="349.8" y2="163.2" class="st53"/><line x1="374.5" x2="374.5" y1="168.9" y2="368" class="st53"/><line x1="391.5" x2="391.5" y1="384.7" y2="178.3" class="st53"/><line x1="408.5" x2="408.5" y1="195.6" y2="401.6" class="st53"/><line x1="425.6" x2="425.6" y1="177.1" y2="382.2" class="st53"/><line x1="442.6" x2="442.6" y1="367.4" y2="167.7" class="st53"/><line x1="459.6" x2="459.6" y1="162.5" y2="349.8" class="st53"/><line x1="476.7" x2="476.7" y1="333.1" y2="161.6" class="st53"/><line x1="493.7" x2="493.7" y1="165" y2="315.2" class="st53"/><line x1="510.7" x2="510.7" y1="298.6" y2="173.5" class="st53"/><line x1="527.8" x2="527.8" y1="186.5" y2="281" class="st53"/></g><g><line x1="416.8" x2="416.8" y1="280.2" y2="186.9" class="st51"/><line x1="433.8" x2="433.8" y1="171.5" y2="297.8" class="st51"/><line x1="450.9" x2="450.9" y1="313.2" y2="164.8" class="st51"/><line x1="467.9" x2="467.9" y1="161.5" y2="331.1" class="st51"/><line x1="484.9" x2="484.9" y1="347.8" y2="161.2" class="st51"/><line x1="502" x2="502" y1="166.9" y2="366" class="st51"/><line x1="519" x2="519" y1="382.7" y2="176.3" class="st51"/><line x1="536" x2="536" y1="193.6" y2="399.6" class="st51"/><line x1="553.1" x2="553.1" y1="175.1" y2="380.2" class="st51"/><line x1="570.1" x2="570.1" y1="365.4" y2="165.7" class="st51"/><line x1="587.1" x2="587.1" y1="160.5" y2="347.8" class="st51"/><line x1="604.2" x2="604.2" y1="331.1" y2="159.6" class="st51"/><line x1="621.2" x2="621.2" y1="163" y2="313.2" class="st51"/><line x1="638.2" x2="638.2" y1="296.6" y2="171.5" class="st51"/><line x1="655.3" x2="655.3" y1="184.5" y2="279" class="st51"/></g><g><line x1="544.6" x2="544.6" y1="278.8" y2="185.5" class="st54"/><line x1="561.6" x2="561.6" y1="170.1" y2="296.4" class="st54"/><line x1="578.7" x2="578.7" y1="311.7" y2="163.4" class="st54"/><line x1="595.7" x2="595.7" y1="160.1" y2="329.7" class="st54"/><line x1="612.7" x2="612.7" y1="346.4" y2="159.7" class="st54"/><line x1="629.8" x2="629.8" y1="165.5" y2="364.6" class="st54"/><line x1="646.8" x2="646.8" y1="381.3" y2="174.9" class="st54"/><line x1="663.9" x2="663.9" y1="192.2" y2="398.2" class="st54"/><line x1="680.9" x2="680.9" y1="173.7" y2="378.8" class="st54"/><line x1="697.9" x2="697.9" y1="364" y2="164.3" class="st54"/><line x1="715" x2="715" y1="159.1" y2="346.4" class="st54"/><line x1="732" x2="732" y1="329.7" y2="158.2" class="st54"/><line x1="749" x2="749" y1="161.6" y2="311.8" class="st54"/><line x1="766.1" x2="766.1" y1="295.2" y2="170.1" class="st54"/><line x1="783.1" x2="783.1" y1="183.1" y2="277.6" class="st54"/></g><g><line x1="672.2" x2="672.2" y1="278.8" y2="185.5" class="st55"/><line x1="689.3" x2="689.3" y1="170.1" y2="296.4" class="st55"/><line x1="706.3" x2="706.3" y1="311.7" y2="163.4" class="st55"/><line x1="723.3" x2="723.3" y1="160.1" y2="329.7" class="st55"/><line x1="740.4" x2="740.4" y1="346.4" y2="159.7" class="st55"/><line x1="757.4" x2="757.4" y1="165.5" y2="364.6" class="st55"/><line x1="774.4" x2="774.4" y1="381.3" y2="174.9" class="st55"/><line x1="791.5" x2="791.5" y1="192.2" y2="398.2" class="st55"/><line x1="808.5" x2="808.5" y1="173.7" y2="378.8" class="st55"/><line x1="825.5" x2="825.5" y1="364" y2="164.3" class="st55"/><line x1="842.6" x2="842.6" y1="159.1" y2="346.4" class="st55"/><line x1="859.6" x2="859.6" y1="329.7" y2="158.2" class="st55"/><line x1="876.7" x2="876.7" y1="161.6" y2="311.8" class="st55"/><line x1="893.7" x2="893.7" y1="295.2" y2="170.1" class="st55"/><line x1="910.7" x2="910.7" y1="183.1" y2="277.6" class="st55"/></g><g><path d="M388,424.9v5.1h5.6v1.7H388v5.3h6.2v1.7H386v-15.4h8.2v1.7H388z" class="st56"/><path d="M397.3,429.3c0.5-0.9,1.2-1.7,2.1-2.2c0.9-0.5,1.8-0.8,2.9-0.8c1.1,0,2,0.2,2.8,0.7c0.8,0.5,1.4,1,1.7,1.7 v-2.2h2v12.1h-2v-2.2c-0.4,0.7-1,1.3-1.8,1.7s-1.7,0.7-2.7,0.7c-1.1,0-2-0.3-2.9-0.8c-0.9-0.5-1.5-1.3-2-2.2c-0.5-1-0.7-2-0.7-3.3 C396.5,431.3,396.8,430.3,397.3,429.3z M406.2,430.2c-0.4-0.7-0.9-1.2-1.5-1.6c-0.6-0.4-1.3-0.5-2.1-0.5c-0.7,0-1.4,0.2-2,0.5 c-0.6,0.4-1.1,0.9-1.5,1.5c-0.4,0.7-0.5,1.5-0.5,2.4c0,0.9,0.2,1.7,0.5,2.4c0.4,0.7,0.9,1.2,1.5,1.6c0.6,0.4,1.3,0.5,2,0.5 c0.7,0,1.4-0.2,2.1-0.5c0.6-0.4,1.1-0.9,1.5-1.6c0.4-0.7,0.6-1.5,0.6-2.4S406.6,430.9,406.2,430.2z" class="st56"/><path d="M415.7,426.9c0.7-0.4,1.4-0.6,2.4-0.6v2.1h-0.5c-2.2,0-3.4,1.2-3.4,3.7v6.6h-2v-12.1h2v2 C414.5,427.9,415,427.3,415.7,426.9z" class="st56"/><path d="M429.8,427.7c0.9,0.9,1.4,2.2,1.4,3.8v7.1h-2v-6.8c0-1.2-0.3-2.1-0.9-2.8c-0.6-0.6-1.4-1-2.5-1 c-1.1,0-1.9,0.3-2.5,1s-0.9,1.6-0.9,2.9v6.7h-2v-12.1h2v1.7c0.4-0.6,0.9-1.1,1.6-1.4c0.7-0.3,1.4-0.5,2.3-0.5 C427.7,426.4,428.9,426.8,429.8,427.7z" class="st56"/></g><g><path d="M509.6,437h5.4v1.6h-7.4v-15.3h2V437z" class="st56"/><path d="M528,433.4h-9.6c0.1,1.2,0.5,2.1,1.2,2.8c0.7,0.7,1.6,1,2.7,1c0.9,0,1.6-0.2,2.2-0.6c0.6-0.4,1-0.9,1.2-1.6 h2.2c-0.3,1.2-1,2.1-1.9,2.8c-1,0.7-2.2,1.1-3.6,1.1c-1.1,0-2.2-0.3-3.1-0.8c-0.9-0.5-1.6-1.2-2.1-2.2c-0.5-0.9-0.8-2-0.8-3.3 s0.2-2.3,0.7-3.3c0.5-0.9,1.2-1.7,2.1-2.2s1.9-0.8,3.1-0.8c1.1,0,2.2,0.2,3,0.7s1.6,1.2,2,2.1c0.5,0.9,0.7,1.9,0.7,3 C528.1,432.5,528.1,432.9,528,433.4z M525.5,429.8c-0.3-0.5-0.8-1-1.4-1.3c-0.6-0.3-1.2-0.4-1.9-0.4c-1,0-1.9,0.3-2.6,1 c-0.7,0.6-1.1,1.5-1.2,2.7h7.6C526,431,525.8,430.3,525.5,429.8z" class="st56"/><path d="M530.7,429.3c0.5-0.9,1.2-1.7,2.1-2.2c0.9-0.5,1.8-0.8,2.9-0.8c1.1,0,2,0.2,2.8,0.7c0.8,0.5,1.4,1,1.7,1.7 v-2.2h2v12.1h-2v-2.2c-0.4,0.7-1,1.3-1.8,1.7s-1.7,0.7-2.7,0.7c-1.1,0-2-0.3-2.9-0.8c-0.9-0.5-1.5-1.3-2-2.2c-0.5-1-0.7-2-0.7-3.3 C530,431.3,530.2,430.3,530.7,429.3z M539.6,430.2c-0.4-0.7-0.9-1.2-1.5-1.6c-0.6-0.4-1.3-0.5-2.1-0.5c-0.7,0-1.4,0.2-2,0.5 c-0.6,0.4-1.1,0.9-1.5,1.5c-0.4,0.7-0.5,1.5-0.5,2.4c0,0.9,0.2,1.7,0.5,2.4c0.4,0.7,0.9,1.2,1.5,1.6c0.6,0.4,1.3,0.5,2,0.5 c0.7,0,1.4-0.2,2.1-0.5c0.6-0.4,1.1-0.9,1.5-1.6c0.4-0.7,0.6-1.5,0.6-2.4S540,430.9,539.6,430.2z" class="st56"/><path d="M549.1,426.9c0.7-0.4,1.4-0.6,2.4-0.6v2.1H551c-2.2,0-3.4,1.2-3.4,3.7v6.6h-2v-12.1h2v2 C547.9,427.9,548.4,427.3,549.1,426.9z" class="st56"/><path d="M563.2,427.7c0.9,0.9,1.4,2.2,1.4,3.8v7.1h-2v-6.8c0-1.2-0.3-2.1-0.9-2.8c-0.6-0.6-1.4-1-2.5-1 c-1.1,0-1.9,0.3-2.5,1s-0.9,1.6-0.9,2.9v6.7h-2v-12.1h2v1.7c0.4-0.6,0.9-1.1,1.6-1.4c0.7-0.3,1.4-0.5,2.3-0.5 C561.1,426.4,562.3,426.8,563.2,427.7z" class="st56"/></g><g><path d="M618.7,426.9c0.7-1.2,1.6-2.1,2.8-2.8c1.2-0.7,2.5-1,3.9-1c1.7,0,3.1,0.4,4.4,1.2c1.2,0.8,2.2,2,2.7,3.4 h-2.4c-0.4-0.9-1-1.6-1.8-2.1c-0.8-0.5-1.8-0.7-2.9-0.7c-1.1,0-2,0.2-2.9,0.7c-0.9,0.5-1.5,1.2-2,2.1c-0.5,0.9-0.7,2-0.7,3.2 c0,1.2,0.2,2.3,0.7,3.2c0.5,0.9,1.2,1.6,2,2.1c0.9,0.5,1.8,0.7,2.9,0.7c1.1,0,2.1-0.2,2.9-0.7c0.8-0.5,1.4-1.2,1.8-2.1h2.4 c-0.6,1.5-1.5,2.6-2.7,3.4c-1.2,0.8-2.7,1.2-4.4,1.2c-1.4,0-2.7-0.3-3.9-1c-1.2-0.7-2.1-1.6-2.8-2.8c-0.7-1.2-1-2.5-1-4 S618,428.1,618.7,426.9z" class="st56"/><path d="M637.6,438.1c-0.9-0.5-1.6-1.2-2.2-2.2c-0.5-0.9-0.8-2-0.8-3.3c0-1.2,0.3-2.3,0.8-3.3 c0.5-0.9,1.3-1.7,2.2-2.2c0.9-0.5,2-0.8,3.1-0.8s2.2,0.3,3.1,0.8c0.9,0.5,1.7,1.2,2.2,2.2s0.8,2,0.8,3.3s-0.3,2.3-0.8,3.3 c-0.5,0.9-1.3,1.7-2.2,2.2c-0.9,0.5-2,0.8-3.1,0.8C639.5,438.8,638.5,438.6,637.6,438.1z M642.7,436.6c0.6-0.3,1.1-0.8,1.5-1.5 s0.6-1.5,0.6-2.5s-0.2-1.8-0.6-2.5c-0.4-0.7-0.9-1.2-1.5-1.5c-0.6-0.3-1.3-0.5-2-0.5c-0.7,0-1.4,0.2-2,0.5 c-0.6,0.3-1.1,0.8-1.5,1.5c-0.4,0.7-0.5,1.5-0.5,2.5c0,1,0.2,1.8,0.5,2.5c0.4,0.7,0.8,1.2,1.4,1.5s1.3,0.5,2,0.5 S642.1,436.9,642.7,436.6z" class="st56"/><path d="M658.9,427.7c0.9,0.9,1.4,2.2,1.4,3.8v7.1h-2v-6.8c0-1.2-0.3-2.1-0.9-2.8c-0.6-0.6-1.4-1-2.5-1 c-1.1,0-1.9,0.3-2.5,1s-0.9,1.6-0.9,2.9v6.7h-2v-12.1h2v1.7c0.4-0.6,0.9-1.1,1.6-1.4c0.7-0.3,1.4-0.5,2.3-0.5 C656.8,426.4,658,426.8,658.9,427.7z" class="st56"/><path d="M673,427.7c0.9,0.9,1.4,2.2,1.4,3.8v7.1h-2v-6.8c0-1.2-0.3-2.1-0.9-2.8c-0.6-0.6-1.4-1-2.5-1 c-1.1,0-1.9,0.3-2.5,1s-0.9,1.6-0.9,2.9v6.7h-2v-12.1h2v1.7c0.4-0.6,0.9-1.1,1.6-1.4c0.7-0.3,1.4-0.5,2.3-0.5 C670.9,426.4,672.1,426.8,673,427.7z" class="st56"/><path d="M688.6,433.4H679c0.1,1.2,0.5,2.1,1.2,2.8c0.7,0.7,1.6,1,2.7,1c0.9,0,1.6-0.2,2.2-0.6c0.6-0.4,1-0.9,1.2-1.6 h2.2c-0.3,1.2-1,2.1-1.9,2.8c-1,0.7-2.2,1.1-3.6,1.1c-1.1,0-2.2-0.3-3.1-0.8c-0.9-0.5-1.6-1.2-2.1-2.2c-0.5-0.9-0.8-2-0.8-3.3 s0.2-2.3,0.7-3.3c0.5-0.9,1.2-1.7,2.1-2.2s1.9-0.8,3.1-0.8c1.1,0,2.2,0.2,3,0.7s1.6,1.2,2,2.1c0.5,0.9,0.7,1.9,0.7,3 C688.7,432.5,688.6,432.9,688.6,433.4z M686.1,429.8c-0.3-0.5-0.8-1-1.4-1.3c-0.6-0.3-1.2-0.4-1.9-0.4c-1,0-1.9,0.3-2.6,1 c-0.7,0.6-1.1,1.5-1.2,2.7h7.6C686.6,431,686.4,430.3,686.1,429.8z" class="st56"/><path d="M691.3,429.3c0.5-0.9,1.2-1.7,2.1-2.2c0.9-0.5,1.9-0.8,3-0.8c1.5,0,2.7,0.4,3.7,1.1c1,0.7,1.6,1.7,1.9,3 h-2.2c-0.2-0.7-0.6-1.3-1.2-1.7c-0.6-0.4-1.3-0.6-2.2-0.6c-1.1,0-2.1,0.4-2.8,1.2s-1.1,1.9-1.1,3.3c0,1.5,0.4,2.6,1.1,3.4 s1.6,1.2,2.8,1.2c0.9,0,1.6-0.2,2.2-0.6c0.6-0.4,1-1,1.2-1.8h2.2c-0.3,1.2-1,2.2-1.9,3c-1,0.7-2.2,1.1-3.6,1.1 c-1.1,0-2.2-0.3-3-0.8c-0.9-0.5-1.6-1.2-2.1-2.2c-0.5-0.9-0.7-2-0.7-3.3C690.6,431.3,690.8,430.3,691.3,429.3z" class="st56"/><path d="M707.1,428.2v7.1c0,0.6,0.1,1,0.4,1.2c0.2,0.2,0.7,0.4,1.3,0.4h1.5v1.7h-1.8c-1.1,0-2-0.3-2.5-0.8 c-0.6-0.5-0.8-1.4-0.8-2.5v-7.1h-1.6v-1.6h1.6v-3h2v3h3.1v1.6H707.1z" class="st56"/></g><g><path d="M771.5,437.8c-1.2-0.7-2.1-1.6-2.8-2.8c-0.7-1.2-1-2.5-1-4s0.3-2.8,1-4c0.7-1.2,1.6-2.1,2.8-2.8 c1.2-0.7,2.5-1,3.9-1c1.4,0,2.7,0.3,3.9,1c1.2,0.7,2.1,1.6,2.8,2.8c0.7,1.2,1,2.5,1,4s-0.3,2.9-1,4c-0.7,1.2-1.6,2.1-2.8,2.8 c-1.2,0.7-2.5,1-3.9,1C774,438.8,772.7,438.5,771.5,437.8z M778.3,436.3c0.9-0.5,1.5-1.2,2-2.1c0.5-0.9,0.7-2,0.7-3.2 c0-1.2-0.2-2.3-0.7-3.2c-0.5-0.9-1.2-1.6-2-2.1c-0.9-0.5-1.8-0.7-2.9-0.7c-1.1,0-2.1,0.2-2.9,0.7c-0.9,0.5-1.5,1.2-2,2.1 c-0.5,0.9-0.7,2-0.7,3.2c0,1.2,0.2,2.3,0.7,3.2c0.5,0.9,1.2,1.6,2,2.1c0.9,0.5,1.8,0.7,2.9,0.7 C776.5,437.1,777.4,436.8,778.3,436.3z" class="st56"/><path d="M801.8,426.6l-3.8,12.1H796l-2.9-9.6l-2.9,9.6h-2.1l-3.8-12.1h2l2.8,10.1l3-10.1h2l2.9,10.1l2.7-10.1H801.8z" class="st56"/><path d="M813.2,427.7c0.9,0.9,1.4,2.2,1.4,3.8v7.1h-2v-6.8c0-1.2-0.3-2.1-0.9-2.8c-0.6-0.6-1.4-1-2.5-1 c-1.1,0-1.9,0.3-2.5,1s-0.9,1.6-0.9,2.9v6.7h-2v-12.1h2v1.7c0.4-0.6,0.9-1.1,1.6-1.4c0.7-0.3,1.4-0.5,2.3-0.5 C811.1,426.4,812.3,426.8,813.2,427.7z" class="st56"/></g><g><line x1="391.5" x2="391.5" y1="475.4" y2="541.8" class="st53"/><line x1="374.5" x2="374.5" y1="492.1" y2="541.8" class="st53"/><line x1="408.5" x2="408.5" y1="458.4" y2="541.8" class="st53"/><line x1="459.6" x2="459.6" y1="510.3" y2="541.8" class="st53"/><line x1="442.6" x2="442.6" y1="492.7" y2="541.8" class="st53"/><line x1="425.6" x2="425.6" y1="477.8" y2="541.8" class="st53"/><line x1="357.4" x2="357.4" y1="510.3" y2="541.8" class="st53"/></g><g><line x1="518.6" x2="518.6" y1="475.4" y2="541.8" class="st51"/><line x1="501.6" x2="501.6" y1="492.1" y2="541.8" class="st51"/><line x1="535.7" x2="535.7" y1="458.4" y2="541.8" class="st51"/><line x1="586.8" x2="586.8" y1="510.3" y2="541.8" class="st51"/><line x1="569.7" x2="569.7" y1="492.7" y2="541.8" class="st51"/><line x1="552.7" x2="552.7" y1="477.8" y2="541.8" class="st51"/><line x1="484.6" x2="484.6" y1="510.3" y2="541.8" class="st51"/></g><g><line x1="646.3" x2="646.3" y1="475.4" y2="541.8" class="st54"/><line x1="629.3" x2="629.3" y1="492.1" y2="541.8" class="st54"/><line x1="663.3" x2="663.3" y1="458.4" y2="541.8" class="st54"/><line x1="714.4" x2="714.4" y1="510.3" y2="541.8" class="st54"/><line x1="697.4" x2="697.4" y1="492.7" y2="541.8" class="st54"/><line x1="680.4" x2="680.4" y1="477.8" y2="541.8" class="st54"/><line x1="612.2" x2="612.2" y1="510.3" y2="541.8" class="st54"/></g><g><line x1="774" x2="774" y1="475.4" y2="541.8" class="st55"/><line x1="756.9" x2="756.9" y1="492.1" y2="541.8" class="st55"/><line x1="791" x2="791" y1="458.4" y2="541.8" class="st55"/><line x1="842.1" x2="842.1" y1="510.3" y2="541.8" class="st55"/><line x1="825.1" x2="825.1" y1="492.7" y2="541.8" class="st55"/><line x1="808" x2="808" y1="477.8" y2="541.8" class="st55"/><line x1="739.9" x2="739.9" y1="510.3" y2="541.8" class="st55"/></g></g></svg>